<svg xmlns="http://www.w3.org/2000/svg" xmlns:cc="http://web.resource.org/cc/" xmlns:svg="http://www.w3.org/2000/svg" xmlns:xlink="http://www.w3.org/1999/xlink" id="svg7854" width="48" height="48" version="1.0"><defs id="defs7856"><linearGradient id="linearGradient5656"><stop style="stop-color:#4e83c7;stop-opacity:1" id="stop5658" offset="0"/><stop id="stop5665" offset=".243" style="stop-color:#4573a9;stop-opacity:1"/><stop style="stop-color:#729fcf;stop-opacity:1" id="stop5660" offset="1"/></linearGradient><linearGradient id="linearGradient5817"><stop style="stop-color:#fff;stop-opacity:1" id="stop5819" offset="0"/><stop style="stop-color:#fff;stop-opacity:0" id="stop5821" offset="1"/></linearGradient><linearGradient id="linearGradient5785"><stop style="stop-color:#f1f1f0;stop-opacity:1" id="stop5787" offset="0"/><stop style="stop-color:#555753;stop-opacity:1" id="stop5789" offset="1"/></linearGradient><linearGradient id="linearGradient5737"><stop style="stop-color:#babdb6;stop-opacity:1" id="stop5739" offset="0"/><stop style="stop-color:#dddedb;stop-opacity:1" id="stop5741" offset="1"/></linearGradient><linearGradient id="linearGradient5683"><stop style="stop-color:#fff;stop-opacity:1" id="stop5685" offset="0"/><stop style="stop-color:#fff;stop-opacity:0" id="stop5687" offset="1"/></linearGradient><linearGradient id="linearGradient5660"><stop style="stop-color:#cbcbcb;stop-opacity:1" id="stop5662" offset="0"/><stop style="stop-color:#9f9f9f;stop-opacity:1" id="stop5664" offset="1"/></linearGradient><linearGradient id="linearGradient5633"><stop style="stop-color:#f8f8f8;stop-opacity:1" id="stop5635" offset="0"/><stop style="stop-color:#c7c7c1;stop-opacity:1" id="stop5637" offset="1"/></linearGradient><linearGradient id="linearGradient5623"><stop style="stop-color:#fff;stop-opacity:1" id="stop5625" offset="0"/><stop style="stop-color:#fff;stop-opacity:0" id="stop5627" offset="1"/></linearGradient><linearGradient id="linearGradient5611"><stop style="stop-color:#5e5e5e;stop-opacity:1" id="stop5613" offset="0"/><stop style="stop-color:#929292;stop-opacity:1" id="stop5615" offset="1"/></linearGradient><linearGradient id="linearGradient6842"><stop style="stop-color:#d8d9d7;stop-opacity:1" id="stop6844" offset="0"/><stop style="stop-color:#7c7f79;stop-opacity:1" id="stop6846" offset="1"/></linearGradient><linearGradient id="linearGradient6832"><stop style="stop-color:#555753;stop-opacity:1" id="stop6834" offset="0"/><stop style="stop-color:#838680;stop-opacity:1" id="stop6836" offset="1"/></linearGradient><radialGradient id="radialGradient6719" cx="605.714" cy="486.648" r="117.143" fx="605.714" fy="486.648" gradientTransform="matrix(-2.774389,0,0,1.969706,112.7623,-872.8854)" gradientUnits="userSpaceOnUse" xlink:href="#linearGradient5060"/><linearGradient id="linearGradient5060"><stop style="stop-color:black;stop-opacity:1" id="stop5062" offset="0"/><stop style="stop-color:black;stop-opacity:0" id="stop5064" offset="1"/></linearGradient><radialGradient id="radialGradient6717" cx="605.714" cy="486.648" r="117.143" fx="605.714" fy="486.648" gradientTransform="matrix(2.774389,0,0,1.969706,-1891.633,-872.8854)" gradientUnits="userSpaceOnUse" xlink:href="#linearGradient5060"/><linearGradient id="linearGradient5048"><stop style="stop-color:black;stop-opacity:0" id="stop5050" offset="0"/><stop id="stop5056" offset=".5" style="stop-color:black;stop-opacity:1"/><stop style="stop-color:black;stop-opacity:0" id="stop5052" offset="1"/></linearGradient><linearGradient id="linearGradient6715" x1="302.857" x2="302.857" y1="366.648" y2="609.505" gradientTransform="matrix(2.774389,0,0,1.969706,-1892.179,-872.8854)" gradientUnits="userSpaceOnUse" xlink:href="#linearGradient5048"/><linearGradient id="linearGradient5534"><stop style="stop-color:#888a85;stop-opacity:1" id="stop5536" offset="0"/><stop style="stop-color:#6b6d68;stop-opacity:1" id="stop5538" offset="1"/></linearGradient><linearGradient id="linearGradient5508"><stop style="stop-color:white;stop-opacity:1" id="stop5510" offset="0"/><stop style="stop-color:white;stop-opacity:0" id="stop5512" offset="1"/></linearGradient><linearGradient id="linearGradient5491"><stop style="stop-color:#959792;stop-opacity:1" id="stop5493" offset="0"/><stop id="stop5501" offset=".25" style="stop-color:#838681;stop-opacity:1"/><stop id="stop5499" offset=".624" style="stop-color:#abaca9;stop-opacity:1"/><stop style="stop-color:#fff;stop-opacity:1" id="stop5771" offset=".797"/><stop style="stop-color:#90928d;stop-opacity:1" id="stop5495" offset="1"/></linearGradient><linearGradient id="linearGradient5497" x1="15.876" x2="15.876" y1="39.987" y2="19.573" gradientTransform="matrix(1,0,0,1.012575,0,1.792163)" gradientUnits="userSpaceOnUse" xlink:href="#linearGradient5491"/><linearGradient id="linearGradient5514" x1="21.5" x2="23.892" y1="21.859" y2="49.359" gradientTransform="matrix(1,0,0,0.998582,0,2.05744)" gradientUnits="userSpaceOnUse" xlink:href="#linearGradient5508"/><linearGradient id="linearGradient5540" x1="38.907" x2="35.315" y1="38.791" y2="23.059" gradientUnits="userSpaceOnUse" xlink:href="#linearGradient5534"/><linearGradient id="linearGradient6838" x1="30.25" x2="30.25" y1="10.232" y2="8.625" gradientTransform="matrix(1.05298,0,0,1,-2.245034,0)" gradientUnits="userSpaceOnUse" xlink:href="#linearGradient6832"/><radialGradient id="radialGradient6848" cx="34.313" cy="31.953" r="2.281" fx="34.313" fy="31.953" gradientTransform="matrix(1,0,0,1.554795,0,-17.72742)" gradientUnits="userSpaceOnUse" xlink:href="#linearGradient6842"/><filter id="filter6876" width="1.248" height="1.16" x="-.124" y="-.08"><feGaussianBlur id="feGaussianBlur6878" stdDeviation=".283"/></filter><linearGradient id="linearGradient5617" x1="34.125" x2="33.781" y1="35.5" y2="29.516" gradientUnits="userSpaceOnUse" xlink:href="#linearGradient5611"/><linearGradient id="linearGradient5679" x1="12.164" x2="11.655" y1="25.804" y2="31.648" gradientTransform="translate(2.6055772,-0.1490088)" gradientUnits="userSpaceOnUse" xlink:href="#linearGradient5633"/><linearGradient id="linearGradient5681" x1="20.882" x2="18.973" y1="39.454" y2="24.03" gradientTransform="translate(-1.0625,0)" gradientUnits="userSpaceOnUse" xlink:href="#linearGradient5660"/><linearGradient id="linearGradient5689" x1="16.207" x2="17.688" y1="25.374" y2="34.937" gradientUnits="userSpaceOnUse" xlink:href="#linearGradient5683"/><filter id="filter5733" width="1.153" height="1.715" x="-.076" y="-.357"><feGaussianBlur id="feGaussianBlur5735" stdDeviation=".6"/></filter><linearGradient id="linearGradient5743" x1="27.445" x2="26.719" y1="16.572" y2="26.118" gradientUnits="userSpaceOnUse" xlink:href="#linearGradient5737"/><linearGradient id="linearGradient5757" x1="14.444" x2="14.632" y1="34.454" y2="43.938" gradientTransform="translate(-9.3174065e-2,-1.0625)" gradientUnits="userSpaceOnUse" xlink:href="#linearGradient5623"/><radialGradient id="radialGradient5791" cx="30.128" cy="29.84" r="6.999" fx="30.128" fy="29.84" gradientTransform="matrix(1.7481488,0,0,1.7805361,-23.042966,-23.568319)" gradientUnits="userSpaceOnUse" xlink:href="#linearGradient5785"/><linearGradient id="linearGradient5815" x1="38.449" x2="38.537" y1="8.667" y2="10.435" gradientUnits="userSpaceOnUse" xlink:href="#linearGradient5817"/><linearGradient id="linearGradient5823" x1="38.449" x2="38.626" y1="8.667" y2="12.291" gradientUnits="userSpaceOnUse" xlink:href="#linearGradient5817"/><linearGradient id="linearGradient5827" x1="38.449" x2="38.537" y1="8.667" y2="10.435" gradientTransform="translate(1.5625e-2,-2.34375e-2)" gradientUnits="userSpaceOnUse" xlink:href="#linearGradient5817"/><linearGradient id="linearGradient5831" x1="40.546" x2="42.913" y1="9.438" y2="9.835" gradientUnits="userSpaceOnUse" xlink:href="#linearGradient5817"/><linearGradient id="linearGradient5662" x1="9.955" x2="9.538" y1="43.938" y2="30.147" gradientUnits="userSpaceOnUse" xlink:href="#linearGradient5656"/></defs><metadata id="metadata7859"/><g id="layer1"><g id="g3952" transform="matrix(2.003119e-2,0,0,1.418958e-2,39.920222,42.113199)" style="opacity:.6;display:inline"><rect id="rect3954" width="1339.633" height="478.357" x="-1559.252" y="-150.697" style="opacity:.40206185;color:#000;fill:url(#linearGradient6715);fill-opacity:1;fill-rule:nonzero;stroke:none;stroke-width:1;stroke-linecap:round;stroke-linejoin:miter;marker:none;marker-start:none;marker-mid:none;marker-end:none;stroke-miterlimit:4;stroke-dasharray:none;stroke-dashoffset:0;stroke-opacity:1;visibility:visible;display:inline;overflow:visible"/><path id="path3956" d="M -219.61876,-150.68038 C -219.61876,-150.68038 -219.61876,327.65041 -219.61876,327.65041 C -76.744594,328.55086 125.78146,220.48075 125.78138,88.454235 C 125.78138,-43.572302 -33.655436,-150.68036 -219.61876,-150.68038 z" style="opacity:.40206185;color:#000;fill:url(#radialGradient6717);fill-opacity:1;fill-rule:nonzero;stroke:none;stroke-width:1;stroke-linecap:round;stroke-linejoin:miter;marker:none;marker-start:none;marker-mid:none;marker-end:none;stroke-miterlimit:4;stroke-dasharray:none;stroke-dashoffset:0;stroke-opacity:1;visibility:visible;display:inline;overflow:visible"/><path style="opacity:.40206185;color:#000;fill:url(#radialGradient6719);fill-opacity:1;fill-rule:nonzero;stroke:none;stroke-width:1;stroke-linecap:round;stroke-linejoin:miter;marker:none;marker-start:none;marker-mid:none;marker-end:none;stroke-miterlimit:4;stroke-dasharray:none;stroke-dashoffset:0;stroke-opacity:1;visibility:visible;display:inline;overflow:visible" id="path3958" d="M -1559.2523,-150.68038 C -1559.2523,-150.68038 -1559.2523,327.65041 -1559.2523,327.65041 C -1702.1265,328.55086 -1904.6525,220.48075 -1904.6525,88.454235 C -1904.6525,-43.572302 -1745.2157,-150.68036 -1559.2523,-150.68038 z"/></g><path id="path5759" d="M 20.670683,38.121593 L 39.237616,38.402413 C 39.597781,38.402413 39.661316,39.079268 39.661316,39.079268 C 38.913718,41.86934 35.787031,43.434991 33.694558,43.434991 L 10.125292,43.467239 C 17.358881,43.015161 17.861895,42.581738 18.431569,39.427854 C 18.92055,38.43956 19.832943,38.121593 20.670683,38.121593 z" style="color:#000;fill:#3465a4;fill-opacity:1;fill-rule:evenodd;stroke:#204a87;stroke-width:.99999964;stroke-linecap:butt;stroke-linejoin:round;marker:none;marker-start:none;marker-mid:none;marker-end:none;stroke-miterlimit:4;stroke-dashoffset:0;stroke-opacity:1;visibility:visible;display:inline;overflow:visible"/><path style="opacity:1;color:#000;fill:url(#linearGradient5497);fill-opacity:1;fill-rule:nonzero;stroke:#555753;stroke-width:.99715477;stroke-linecap:square;stroke-linejoin:miter;marker:none;marker-start:none;marker-mid:none;marker-end:none;stroke-miterlimit:4;stroke-dasharray:none;stroke-dashoffset:0;stroke-opacity:1;visibility:visible;display:inline;overflow:visible;enable-background:accumulate" id="path5472" d="M 10,20.5248 C 6.412,20.5248 3.5,25.514772 3.5,31.663125 C 3.5,37.811478 6.412,42.532952 10,42.532951 C 10.085669,42.532951 10.165133,42.506945 10.25,42.501308 L 10.25,42.532951 L 32.46967,42.532951 L 32.46967,20.498587 C 32.46967,20.498587 17.657449,20.687421 10,20.5248 z"/><path style="opacity:1;color:#000;fill:url(#linearGradient5540);fill-opacity:1;fill-rule:nonzero;stroke:url(#radialGradient5791);stroke-width:.99715447;stroke-linecap:square;stroke-linejoin:miter;marker:none;marker-start:none;marker-mid:none;marker-end:none;stroke-miterlimit:4;stroke-dasharray:none;stroke-dashoffset:0;stroke-opacity:1;visibility:visible;display:inline;overflow:visible;enable-background:accumulate" id="path4585" d="M 43.125 29.5625 A 6.5 10.9375 0 1 1 30.125,29.5625 A 6.5 10.9375 0 1 1 43.125 29.5625 z" transform="matrix(1,0,0,1.005714,-3.625004,1.76858)"/><path style="opacity:.41714286;color:#000;fill:none;fill-opacity:1;fill-rule:nonzero;stroke:url(#linearGradient5514);stroke-width:.99715441;stroke-linecap:square;stroke-linejoin:miter;marker:none;marker-start:none;marker-mid:none;marker-end:none;stroke-miterlimit:4;stroke-dasharray:none;stroke-dashoffset:0;stroke-opacity:1;visibility:visible;display:inline;overflow:visible;enable-background:accumulate" id="path5503" d="M 32.473565,21.49858 C 32.473565,21.49858 17.500413,21.672768 10.52643,21.526952 C 7.2586769,21.526952 4.6065875,26.001236 4.6065875,31.514187 C 4.6065875,37.027139 7.2586769,41.501422 10.52643,41.501421 C 10.604453,41.501421 10.676824,41.478104 10.754116,41.473049 L 10.754116,41.501421 L 32.473565,41.501421 C 35.741318,41.501421 38.393408,37.02714 38.393408,31.514187 C 38.393408,26.001236 35.741318,21.526952 32.473565,21.526952 L 32.473565,21.49858 z"/><path style="fill:url(#linearGradient5743);fill-opacity:1;fill-rule:evenodd;stroke:#555753;stroke-width:1;stroke-linecap:butt;stroke-linejoin:miter;stroke-miterlimit:4;stroke-dasharray:none;stroke-opacity:1" id="path5477" d="M 22.1875,8.503371 C 21.133672,8.5033716 20.292967,8.9634128 19.8125,9.7533713 L 14.53125,19.722125 L 14.15625,20.472125 L 14.96875,20.472125 L 16.09375,20.472125 L 16.40625,20.472125 L 16.53125,20.190875 L 21.4375,10.909625 C 21.534594,10.75278 21.861706,10.503375 22.1875,10.503375 L 43.859375,10.511188 C 44.068946,10.495562 44.143944,10.70982 44.070312,10.808063 L 33.15625,30.690875 L 32.90625,31.128375 L 33.34375,31.378375 L 34.21875,31.847125 L 34.65625,32.065875 L 34.90625,31.628375 L 45.96875,11.472125 C 46.338598,10.84623 46.209616,10.15089 45.90625,9.597121 C 45.569718,8.9828169 44.881812,8.4842012 44,8.503371 L 22.1875,8.503371 z"/><rect style="opacity:1;color:#000;fill:url(#linearGradient6838);fill-opacity:1;fill-rule:nonzero;stroke:#2e3436;stroke-width:.9999994;stroke-linecap:square;stroke-linejoin:miter;marker:none;marker-start:none;marker-mid:none;marker-end:none;stroke-miterlimit:4;stroke-dasharray:none;stroke-dashoffset:0;stroke-opacity:1;visibility:visible;display:inline;overflow:visible;enable-background:accumulate" id="rect6826" width="19.875" height="4" x="22.5" y="7.5" rx="2" ry="2"/><path id="path6850" d="M 35.5625 31.953125 A 1.78125 3.046875 0 1 1 32,31.953125 A 1.78125 3.046875 0 1 1 35.5625 31.953125 z" transform="matrix(1,0,0,0.7747234,-0.507583,8.1056504)" style="opacity:.38285714;color:#000;fill:#2e3436;fill-opacity:1;fill-rule:nonzero;stroke:#2e3436;stroke-width:1.1361264;stroke-linecap:square;stroke-linejoin:miter;marker:none;marker-start:none;marker-mid:none;marker-end:none;stroke-miterlimit:4;stroke-dasharray:none;stroke-dashoffset:0;stroke-opacity:1;visibility:visible;display:inline;overflow:visible;filter:url(#filter6876);enable-background:accumulate"/><path style="opacity:1;color:#000;fill:url(#radialGradient6848);fill-opacity:1;fill-rule:nonzero;stroke:url(#linearGradient5617);stroke-width:1;stroke-linecap:square;stroke-linejoin:miter;marker:none;marker-start:none;marker-mid:none;marker-end:none;stroke-miterlimit:4;stroke-dasharray:none;stroke-dashoffset:0;stroke-opacity:1;visibility:visible;display:inline;overflow:visible;enable-background:accumulate" id="path6840" d="M 35.5625 31.953125 A 1.78125 3.046875 0 1 1 32,31.953125 A 1.78125 3.046875 0 1 1 35.5625 31.953125 z"/><path style="color:#000;fill:url(#linearGradient5679);fill-opacity:1;fill-rule:nonzero;stroke:url(#linearGradient5681);stroke-width:1;stroke-linecap:square;stroke-linejoin:miter;marker:none;marker-start:none;marker-mid:none;marker-end:none;stroke-miterlimit:4;stroke-dashoffset:0;stroke-opacity:1;visibility:visible;display:inline;overflow:visible;enable-background:accumulate" id="rect5631" d="M 8.4946642,23.5 L 23.524049,23.5 C 23.995476,23.5 24.4375,24.004524 24.0625,24.507201 C 21.461624,28.82422 22.426839,34.513032 24.125,38.64734 C 24.125,39.118767 23.745476,39.498291 23.274049,39.498291 L 8.0571642,40.810791 C 7.5857373,40.810791 7.3624632,40.275017 7.3624632,39.80359 C 7.1239905,35.058 3.6583689,28.25774 7.8441574,23.708565 C 7.8441574,23.708565 8.0232373,23.5 8.4946642,23.5 z"/><path style="opacity:1;color:#000;fill:none;fill-opacity:1;fill-rule:nonzero;stroke:url(#linearGradient5689);stroke-width:1;stroke-linecap:square;stroke-linejoin:miter;marker:none;marker-start:none;marker-mid:none;marker-end:none;stroke-miterlimit:4;stroke-dashoffset:0;stroke-opacity:1;visibility:visible;display:inline;overflow:visible;enable-background:accumulate" id="path5677" d="M 8.46875,24.5 C 6.7126316,26.473967 6.5204987,28.866154 6.875,31.5625 C 7.234814,34.299254 8.1822332,37.157699 8.3125,39.75 C 8.3126628,39.760416 8.3126628,39.770834 8.3125,39.78125 L 22.96875,38.5 C 21.380428,34.391879 20.545317,28.975871 22.9375,24.5 L 8.46875,24.5 z" xlink:href="#rect5631"/><path style="opacity:.20571427;fill:#000;fill-opacity:1;fill-rule:evenodd;stroke:none;stroke-width:1px;stroke-linecap:butt;stroke-linejoin:miter;stroke-opacity:1;filter:url(#filter5733)" id="path5691" d="M 8,29.578743 L 13.08233,29.75552 L 13.480078,31.125539 L 23.512155,31.87684 L 23.733125,32.9375 L 8.4861359,32.716529 L 8,29.578743 z"/><path style="color:#000;fill:url(#linearGradient5662);fill-opacity:1;fill-rule:evenodd;stroke:#204a87;stroke-width:.99999964;stroke-linecap:butt;stroke-linejoin:round;marker:none;marker-start:none;marker-mid:none;marker-end:none;stroke-miterlimit:4;stroke-dashoffset:0;stroke-opacity:1;visibility:visible;display:inline;overflow:visible" id="rect337" d="M 21.954318,32.404354 L 12.9578,32.404354 C 12.625048,32.404354 12.23774,32.22579 11.95455,31.990777 C 11.833232,31.890098 11.541954,29.869008 11.465266,29.807816 C 11.209798,29.603971 10.906539,29.453416 10.651251,29.451955 L 2.9302775,29.407761 C 2.5701125,29.407761 2.5065775,30.084616 2.5065775,30.084616 C 2.3664525,35.415429 4.4490065,43.428619 10.305443,43.405252 L 33.874708,43.4375 C 26.641119,42.985422 24.763106,36.864499 24.193432,33.710615 C 23.704451,32.722321 22.792058,32.404354 21.954318,32.404354 z"/><path style="opacity:.37714287;color:#000;fill:none;fill-opacity:1;fill-rule:evenodd;stroke:url(#linearGradient5757);stroke-width:1;stroke-linecap:butt;stroke-linejoin:miter;marker:none;marker-start:none;marker-mid:none;marker-end:none;stroke-miterlimit:4;stroke-dashoffset:0;stroke-opacity:1;visibility:visible;display:inline;overflow:visible" id="path5619" d="M 3.5005759,30.46875 C 3.4814387,32.931145 3.9381431,35.95955 5.0318259,38.3125 C 6.1731168,40.767874 7.7735621,42.353509 10.219326,42.34375 L 27.938076,42.375 C 25.087484,40.502151 23.933947,37.387481 23.156826,34.1875 C 22.853825,33.575098 22.440401,33.46875 21.875576,33.46875 L 12.875576,33.46875 C 12.179922,33.46875 11.638626,33.186401 11.188076,32.8125 C 10.886629,32.562339 10.91075,32.455597 10.875576,32.375 C 10.840402,32.294403 10.830171,32.243133 10.813076,32.1875 C 10.778885,32.076235 10.745718,31.959935 10.719326,31.84375 C 10.666542,31.61138 10.613761,31.360015 10.563076,31.09375 C 10.521319,30.874387 10.503297,30.671918 10.469326,30.5 L 3.5005759,30.46875 z"/><path style="opacity:1;color:#000;fill:#fff;fill-opacity:1;fill-rule:nonzero;stroke:none;stroke-width:1;stroke-linecap:square;stroke-linejoin:miter;marker:none;marker-start:none;marker-mid:none;marker-end:none;stroke-miterlimit:4;stroke-dasharray:none;stroke-dashoffset:0;stroke-opacity:1;visibility:visible;display:inline;overflow:visible;enable-background:accumulate" id="path5745" d="M 45.696776 10.258176 A 1.0606601 1.0606601 0 1 1 43.575456,10.258176 A 1.0606601 1.0606601 0 1 1 45.696776 10.258176 z" transform="matrix(0.3099463,0,0,0.3099463,31.493952,6.4917696)"/><path style="fill:#fff;fill-rule:evenodd;stroke:none;stroke-width:1px;stroke-linecap:butt;stroke-linejoin:miter;stroke-opacity:1;fill-opacity:1" id="path5752" d="M 20.815456,10.479146 L 15.865708,19.980894 L 15.467961,19.980894 L 20.815456,10.479146 z"/><path style="fill:#fff;fill-rule:evenodd;stroke:none;stroke-width:1px;stroke-linecap:butt;stroke-linejoin:miter;stroke-opacity:1;fill-opacity:1" id="path5754" d="M 45.254834,11.186253 L 35.355339,29.394253 L 35.090174,28.952311 L 45.254834,11.186253 z"/><path id="path5793" d="M 45.696776 10.258176 A 1.0606601 1.0606601 0 1 1 43.575456,10.258176 A 1.0606601 1.0606601 0 1 1 45.696776 10.258176 z" transform="matrix(0.2526545,0,0,0.2526545,9.7196677,7.1512934)" style="opacity:1;color:#000;fill:#fff;fill-opacity:1;fill-rule:nonzero;stroke:none;stroke-width:1;stroke-linecap:square;stroke-linejoin:miter;marker:none;marker-start:none;marker-mid:none;marker-end:none;stroke-miterlimit:4;stroke-dasharray:none;stroke-dashoffset:0;stroke-opacity:1;visibility:visible;display:inline;overflow:visible;enable-background:accumulate"/><path style="opacity:.53142856;fill:#fff;fill-opacity:1;fill-rule:evenodd;stroke:none;stroke-width:1px;stroke-linecap:butt;stroke-linejoin:miter;stroke-opacity:1" id="path5795" d="M 39.15625,38.9375 C 38.90625,40.75 36.4375,42.53125 34.09375,42.96875 C 35.611041,42.357395 37.867109,41.675507 39.15625,38.9375 z"/><path style="opacity:.53142856;color:#000;fill:url(#linearGradient5823);fill-opacity:1;fill-rule:nonzero;stroke:none;stroke-width:1;stroke-linecap:square;stroke-linejoin:miter;marker:none;marker-start:none;marker-mid:none;marker-end:none;stroke-miterlimit:4;stroke-dasharray:none;stroke-dashoffset:0;stroke-opacity:1;visibility:visible;display:inline;overflow:visible;enable-background:accumulate" id="path5797" d="M 38.1875,8.018529 C 37.664054,8.1545939 37.249999,8.751618 37.25,9.456029 C 37.25,10.246982 37.756053,10.902462 38.375,10.924779 C 38.386025,10.925177 38.39515,10.924779 38.40625,10.924779 L 40.65625,10.924779 C 40.66735,10.924779 40.676476,10.925177 40.6875,10.924779 C 41.306447,10.902462 41.812501,10.246982 41.8125,9.456029 C 41.8125,8.6653637 41.306133,8.0412898 40.6875,8.018529 L 40.4375,8.018529 L 38.625,8.018529 L 38.40625,8.018529 C 38.394924,8.018529 38.386248,8.0181152 38.375,8.018529 C 38.307513,8.021012 38.251595,8.001868 38.1875,8.018529 z"/><path style="opacity:.48571429;color:#000;fill:url(#linearGradient5831);fill-opacity:1;fill-rule:nonzero;stroke:none;stroke-width:1;stroke-linecap:square;stroke-linejoin:miter;marker:none;marker-start:none;marker-mid:none;marker-end:none;stroke-miterlimit:4;stroke-dasharray:none;stroke-dashoffset:0;stroke-opacity:1;visibility:visible;display:inline;overflow:visible;enable-background:accumulate" id="path5829" d="M 41.71875 9.4375 A 0.703125 1.15625 0 1 1 40.3125,9.4375 A 0.703125 1.15625 0 1 1 41.71875 9.4375 z" transform="matrix(1.2222222,0,0,1,-9.2654717,2.2097087e-2)"/><path style="fill:#babdb6;fill-opacity:1;fill-rule:evenodd;stroke:none;stroke-width:1px;stroke-linecap:butt;stroke-linejoin:miter;stroke-opacity:1" id="path6880" d="M 43.875,9 L 41.359375,9 C 40.695129,9 40.763778,10 41.359375,10 L 43.608986,10 L 43.875,9 z"/><path style="opacity:.53142856;color:#000;fill:url(#linearGradient5815);fill-opacity:1;fill-rule:nonzero;stroke:none;stroke-width:1;stroke-linecap:square;stroke-linejoin:miter;marker:none;marker-start:none;marker-mid:none;marker-end:none;stroke-miterlimit:4;stroke-dasharray:none;stroke-dashoffset:0;stroke-opacity:1;visibility:visible;display:inline;overflow:visible;enable-background:accumulate" id="path5804" d="M 24.3125,8.03125 C 23.65383,8.03125 23.062501,8.6637089 23.0625,9.46875 C 23.0625,10.273791 23.638205,10.984375 24.296875,10.984375 C 24.296875,10.984375 25.857345,11.018306 25.857345,11.018306 C 25.438426,10.828589 24.920843,10.313286 24.920843,9.4779029 C 24.920843,8.6581337 25.488217,8.1541035 25.818512,8.0064721 C 25.509452,7.9619003 24.599463,8.03125 24.3125,8.03125 z"/><rect style="opacity:1;color:#000;fill:url(#linearGradient5827);fill-opacity:1;fill-rule:nonzero;stroke:none;stroke-width:1;stroke-linecap:square;stroke-linejoin:miter;marker:none;marker-start:none;marker-mid:none;marker-end:none;stroke-miterlimit:4;stroke-dasharray:none;stroke-dashoffset:0;stroke-opacity:1;visibility:visible;display:inline;overflow:visible;enable-background:accumulate" id="rect5825" width="2.781" height=".188" x="41.234" y="9.164" rx=".094" ry=".094"/><path style="opacity:1;color:#000;fill:#fff;fill-opacity:1;fill-rule:nonzero;stroke:none;stroke-width:1;stroke-linecap:square;stroke-linejoin:miter;marker:none;marker-start:none;marker-mid:none;marker-end:none;stroke-miterlimit:4;stroke-dasharray:none;stroke-dashoffset:0;stroke-opacity:1;visibility:visible;display:inline;overflow:visible;enable-background:accumulate" id="path5747" d="M 40.204191,8.5833426 C 40.022251,8.5833426 39.87459,8.7310043 39.874589,8.9129448 C 39.874589,8.9584299 39.899103,8.997117 39.915789,9.0365457 C 39.775814,9.312388 39.826303,9.8288864 40.389592,10.313755 C 40.039261,9.8709503 40.010598,9.5022284 40.12179,9.2219469 C 40.150021,9.2298271 40.173458,9.2425471 40.204191,9.2425471 C 40.386131,9.2425471 40.533794,9.0948851 40.533793,8.9129448 C 40.533793,8.7310044 40.386132,8.5833425 40.204191,8.5833426 z"/></g></svg>