<svg xmlns="http://www.w3.org/2000/svg" xmlns:svg="http://www.w3.org/2000/svg" xmlns:xlink="http://www.w3.org/1999/xlink" id="svg2" width="48" height="48" version="1.0"><title id="title2578">gparted</title><defs id="defs4"><linearGradient id="linearGradient4122"><stop id="stop4124" offset="0" style="stop-color:white;stop-opacity:1"/><stop style="stop-color:#babdb6;stop-opacity:1" id="stop4130" offset=".25"/><stop id="stop4132" offset=".375" style="stop-color:#eeeeec;stop-opacity:1"/><stop style="stop-color:#babdb6;stop-opacity:1" id="stop4126" offset=".5"/><stop id="stop4128" offset="1" style="stop-color:#eeeeec;stop-opacity:1"/></linearGradient><linearGradient id="linearGradient4108"><stop id="stop4110" offset="0" style="stop-color:#fff;stop-opacity:0"/><stop id="stop4112" offset="1" style="stop-color:#fff;stop-opacity:1"/></linearGradient><linearGradient id="linearGradient4092"><stop style="stop-color:#000;stop-opacity:1" id="stop4094" offset="0"/><stop style="stop-color:#000;stop-opacity:0" id="stop4096" offset="1"/></linearGradient><linearGradient id="linearGradient4078"><stop style="stop-color:#d3d7cf;stop-opacity:1" id="stop4080" offset="0"/><stop id="stop4082" offset=".5" style="stop-color:#babdb6;stop-opacity:1"/><stop style="stop-color:#eeeeec;stop-opacity:0" id="stop4084" offset="1"/></linearGradient><linearGradient id="linearGradient4070"><stop style="stop-color:white;stop-opacity:1" id="stop4072" offset="0"/><stop id="stop4074" offset=".5" style="stop-color:white;stop-opacity:1"/><stop style="stop-color:#888a85;stop-opacity:1" id="stop4076" offset="1"/></linearGradient><linearGradient id="linearGradient4062"><stop style="stop-color:#fff;stop-opacity:1" id="stop4064" offset="0"/><stop style="stop-color:#fff;stop-opacity:0" id="stop4066" offset="1"/></linearGradient><linearGradient id="linearGradient4054"><stop style="stop-color:#ef2929;stop-opacity:1" id="stop4056" offset="0"/><stop style="stop-color:#c00;stop-opacity:1" id="stop4058" offset="1"/></linearGradient><linearGradient id="linearGradient4046"><stop style="stop-color:#fcaf3e;stop-opacity:1" id="stop4048" offset="0"/><stop style="stop-color:#f57900;stop-opacity:1" id="stop4050" offset="1"/></linearGradient><linearGradient id="linearGradient4038"><stop style="stop-color:#8ae234;stop-opacity:1" id="stop4040" offset="0"/><stop style="stop-color:#73d216;stop-opacity:1" id="stop4042" offset="1"/></linearGradient><linearGradient id="linearGradient4018"><stop style="stop-color:#fff;stop-opacity:1" id="stop4020" offset="0"/><stop style="stop-color:#fff;stop-opacity:0" id="stop4022" offset="1"/></linearGradient><linearGradient id="linearGradient3909"><stop style="stop-color:#fff;stop-opacity:1" id="stop3911" offset="0"/><stop style="stop-color:#fff;stop-opacity:0" id="stop3913" offset="1"/></linearGradient><linearGradient id="linearGradient3804"><stop style="stop-color:#2f302e;stop-opacity:1" id="stop3806" offset="0"/><stop style="stop-color:#555753;stop-opacity:1" id="stop3808" offset="1"/></linearGradient><linearGradient id="linearGradient2886"><stop id="stop2888" offset="0" style="stop-color:black;stop-opacity:1"/><stop id="stop2890" offset="1" style="stop-color:black;stop-opacity:0"/></linearGradient><linearGradient id="linearGradient2900"><stop id="stop2902" offset="0" style="stop-color:black;stop-opacity:0"/><stop style="stop-color:black;stop-opacity:1" id="stop2908" offset=".5"/><stop id="stop2904" offset="1" style="stop-color:black;stop-opacity:0"/></linearGradient><linearGradient id="linearGradient2909"><stop id="stop2911" offset="0" style="stop-color:white;stop-opacity:0"/><stop style="stop-color:white;stop-opacity:1" id="stop2917" offset=".5"/><stop id="stop2913" offset="1" style="stop-color:white;stop-opacity:0"/></linearGradient><linearGradient id="linearGradient3468"><stop id="stop3470" offset="0" style="stop-color:#fdfdfc;stop-opacity:1"/><stop id="stop3472" offset="1" style="stop-color:white;stop-opacity:.37121212"/></linearGradient><linearGradient id="linearGradient2899"><stop style="stop-color:#555753;stop-opacity:1" id="stop2901" offset="0"/><stop style="stop-color:#2e3436;stop-opacity:1" id="stop2903" offset="1"/></linearGradient><linearGradient id="linearGradient5690"><stop id="stop5692" offset="0" style="stop-color:white;stop-opacity:1"/><stop id="stop5694" offset="1" style="stop-color:#555753;stop-opacity:1"/></linearGradient><linearGradient id="linearGradient5740"><stop id="stop5742" offset="0" style="stop-color:#d0d0cb;stop-opacity:1"/><stop id="stop5744" offset="1" style="stop-color:#babdb6;stop-opacity:1"/></linearGradient><linearGradient id="linearGradient8613"><stop id="stop8615" offset="0" style="stop-color:#babdb6;stop-opacity:1"/><stop id="stop8617" offset="1" style="stop-color:#2e3436;stop-opacity:1"/></linearGradient><linearGradient id="linearGradient8710"><stop id="stop8712" offset="0" style="stop-color:black;stop-opacity:1"/><stop id="stop8714" offset="1" style="stop-color:white;stop-opacity:1"/></linearGradient><linearGradient id="linearGradient9613"><stop id="stop9615" offset="0" style="stop-color:white;stop-opacity:1"/><stop style="stop-color:white;stop-opacity:1" id="stop9619" offset=".5"/><stop id="stop9617" offset="1" style="stop-color:#cccfca;stop-opacity:1"/></linearGradient><linearGradient id="linearGradient9633"><stop id="stop9635" offset="0" style="stop-color:#eeeeec;stop-opacity:1"/><stop id="stop9639" offset="1" style="stop-color:#888a85;stop-opacity:1"/></linearGradient><linearGradient id="linearGradient9641"><stop id="stop9643" offset="0" style="stop-color:#babdb6;stop-opacity:1"/><stop id="stop9645" offset="1" style="stop-color:#555753;stop-opacity:1"/></linearGradient><linearGradient id="linearGradient2967"><stop id="stop2969" offset="0" style="stop-color:white;stop-opacity:1"/><stop id="stop2971" offset="1" style="stop-color:white;stop-opacity:0"/></linearGradient><linearGradient id="linearGradient2986"><stop id="stop2988" offset="0" style="stop-color:black;stop-opacity:1"/><stop id="stop2990" offset="1" style="stop-color:black;stop-opacity:0"/></linearGradient><linearGradient id="linearGradient2907" x1="21.938" x2="21.938" y1="39" y2="37.996" gradientUnits="userSpaceOnUse" xlink:href="#linearGradient2986"/><linearGradient id="linearGradient2915" x1="40.617" x2="40.711" y1="30.555" y2="30.359" gradientTransform="matrix(0.602867,-0.797841,0.797841,0.602867,-41.12611,44.62773)" gradientUnits="userSpaceOnUse" xlink:href="#linearGradient8710"/><linearGradient id="linearGradient2917" x1="40.617" x2="40.711" y1="30.555" y2="30.359" gradientUnits="userSpaceOnUse" xlink:href="#linearGradient8710"/><radialGradient id="radialGradient2927" cx="7.518" cy="30.574" r=".531" fx="7.518" fy="30.574" gradientTransform="matrix(1.662477,0,0,1.61358,-4.989175,-18.65647)" gradientUnits="userSpaceOnUse" xlink:href="#linearGradient8613"/><radialGradient id="radialGradient2929" cx="7.534" cy="30.308" r=".531" fx="7.534" fy="30.308" gradientTransform="matrix(1.569487,0,0,1.523325,-4.288627,-15.92107)" gradientUnits="userSpaceOnUse" xlink:href="#linearGradient9633"/><radialGradient id="radialGradient2931" cx="7.518" cy="30.574" r=".531" fx="7.518" fy="30.574" gradientTransform="matrix(1.662477,0,0,1.61358,-4.989175,-18.65647)" gradientUnits="userSpaceOnUse" xlink:href="#linearGradient8613"/><linearGradient id="linearGradient2937" x1="24.749" x2="24.999" y1="35.355" y2="14.998" gradientTransform="matrix(1,0,0,0.995556,0,-3.931113)" gradientUnits="userSpaceOnUse" xlink:href="#linearGradient3468"/><radialGradient id="radialGradient2941" cx="7.519" cy="30.304" r=".531" fx="7.519" fy="30.304" gradientTransform="matrix(1.389748,0,0,1.348872,-2.91982,-10.63815)" gradientUnits="userSpaceOnUse" xlink:href="#linearGradient9613"/><radialGradient id="radialGradient2945" cx="25.252" cy="16.48" r="21.98" fx="25.252" fy="16.48" gradientTransform="matrix(1.032991,-0.596398,0.575121,0.99614,-12.23456,11.55448)" gradientUnits="userSpaceOnUse" xlink:href="#linearGradient5740"/><linearGradient id="linearGradient2947" x1="53.813" x2="-2.814" y1="43.573" y2="35.5" gradientTransform="translate(0,50)" gradientUnits="userSpaceOnUse" xlink:href="#linearGradient2899"/><linearGradient id="linearGradient2949" x1="12.5" x2="12.5" y1="43.188" y2="34.046" gradientUnits="userSpaceOnUse" xlink:href="#linearGradient2967"/><linearGradient id="linearGradient2951" x1="15.335" x2="20.329" y1="33.062" y2="36.377" gradientTransform="matrix(1,0,0,1.42294,10.5,-14.95703)" gradientUnits="userSpaceOnUse" xlink:href="#linearGradient2909"/><linearGradient id="linearGradient2953" x1="15.335" x2="20.329" y1="33.062" y2="36.377" gradientTransform="matrix(1,0,0,1.42294,-0.875,-15.04578)" gradientUnits="userSpaceOnUse" xlink:href="#linearGradient2909"/><linearGradient id="linearGradient2955" x1="15.335" x2="20.329" y1="33.062" y2="36.377" gradientTransform="matrix(0.459833,0,-0.391165,1.370105,40.62503,-13.29892)" gradientUnits="userSpaceOnUse" xlink:href="#linearGradient2909"/><radialGradient id="radialGradient2957" cx="0" cy="17" r="2" fx="0" fy="17" gradientTransform="matrix(4.095822,0,0,3.101282,-9.53921,-94.5433)" gradientUnits="userSpaceOnUse" xlink:href="#linearGradient2886"/><radialGradient id="radialGradient2959" cx="0" cy="17" r="2" fx="0" fy="17" gradientTransform="matrix(4.095822,0,0,3.101282,38.20996,-10.90025)" gradientUnits="userSpaceOnUse" xlink:href="#linearGradient2886"/><linearGradient id="linearGradient2961" x1="9.899" x2="9.899" y1="20" y2="13.979" gradientTransform="matrix(2.047911,0,0,2.067521,1.347566,6.673675)" gradientUnits="userSpaceOnUse" xlink:href="#linearGradient2900"/><linearGradient id="linearGradient3794" x1="35.723" x2="11.953" y1="33.222" y2="14.983" gradientTransform="translate(0,3.001212)" gradientUnits="userSpaceOnUse" xlink:href="#linearGradient5690"/><linearGradient id="linearGradient3802" x1="50.506" x2="2.4" y1="37.469" y2="8.448" gradientTransform="translate(0,3.001212)" gradientUnits="userSpaceOnUse" xlink:href="#linearGradient9641"/><linearGradient id="linearGradient3810" x1="8.094" x2="20.502" y1="13.796" y2="29.456" gradientTransform="matrix(1.0029382,0,0,1.0690426,-0.11753,-1.915373)" gradientUnits="userSpaceOnUse" xlink:href="#linearGradient3804"/><linearGradient id="linearGradient5740-6"><stop id="stop5742-3" offset="0" style="stop-color:#d0d0cb;stop-opacity:1"/><stop id="stop5744-8" offset="1" style="stop-color:#babdb6;stop-opacity:1"/></linearGradient><radialGradient id="radialGradient3884" cx="25.252" cy="16.48" r="21.98" fx="25.252" fy="16.48" gradientTransform="matrix(0.29978113,-0.25514914,0.16690409,0.42616552,-2.0855839,27.055878)" gradientUnits="userSpaceOnUse" xlink:href="#linearGradient5740-6"/><radialGradient id="radialGradient3915" cx="7.625" cy="30.578" r=".531" fx="7.625" fy="30.578" gradientTransform="matrix(1.3511662,-3.7918611e-6,1.1741249e-6,1.5765217,-2.6776781,-17.628922)" gradientUnits="userSpaceOnUse" xlink:href="#linearGradient3909"/><radialGradient id="radialGradient4006" cx="7.519" cy="30.304" r=".531" fx="7.519" fy="30.304" gradientTransform="matrix(1.389748,0,0,1.348872,-2.91982,-10.63815)" gradientUnits="userSpaceOnUse" xlink:href="#linearGradient4070"/><radialGradient id="radialGradient4014" cx="7.625" cy="30.578" r=".531" fx="7.625" fy="30.578" gradientTransform="matrix(0.9999996,-3.5854879e-7,9.2353616e-8,0.97058851,4.6991103e-7,0.89935113)" gradientUnits="userSpaceOnUse" xlink:href="#linearGradient4078"/><radialGradient id="radialGradient4024" cx="21.885" cy="21.092" r="10.683" fx="21.885" fy="21.092" gradientTransform="matrix(0.68596186,-0.9212505,1.444828,0.71285424,-25.655926,33.736687)" gradientUnits="userSpaceOnUse" xlink:href="#linearGradient4108"/><radialGradient id="radialGradient4044" cx="23.571" cy="22.566" r="11.155" fx="23.571" fy="22.566" gradientTransform="matrix(1,0,0,0.61209071,0,8.753428)" gradientUnits="userSpaceOnUse" xlink:href="#linearGradient4038"/><radialGradient id="radialGradient4052" cx="25.526" cy="26.024" r="6.535" fx="25.526" fy="26.024" gradientTransform="matrix(0.52341584,-0.91271001,1.0252793,0.67462715,-12.879236,29.477642)" gradientUnits="userSpaceOnUse" xlink:href="#linearGradient4046"/><radialGradient id="radialGradient4060" cx="21.366" cy="28.457" r="4.621" fx="21.366" fy="28.457" gradientTransform="matrix(1.1542747,-1.6047814,1.4632662,1.2076031,-43.596086,25.552294)" gradientUnits="userSpaceOnUse" xlink:href="#linearGradient4054"/><radialGradient id="radialGradient4068" cx="22.519" cy="27.786" r="10.337" fx="22.519" fy="27.786" gradientTransform="matrix(1,0,0,0.45222929,0,15.220362)" gradientUnits="userSpaceOnUse" xlink:href="#linearGradient4062"/><radialGradient id="radialGradient4088" cx="24.691" cy="23.189" r="10.683" fx="24.691" fy="23.189" gradientTransform="matrix(0.68596186,-0.9212505,1.444828,0.71285424,-25.655926,33.736687)" gradientUnits="userSpaceOnUse" xlink:href="#linearGradient4018"/><radialGradient id="radialGradient4098" cx="24" cy="30.266" r="14" fx="24" fy="30.266" gradientTransform="matrix(1,0,0,0.3046875,0,21.044067)" gradientUnits="userSpaceOnUse" xlink:href="#linearGradient4092"/><linearGradient id="linearGradient4120" x1="19.679" x2="23.185" y1="20.903" y2="32.097" gradientUnits="userSpaceOnUse" xlink:href="#linearGradient4122"/><linearGradient id="linearGradient4138" x1="19.679" x2="23.185" y1="20.903" y2="32.097" gradientUnits="userSpaceOnUse" xlink:href="#linearGradient4122"/><linearGradient id="linearGradient4141" x1="19.679" x2="23.185" y1="20.903" y2="32.097" gradientUnits="userSpaceOnUse" xlink:href="#linearGradient4122"/></defs><metadata id="metadata7"/><g id="layer1" transform="translate(-318,-42)" style="display:inline"><g id="g3519" transform="matrix(1.030831,0,0,1.151147,317.61089,32.717216)" style="opacity:.7;display:inline"><path style="fill:url(#radialGradient2957);fill-opacity:1;stroke:none" id="rect2884" d="m -9.5392103,-48.024086 8.1916437,0 0,12.405126 -8.1916437,0 0,-12.405126 z" transform="scale(-1,-1)"/><path style="fill:url(#radialGradient2959);fill-opacity:1;stroke:none" id="rect2894" d="m 38.209965,35.618961 8.191643,0 0,12.405126 -8.191643,0 0,-12.405126 z"/><path style="fill:url(#linearGradient2961);fill-opacity:1;stroke:none" id="rect2898" d="m 9.5392103,35.618961 28.6707537,0 0,12.405126 -28.6707537,0 0,-12.405126 z"/></g><g style="display:inline" id="g5672" transform="translate(318,-3.996258)"><path id="rect2010" d="m 4.5182287,80.500013 38.9635393,0 c 0.564099,0 1.018229,0.45413 1.018229,1.018229 l 0,2.963543 c 0,1.315584 -0.450231,3.018228 -2.455729,3.018228 L 40.5,87.5 l 0,1 -33,0 0,-1 -1.8567713,1.3e-5 c -1.2712053,0 -2.1432282,-0.884627 -2.1432282,-2.255665 l 0,-3.726106 c 0,-0.564099 0.4541297,-1.018229 1.0182282,-1.018229 z" style="color:#000;fill:url(#linearGradient2947);fill-opacity:1;fill-rule:nonzero;stroke:#2e3436;stroke-width:1;stroke-linecap:square;stroke-linejoin:round;stroke-miterlimit:4;stroke-opacity:1;stroke-dasharray:none;stroke-dashoffset:1.4;marker:none;marker-start:none;marker-mid:none;marker-end:none;visibility:visible;display:inline;overflow:visible"/><path style="opacity:.1;color:#000;fill:none;stroke:url(#linearGradient2949);stroke-width:.99999988;stroke-linecap:square;stroke-linejoin:miter;stroke-miterlimit:4;stroke-opacity:1;stroke-dashoffset:1.4;marker:none;marker-start:none;marker-mid:none;marker-end:none;visibility:visible;display:inline;overflow:visible" id="path2076" d="m 4.59375,31.59375 0,3.729743 c 0,0.599619 0.3756505,1.104854 0.8863276,1.104854 l 36.9463294,0 c 0.512469,0 0.979843,-0.507235 0.979843,-1.016466 l 0,-3.818131 -38.8125,0 z" transform="translate(0,50)"/><g style="opacity:.5" id="g4706" transform="translate(0,50)"><path style="opacity:.10952382;fill:url(#linearGradient2951);fill-opacity:1;fill-rule:evenodd;stroke:none" id="path2907" d="m 26.144738,32.088747 c 0,0 -1.502602,5.533939 -3.226175,5.911253 0,0 6.231378,-0.125771 6.231378,-0.125771 1.387072,-0.317461 3.358758,-5.785482 3.358758,-5.785482 l -6.363961,0 z"/><path id="path2892" d="m 14.769738,32 c 0,0 -1.502602,5.533939 -3.226175,5.911253 0,0 6.231378,-0.125771 6.231378,-0.125771 C 19.162013,37.468021 21.133699,32 21.133699,32 l -6.363961,0 z" style="opacity:.10952382;fill:url(#linearGradient2953);fill-opacity:1;fill-rule:evenodd;stroke:none"/><path id="path2896" d="m 34.886139,32 c 0,0 -2.212224,5.328458 -3.108503,5.691761 0,0 2.899969,-0.121101 2.899969,-0.121101 C 35.402697,37.264987 37.8125,32 37.8125,32 l -2.926361,0 z" style="opacity:.10952382;fill:url(#linearGradient2955);fill-opacity:1;fill-rule:evenodd;stroke:none"/></g></g><path style="fill:url(#radialGradient2945);fill-opacity:1;stroke:#888a85;stroke-width:1.00000024;stroke-linecap:round;stroke-linejoin:miter;stroke-miterlimit:4;stroke-opacity:1;stroke-dashoffset:0;display:inline" id="rect1879" d="m 11.693127,10.498788 24.572566,0 c 1.68417,0 2.396517,0.117479 3.040019,2.385005 l 5.074491,17.881119 c 0.501024,1.765471 -1.355848,2.735101 -3.040018,2.735101 l -34.7215538,0 c -1.868408,0 -3.4893833,-1.181417 -3.0400182,-2.735101 L 8.8290448,12.611497 c 0.5683008,-1.964905 1.1799122,-2.112709 2.8640822,-2.112709 z" transform="translate(318,45.001212)"/><path style="opacity:1;color:#000;fill:url(#linearGradient3802);stroke:none;stroke-width:1.00000036000000003;stroke-linecap:round;stroke-linejoin:round;stroke-miterlimit:4;stroke-opacity:1;stroke-dasharray:none;stroke-dashoffset:0;marker:none;marker-start:none;marker-mid:none;marker-end:none;visibility:visible;display:inline;overflow:visible;fill-opacity:1" id="path1997" d="M 14.3125 15.53125 L 10.46875 18.09375 L 6.84375 30.6875 C 8.2906206 31.387249 10.632675 32.16518 10.4375 34.53125 L 12.5 34.53125 L 12.5 30.5 C 15.236722 32.934807 19.588342 34.5 24.5 34.5 C 32.278123 34.5 38.690048 30.55511 39.4375 25.5 L 39.65625 25.5 L 37.5 18.09375 L 32.34375 15.53125 L 14.3125 15.53125 z" transform="translate(318,42)"/><path style="opacity:1;color:#000;fill:url(#linearGradient3810);stroke:none;stroke-width:.91991049000000003;marker:none;marker-start:none;marker-mid:none;marker-end:none;visibility:visible;display:inline;overflow:visible;fill-opacity:1" id="path3008" d="M 14.25,20 10.375,22.75 8,31.53125 c 1.2464561,0.670958 2.489039,1.591357 2.34375,3.46875 0,0 14.15625,-0.5 14.15625,-0.5 6.703235,0 12.389849,-2.923325 14.3125,-6.96875 L 37.5,22.75 32.3125,20 14.25,20 z" transform="translate(318,42)"/><path style="opacity:1;color:#000;fill:url(#linearGradient4141);fill-opacity:1;fill-rule:nonzero;stroke:#555753;stroke-width:.96564066000000004;marker:none;marker-start:none;marker-mid:none;marker-end:none;visibility:visible;display:inline;overflow:visible;enable-background:accumulate" id="path4134" d="m 24,16 c -7.728,0 -14,3.584001 -14,8 l 0,8.8125 c 0.304858,0.464446 0.49599,1.009687 0.4375,1.71875 0,0 14.0625,-0.03125 14.0625,-0.03125 5.854688,0 10.995851,-2.23874 13.5,-5.5 l 0,-5 c 0,-4.415999 -6.272001,-8 -14,-8 z" transform="matrix(0.96652645,0,0,0.97471764,318.80337,42.87315)"/><path style="opacity:1;color:#000;fill:#555753;fill-opacity:1;fill-rule:nonzero;stroke:none;stroke-width:1.0000002400000001;marker:none;marker-start:none;marker-mid:none;marker-end:none;visibility:visible;display:inline;overflow:visible;enable-background:accumulate" id="path3982" d="M 10 25 L 10 32.8125 C 10.304858 33.276946 10.49599 33.822187 10.4375 34.53125 C 10.4375 34.53125 24.5 34.5 24.5 34.5 C 30.354688 34.5 35.495851 32.26126 38 29 L 38 25 C 38 29.415999 31.727999 33 24 33 C 16.272 33 10 29.415999 10 25 z" transform="translate(318,42)"/><path style="opacity:1;color:#000;fill:url(#radialGradient4098);fill-opacity:1;fill-rule:nonzero;stroke:none;stroke-width:1.0000002400000001;marker:none;marker-start:none;marker-mid:none;marker-end:none;visibility:visible;display:inline;overflow:visible;enable-background:accumulate" id="path3979" d="M 10 26 L 10 32.8125 C 10.304858 33.276946 10.49599 33.822187 10.4375 34.53125 C 10.4375 34.53125 24.5 34.5 24.5 34.5 C 30.354688 34.5 35.495851 32.26126 38 29 L 38 26 C 38 30.415999 31.727999 34 24 34 C 16.272 34 10 30.415999 10 26 z" transform="translate(318,42)"/><path style="color:#000;fill:#babdb6;fill-opacity:1;fill-rule:nonzero;stroke:none;stroke-width:1.0000002400000001;marker:none;marker-start:none;marker-mid:none;marker-end:none;visibility:visible;display:inline;overflow:visible;enable-background:accumulate" id="rect3869" d="m 10.330132,31.20256 3.570187,0 0,3.716507 -3.570187,0 0,-3.716507 z" transform="matrix(1.4004865,0,0,1.0762795,312.53279,39.417324)"/><path style="color:#000;fill:#555753;fill-opacity:1;fill-rule:nonzero;stroke:none;stroke-width:1;marker:none;marker-start:none;marker-mid:none;marker-end:none;visibility:visible;display:inline;overflow:visible;enable-background:accumulate" id="path3814" d="m 32.855967,27.786009 c 0,2.580543 -4.631177,4.674897 -10.337449,4.674897 -5.706271,0 -10.337448,-2.094354 -10.337448,-4.674897 0,-2.580543 4.631177,-4.674897 10.337448,-4.674897 5.706272,0 10.337449,2.094354 10.337449,4.674897 z" transform="matrix(0.33857511,0,0,0.42781677,320.87579,62.112679)"/><path style="color:#000;fill:#d3d7cf;fill-opacity:1;fill-rule:nonzero;stroke:none;stroke-width:1;marker:none;marker-start:none;marker-mid:none;marker-end:none;visibility:visible;display:inline;overflow:visible" id="path3903" d="m 8.15625,30.578125 c 0,0.284625 -0.238,0.515625 -0.53125,0.515625 -0.29325,0 -0.53125,-0.231 -0.53125,-0.515625 0,-0.284625 0.238,-0.515625 0.53125,-0.515625 0.29325,0 0.53125,0.231 0.53125,0.515625 z" transform="matrix(6.5882368,0,0,-3.8787869,278.2647,191.60603)"/><path style="color:#000;fill:url(#radialGradient3915);fill-opacity:1;fill-rule:nonzero;stroke:none;stroke-width:1;marker:none;marker-start:none;marker-mid:none;marker-end:none;visibility:visible;display:inline;overflow:visible" id="path3907" d="m 8.15625,30.578125 c 0,0.284625 -0.238,0.515625 -0.53125,0.515625 -0.29325,0 -0.53125,-0.231 -0.53125,-0.515625 0,-0.284625 0.238,-0.515625 0.53125,-0.515625 0.29325,0 0.53125,0.231 0.53125,0.515625 z" transform="matrix(4.7058792,0,0,-2.9090911,292.61767,161.45455)"/><path style="opacity:1;color:#000;fill:url(#radialGradient3884);fill-opacity:1;fill-rule:nonzero;stroke:none;stroke-width:2.53841114000000001;marker:none;marker-start:none;marker-mid:none;marker-end:none;visibility:visible;display:inline;overflow:visible;enable-background:accumulate" id="path3882" d="M 7.5,31 C 6.0322077,29.683128 5.8193873,30.305642 4.648834,34.173068 5.0028872,35.894701 6.478588,35.599283 8,36 c 1.6559996,0 3.175583,0.04044 2.736626,-1.765889 C 10.216043,32.678552 9.0629242,31.461221 7.5,31 z" transform="translate(318,42)"/><path style="fill:none;stroke:url(#linearGradient2937);stroke-width:1.00000036;stroke-linecap:round;stroke-linejoin:miter;stroke-miterlimit:4;stroke-opacity:1;stroke-dashoffset:0;display:inline" id="path3394" d="m 11.6875,11.500005 c -0.803124,0 -1.097168,0.07051 -1.21875,0.155556 -0.121582,0.08504 -0.357707,0.40212 -0.6875,1.306667 l -5.25,18.137786 c -0.1337204,0.366765 -0.054827,0.533865 0.3125,0.84 0.3673267,0.306136 1.066693,0.56 1.78125,0.560001 l 34.71875,0 c 0.639793,0 1.393345,-0.237954 1.78125,-0.52889 0.387905,-0.290935 0.488311,-0.382809 0.3125,-0.871111 L 38.375,13.242228 c -0.377206,-1.04766 -0.68208,-1.439297 -0.84375,-1.555556 -0.16167,-0.116259 -0.443711,-0.186667 -1.25,-0.186667 l -24.59375,0 z" transform="translate(318,45.001212)"/><g id="g5657" transform="translate(325,44.001212)" style="opacity:.3028571;display:inline"><path style="color:#000;fill:#fff;fill-opacity:1;fill-rule:nonzero;stroke:#eeeeec;stroke-width:1.00000024;stroke-linecap:square;stroke-linejoin:miter;stroke-miterlimit:4;stroke-dashoffset:1.4;stroke-opacity:1;marker:none;marker-start:none;marker-mid:none;marker-end:none;visibility:visible;display:inline;overflow:visible" id="rect5641" d="m 19.251297,35.500008 12.497402,0 c 0.416221,0 0.751301,0.333216 0.751301,0.747122 l 0,0.505747 C 32.5,37.166783 32.16492,37.5 31.748699,37.5 l -12.497402,0 c -0.416221,0 -0.751301,-0.333217 -0.751301,-0.747123 l 0,-0.505747 c 0,-0.413906 0.33508,-0.747122 0.751301,-0.747122 z"/><path style="color:#000;fill:#000;fill-opacity:1;fill-rule:nonzero;stroke:none;stroke-width:1;marker:none;marker-start:none;marker-mid:none;marker-end:none;visibility:visible;display:inline;overflow:visible" id="rect5645" d="m 19,36 1,0 0,1 -1,0 0,-1 z"/><path style="color:#000;fill:#000;fill-opacity:1;fill-rule:nonzero;stroke:none;stroke-width:1;marker:none;marker-start:none;marker-mid:none;marker-end:none;visibility:visible;display:inline;overflow:visible" id="rect5647" d="m 22,36 1,0 0,1 -1,0 0,-1 z"/><path style="color:#000;fill:#000;fill-opacity:1;fill-rule:nonzero;stroke:none;stroke-width:1;marker:none;marker-start:none;marker-mid:none;marker-end:none;visibility:visible;display:inline;overflow:visible" id="rect5649" d="m 24,36 1,0 0,1 -1,0 0,-1 z"/><path style="color:#000;fill:#000;fill-opacity:1;fill-rule:nonzero;stroke:none;stroke-width:1;marker:none;marker-start:none;marker-mid:none;marker-end:none;visibility:visible;display:inline;overflow:visible" id="rect5651" d="m 26,36 1,0 0,1 -1,0 0,-1 z"/><path style="color:#000;fill:#000;fill-opacity:1;fill-rule:nonzero;stroke:none;stroke-width:1;marker:none;marker-start:none;marker-mid:none;marker-end:none;visibility:visible;display:inline;overflow:visible" id="rect5653" d="m 29,36 2,0 0,1 -2,0 0,-1 z"/></g><path style="color:#000;fill:url(#radialGradient2929);fill-opacity:1;fill-rule:nonzero;stroke:none;stroke-width:.46259445;marker:none;marker-start:none;marker-mid:none;marker-end:none;visibility:visible;display:inline;overflow:visible" id="path8660" d="m 8.15625,30.578125 c 0,0.284625 -0.238,0.515625 -0.53125,0.515625 -0.29325,0 -0.53125,-0.231 -0.53125,-0.515625 0,-0.284625 0.238,-0.515625 0.53125,-0.515625 0.29325,0 0.53125,0.231 0.53125,0.515625 z" transform="matrix(-2.628602,0,0,1.777765,378.79309,21.223822)"/><path style="color:#000;fill:url(#radialGradient2927);fill-opacity:1;fill-rule:nonzero;stroke:none;stroke-width:1;marker:none;marker-start:none;marker-mid:none;marker-end:none;visibility:visible;display:inline;overflow:visible" id="path8662" d="m 8.15625,30.578125 c 0,0.284625 -0.238,0.515625 -0.53125,0.515625 -0.29325,0 -0.53125,-0.231 -0.53125,-0.515625 0,-0.284625 0.238,-0.515625 0.53125,-0.515625 0.29325,0 0.53125,0.231 0.53125,0.515625 z" transform="matrix(1.411772,0,0,0.969697,347.98523,45.849697)"/><path style="opacity:.4;fill:none;stroke:url(#linearGradient2917);stroke-width:.29999995;stroke-linecap:round;stroke-linejoin:miter;stroke-miterlimit:4;stroke-opacity:1;stroke-dasharray:none;display:inline" id="path8700" d="m 40.328109,30.261401 0.874999,0.430332" transform="translate(318,45.001212)"/><path style="opacity:.12000002;color:#000;fill:url(#linearGradient2907);fill-opacity:1;fill-rule:nonzero;stroke:none;stroke-width:.68183619;marker:none;marker-start:none;marker-mid:none;marker-end:none;visibility:visible;display:inline;overflow:visible" id="rect2984" d="m 8,38 32.03125,0 0,1 L 8,39 8,38 z" transform="translate(318,45.001212)"/><path style="color:#000;fill:url(#radialGradient2941);fill-opacity:1;fill-rule:nonzero;stroke:none;stroke-width:1;marker:none;marker-start:none;marker-mid:none;marker-end:none;visibility:visible;display:inline;overflow:visible" id="path8621" d="m 8.15625,30.578125 c 0,0.284625 -0.238,0.515625 -0.53125,0.515625 -0.29325,0 -0.53125,-0.231 -0.53125,-0.515625 0,-0.284625 0.238,-0.515625 0.53125,-0.515625 0.29325,0 0.53125,0.231 0.53125,0.515625 z" transform="matrix(-2.628602,0,0,1.777765,345.79309,21.223822)"/><path style="color:#000;fill:url(#radialGradient2931);fill-opacity:1;fill-rule:nonzero;stroke:none;stroke-width:1;marker:none;marker-start:none;marker-mid:none;marker-end:none;visibility:visible;display:inline;overflow:visible" id="path8611" d="m 8.15625,30.578125 c 0,0.284625 -0.238,0.515625 -0.53125,0.515625 -0.29325,0 -0.53125,-0.231 -0.53125,-0.515625 0,-0.284625 0.238,-0.515625 0.53125,-0.515625 0.29325,0 0.53125,0.231 0.53125,0.515625 z" transform="matrix(1.411772,0,0,0.969697,314.98523,45.849697)"/><path style="opacity:.4;fill:none;stroke:url(#linearGradient2915);stroke-width:.29999995;stroke-linecap:round;stroke-linejoin:miter;stroke-miterlimit:4;stroke-opacity:1;stroke-dasharray:none;display:inline" id="path9603" d="M 7.330186,30.695906 8.201031,30.257228" transform="translate(318,45.001212)"/><path style="color:#000;fill:url(#radialGradient4068);fill-opacity:1;fill-rule:nonzero;stroke:none;stroke-width:.68167292999999995;marker:none;marker-start:none;marker-mid:none;marker-end:none;visibility:visible;display:inline;overflow:visible;enable-background:accumulate" id="path3812" d="m 32.855967,27.786009 c 0,2.580543 -4.631177,4.674897 -10.337449,4.674897 -5.706271,0 -10.337448,-2.094354 -10.337448,-4.674897 0,-2.580543 4.631177,-4.674897 10.337448,-4.674897 5.706272,0 10.337449,2.094354 10.337449,4.674897 z" transform="matrix(-1.3542993,0,0,1.7112675,372.49682,18.450707)"/><path style="color:#000;fill:url(#radialGradient4060);fill-opacity:1;fill-rule:nonzero;stroke:none;stroke-width:1.0000002400000001;marker:none;marker-start:none;marker-mid:none;marker-end:none;visibility:visible;display:inline;overflow:visible;enable-background:accumulate;opacity:.88259109" id="path3957" d="m 24.131688,31.736626 c -3.607309,0 -6.691105,-0.781854 -9.241857,-2.343146 l 9.241856,-5.656854 z" transform="matrix(-1.0711586,0,0,1,367.84887,42.263374)"/><path style="color:#000;fill:url(#radialGradient4044);fill-opacity:1;fill-rule:nonzero;stroke:none;stroke-width:1.0000002400000001;marker:none;marker-start:none;marker-mid:none;marker-end:none;visibility:visible;display:inline;overflow:visible;enable-background:accumulate;opacity:.76518219" id="path3959" d="m 14.889831,29.39348 c -5.101505,-3.122584 -5.101505,-8.191125 0,-11.313709 5.101504,-3.122583 13.382207,-3.122583 18.483712,0 l -9.241856,5.656855 z" transform="matrix(-1.0711586,0,0,1,367.84887,42.263374)"/><path style="color:#000;fill:url(#radialGradient4052);fill-opacity:1;fill-rule:nonzero;stroke:none;stroke-width:1.0000002400000001;marker:none;marker-start:none;marker-mid:none;marker-end:none;visibility:visible;display:inline;overflow:visible;enable-background:accumulate;opacity:.90688259" id="path3961" d="m 33.373543,18.079771 c 2.550753,1.561292 3.828103,3.448855 3.828103,5.656855 l -13.069959,0 z" transform="matrix(-1.0711586,0,0,1,367.84887,42.263374)"/><path style="opacity:1;color:#000;fill:none;stroke:url(#linearGradient3794);stroke-width:1.00000036000000003;stroke-linecap:round;stroke-linejoin:round;stroke-miterlimit:4;stroke-opacity:1;stroke-dasharray:none;stroke-dashoffset:0;marker:none;marker-start:none;marker-mid:none;marker-end:none;visibility:visible;display:inline;overflow:visible" id="path3786" d="M 39.546875,25.5 37.5,18.09375 l -5.15625,-2.5625 -18.03125,0 -3.84375,2.5625 -3.625,12.59375 c 1.4468706,0.699749 3.788925,1.47768 3.59375,3.84375 0,0 14.0625,-0.03125 14.0625,-0.03125 7.778123,0 14.299423,-3.94489 15.046875,-9 z" transform="translate(318,42)"/><path style="color:#000;fill:url(#radialGradient4006);fill-opacity:1;fill-rule:nonzero;stroke:none;stroke-width:1;marker:none;marker-start:none;marker-mid:none;marker-end:none;visibility:visible;display:inline;overflow:visible" id="path4004" d="m 8.15625,30.578125 c 0,0.284625 -0.238,0.515625 -0.53125,0.515625 -0.29325,0 -0.53125,-0.231 -0.53125,-0.515625 0,-0.284625 0.238,-0.515625 0.53125,-0.515625 0.29325,0 0.53125,0.231 0.53125,0.515625 z" transform="matrix(-7.529413,0,0,-3.8787893,399.41177,184.6061)"/><path id="path3992" d="m 8.15625,30.578125 c 0,0.284625 -0.238,0.515625 -0.53125,0.515625 -0.29325,0 -0.53125,-0.231 -0.53125,-0.515625 0,-0.284625 0.238,-0.515625 0.53125,-0.515625 0.29325,0 0.53125,0.231 0.53125,0.515625 z" transform="matrix(-5.6470566,0,0,2.9090912,385.05881,-22.454553)" style="color:#000;fill:url(#radialGradient4014);fill-opacity:1;fill-rule:nonzero;stroke:none;stroke-width:1;marker:none;marker-start:none;marker-mid:none;marker-end:none;visibility:visible;display:inline;overflow:visible"/><path id="path4016" d="m 32.855967,27.786009 c 0,2.580543 -4.631177,4.674897 -10.337449,4.674897 -5.706271,0 -10.337448,-2.094354 -10.337448,-4.674897 0,-2.580543 4.631177,-4.674897 10.337448,-4.674897 5.706272,0 10.337449,2.094354 10.337449,4.674897 z" transform="matrix(-1.2091958,0,0,1.3904051,369.2293,27.366192)" style="color:#000;fill:none;stroke:url(#radialGradient4024);stroke-width:.77122480000000004;stroke-miterlimit:4;stroke-opacity:1;stroke-dasharray:none;marker:none;marker-start:none;marker-mid:none;marker-end:none;visibility:visible;display:inline;overflow:visible;enable-background:accumulate;opacity:.66801619000000001"/><path style="color:#000;fill:none;stroke:#000;stroke-width:.69086813999999996;stroke-miterlimit:4;stroke-opacity:1;stroke-dasharray:none;marker:none;marker-start:none;marker-mid:none;marker-end:none;visibility:visible;display:inline;overflow:visible;enable-background:accumulate;opacity:.26315789000000001" id="path4026" d="m 32.855967,27.786009 c 0,2.580543 -4.631177,4.674897 -10.337449,4.674897 -5.706271,0 -10.337448,-2.094354 -10.337448,-4.674897 0,-2.580543 4.631177,-4.674897 10.337448,-4.674897 5.706272,0 10.337449,2.094354 10.337449,4.674897 z" transform="matrix(-1.3059315,0,0,1.6043135,371.40764,21.422531)"/><path style="opacity:1;color:#000;fill:none;stroke:url(#radialGradient4088);stroke-width:2.07260441999999978;stroke-miterlimit:4;stroke-opacity:1;stroke-dasharray:none;marker:none;marker-start:none;marker-mid:none;marker-end:none;visibility:visible;display:inline;overflow:visible;enable-background:accumulate" id="path4086" d="m 32.855967,27.786009 c 0,2.580543 -4.631177,4.674897 -10.337449,4.674897 -5.706271,0 -10.337448,-2.094354 -10.337448,-4.674897 0,-2.580543 4.631177,-4.674897 10.337448,-4.674897 5.706272,0 10.337449,2.094354 10.337449,4.674897 z" transform="matrix(-0.43531041,0,0,0.5347712,351.80254,51.140842)"/><path id="path4090" d="m 32.855967,27.786009 c 0,2.580543 -4.631177,4.674897 -10.337449,4.674897 -5.706271,0 -10.337448,-2.094354 -10.337448,-4.674897 0,-2.580543 4.631177,-4.674897 10.337448,-4.674897 5.706272,0 10.337449,2.094354 10.337449,4.674897 z" transform="matrix(-0.53204623,0,0,0.64172535,353.98089,47.669014)" style="opacity:.20242914;color:#000;fill:none;stroke:#000;stroke-width:1.71139669;stroke-miterlimit:4;stroke-opacity:1;stroke-dasharray:none;marker:none;marker-start:none;marker-mid:none;marker-end:none;visibility:visible;display:inline;overflow:visible;enable-background:accumulate"/></g></svg>