<svg xmlns="http://www.w3.org/2000/svg" xmlns:svg="http://www.w3.org/2000/svg" xmlns:xlink="http://www.w3.org/1999/xlink" id="svg4296" width="48" height="48" version="1.1"><defs id="defs4298"><linearGradient id="linearGradient4652"><stop id="stop4654" offset="0" style="stop-color:#fff;stop-opacity:1"/><stop id="stop4656" offset=".158" style="stop-color:#fff;stop-opacity:.23529412"/><stop id="stop4658" offset=".79" style="stop-color:#fff;stop-opacity:.15686275"/><stop id="stop4660" offset="1" style="stop-color:#fff;stop-opacity:.39215687"/></linearGradient><linearGradient id="linearGradient4424"><stop style="stop-color:#fff;stop-opacity:1" id="stop4426" offset="0"/><stop style="stop-color:#fff;stop-opacity:.23529412" id="stop4428" offset="0"/><stop style="stop-color:#fff;stop-opacity:.15686275" id="stop4430" offset="1"/><stop style="stop-color:#fff;stop-opacity:.39215687" id="stop4432" offset="1"/></linearGradient><linearGradient id="linearGradient19619" x1="302.857" x2="302.857" y1="366.648" y2="609.505" gradientTransform="matrix(0.08449704,0,0,0.01235294,-6.5396456,38.470822)" gradientUnits="userSpaceOnUse" xlink:href="#linearGradient5048"/><linearGradient id="linearGradient5048"><stop id="stop5050" offset="0" style="stop-color:#000;stop-opacity:0"/><stop id="stop5056" offset=".5" style="stop-color:#000;stop-opacity:1"/><stop id="stop5052" offset="1" style="stop-color:#000;stop-opacity:0"/></linearGradient><radialGradient id="radialGradient19616" cx="605.714" cy="486.648" r="117.143" fx="605.714" fy="486.648" gradientTransform="matrix(-0.0289166,0,0,0.01235294,21.026894,38.470848)" gradientUnits="userSpaceOnUse" xlink:href="#linearGradient5060"/><linearGradient id="linearGradient5060"><stop id="stop5062" offset="0" style="stop-color:#000;stop-opacity:1"/><stop id="stop5064" offset="1" style="stop-color:#000;stop-opacity:0"/></linearGradient><radialGradient id="radialGradient19613" cx="605.714" cy="486.648" r="117.143" fx="605.714" fy="486.648" gradientTransform="matrix(0.02891661,0,0,0.01235294,26.973101,38.470848)" gradientUnits="userSpaceOnUse" xlink:href="#linearGradient5060"/><linearGradient id="linearGradient5127"><stop style="stop-color:#3c3b37;stop-opacity:1" id="stop5129" offset="0"/><stop style="stop-color:#585650;stop-opacity:1" id="stop5131" offset="1"/></linearGradient><linearGradient id="linearGradient4377"><stop id="stop4379" offset="0" style="stop-color:#fff;stop-opacity:1"/><stop id="stop4381" offset=".042" style="stop-color:#fff;stop-opacity:.23529412"/><stop id="stop4383" offset=".957" style="stop-color:#fff;stop-opacity:.15686275"/><stop id="stop4385" offset="1" style="stop-color:#fff;stop-opacity:.39215687"/></linearGradient><linearGradient id="linearGradient12481" x1="35.793" x2="35.793" y1="16.345" y2="57.823" gradientTransform="matrix(0.92613341,0,0,1.280122,0.967937,-12.622143)" gradientUnits="userSpaceOnUse" xlink:href="#radialGradient2444"/><radialGradient id="radialGradient2444" cx="63.969" cy="14.113" r="23.097" gradientTransform="matrix(1.5647,-9.5143e-8,6.1772e-8,1.0159,-59.14917,8.1461003)" gradientUnits="userSpaceOnUse"><stop id="stop3618" offset="0" style="stop-color:#adc980"/><stop id="stop3270" offset=".523" style="stop-color:#87a556"/><stop id="stop3620" offset="1" style="stop-color:#688933"/></radialGradient><linearGradient id="linearGradient4373" x1="116.626" x2="116.626" y1="7.367" y2="44.434" gradientTransform="matrix(0.96278331,0,0,0.89815222,-105.89538,3.2375275)" gradientUnits="userSpaceOnUse" xlink:href="#linearGradient4377"/><linearGradient id="linearGradient4373-8" x1="116.626" x2="116.626" y1="7.727" y2="10.816" gradientTransform="matrix(1.0075639,0,0,0.97121843,-111.17515,2.4954762)" gradientUnits="userSpaceOnUse" xlink:href="#linearGradient4424"/><linearGradient id="linearGradient5133" x1="28.87" x2="28.87" y1="15.052" y2="8.542" gradientTransform="matrix(0.76271187,0,0,0.76595747,0.355092,1.9893617)" gradientUnits="userSpaceOnUse" xlink:href="#linearGradient5127"/><linearGradient id="linearGradient4665" x1="-6.308" x2="-9.775" y1="44.229" y2="44.14" gradientTransform="matrix(0.50045,-0.49965,0.84917,0.84785,0.80738,-6.9351)" gradientUnits="userSpaceOnUse" xlink:href="#linearGradient5060"/><linearGradient id="linearGradient4668" x1="97.442" x2="90.221" y1="35.152" y2="35.079" gradientTransform="matrix(0.82274,-0.82219,0.71961,0.71912,-71.184,83.621)" gradientUnits="userSpaceOnUse"><stop id="stop4958" offset="0" style="stop-color:#f8b17e"/><stop id="stop4960" offset=".262" style="stop-color:#e35d4f"/><stop id="stop4962" offset=".663" style="stop-color:#c6262e"/><stop id="stop4964" offset="1" style="stop-color:#690b54"/></linearGradient><radialGradient id="radialGradient2912" cx="21.96" cy="34.498" r="12.728" gradientTransform="matrix(0.23695,0,0,0.090597,36.781,43.759)" gradientUnits="userSpaceOnUse" xlink:href="#linearGradient5060"/><radialGradient id="radialGradient2915" cx="21.96" cy="34.498" r="12.728" gradientTransform="matrix(0.5406,0,0,0.16183,29.247,40.449)" gradientUnits="userSpaceOnUse" xlink:href="#linearGradient5060"/><linearGradient id="linearGradient4758" x1="326.6" x2="317.16" y1="75.575" y2="88.006" gradientTransform="matrix(1.363,0,0,1.3617,-402.9,-65.884)" gradientUnits="userSpaceOnUse"><stop id="stop7423" offset="0" style="stop-color:#fff"/><stop id="stop7425" offset="1" style="stop-color:#fff;stop-opacity:0"/></linearGradient><linearGradient id="linearGradient4734" x1="302.29" x2="308.65" y1="58.443" y2="60.768" gradientTransform="matrix(1.363,0,0,1.3617,-402.9,-65.884)" gradientUnits="userSpaceOnUse"><stop id="stop7383" offset="0" style="stop-color:#babdb6"/><stop id="stop7385" offset="1" style="stop-color:#fff"/></linearGradient><linearGradient id="linearGradient2958" x1="304.76" x2="335.3" y1="64.295" y2="81.926" gradientTransform="matrix(1.363,0,0,1.3617,-402.9,-65.884)" gradientUnits="userSpaceOnUse"><stop id="stop4436-3" offset="0" style="stop-color:#d3d7cf"/><stop id="stop4438-6" offset=".183" style="stop-color:#babdb6"/><stop id="stop4440-7" offset=".319" style="stop-color:#fff"/><stop id="stop4442-5" offset=".876" style="stop-color:#babdb6"/><stop id="stop4444" offset="1" style="stop-color:#eeeeec"/></linearGradient><linearGradient id="linearGradient4088-9" x1="45.144" x2="45.144" y1="32.054" y2="60.636" gradientTransform="matrix(1.1621621,0,0,0.91891888,-10.390461,-9.7789792)" gradientUnits="userSpaceOnUse" xlink:href="#linearGradient4652"/></defs><metadata id="metadata4301"/><rect id="rect2879" width="40.8" height="3" x="3.6" y="43" style="display:inline;overflow:visible;visibility:visible;fill:url(#linearGradient19619);fill-opacity:1;fill-rule:nonzero;stroke:none;stroke-width:1;marker:none;opacity:.3"/><path id="path2881" d="m 3.6,43.00013 0,2.999835 C 2.1108662,46.005612 0,45.327854 0,44.499854 0,43.671856 1.6617608,43.000131 3.6,43.00013 Z" style="display:inline;overflow:visible;visibility:visible;fill:url(#radialGradient19616);fill-opacity:1;fill-rule:nonzero;stroke:none;stroke-width:1;marker:none;opacity:.3"/><path id="path2883" d="m 44.4,43.00013 0,2.999835 c 1.489133,0.0056 3.6,-0.672111 3.6,-1.500111 0,-0.827998 -1.661761,-1.499723 -3.6,-1.499724 z" style="display:inline;overflow:visible;visibility:visible;fill:url(#radialGradient19613);fill-opacity:1;fill-rule:nonzero;stroke:none;stroke-width:1;marker:none;opacity:.3"/><rect id="rect2573" width="45" height="36" x="1.5" y="8.5" rx="1.5" ry="1.5" style="color:#000;clip-rule:nonzero;display:inline;overflow:visible;visibility:visible;opacity:1;isolation:auto;mix-blend-mode:normal;color-interpolation:sRGB;color-interpolation-filters:linearRGB;solid-color:#000;solid-opacity:1;fill:url(#linearGradient12481);fill-opacity:1;fill-rule:nonzero;stroke:none;stroke-width:1;stroke-linecap:butt;stroke-linejoin:miter;stroke-miterlimit:4;stroke-dasharray:none;stroke-dashoffset:0;stroke-opacity:1;marker:none;color-rendering:auto;image-rendering:auto;shape-rendering:auto;text-rendering:auto;enable-background:accumulate"/><rect id="rect2601" width="43" height="34" x="2.5" y="9.5" rx=".5" ry=".5" style="color:#000;clip-rule:nonzero;display:inline;overflow:visible;visibility:visible;opacity:.5;isolation:auto;mix-blend-mode:normal;color-interpolation:sRGB;color-interpolation-filters:linearRGB;solid-color:#000;solid-opacity:1;fill:none;fill-opacity:1;fill-rule:nonzero;stroke:url(#linearGradient4373);stroke-width:.99999994;stroke-linecap:round;stroke-linejoin:round;stroke-miterlimit:4;stroke-dasharray:none;stroke-dashoffset:0;stroke-opacity:1;marker:none;color-rendering:auto;image-rendering:auto;shape-rendering:auto;text-rendering:auto;enable-background:accumulate"/><path style="color:#000;clip-rule:nonzero;display:inline;overflow:visible;visibility:visible;opacity:1;isolation:auto;mix-blend-mode:normal;color-interpolation:sRGB;color-interpolation-filters:linearRGB;solid-color:#000;solid-opacity:1;fill:url(#linearGradient5133);fill-opacity:1;fill-rule:evenodd;stroke:none;stroke-width:1;stroke-linecap:butt;stroke-linejoin:miter;stroke-miterlimit:4;stroke-dasharray:none;stroke-dashoffset:0;stroke-opacity:1;marker:none;color-rendering:auto;image-rendering:auto;shape-rendering:auto;text-rendering:auto;enable-background:accumulate" id="path4473" d="m 1.499999,14 0,-3.968085 c 0,-0.8486811 0.680339,-1.5319151 1.525424,-1.5319151 l 41.949152,0 c 0.845085,0 1.525424,0.683234 1.525424,1.5319151 l 0,3.968085 z"/><path id="path4525-61-9" d="m 2,14.5 44,0" style="opacity:.15;fill:none;fill-rule:evenodd;stroke:#12160a;stroke-width:1px;stroke-linecap:butt;stroke-linejoin:miter;stroke-opacity:1"/><path id="path4525-6-8" d="m 2,15.5 44,0" style="opacity:.05;fill:none;fill-rule:evenodd;stroke:#12160a;stroke-width:1px;stroke-linecap:butt;stroke-linejoin:miter;stroke-opacity:1"/><rect id="rect2573-9" width="45" height="36" x="1.5" y="8.5" rx="1.5" ry="1.5" style="color:#000;clip-rule:nonzero;display:inline;overflow:visible;visibility:visible;opacity:.3;isolation:auto;mix-blend-mode:normal;color-interpolation:sRGB;color-interpolation-filters:linearRGB;solid-color:#000;solid-opacity:1;fill:none;fill-opacity:1;fill-rule:nonzero;stroke:#000;stroke-width:1;stroke-linecap:round;stroke-linejoin:round;stroke-miterlimit:4;stroke-dasharray:none;stroke-dashoffset:0;stroke-opacity:1;marker:none;color-rendering:auto;image-rendering:auto;shape-rendering:auto;text-rendering:auto;enable-background:accumulate"/><path id="rect2601-5" d="M 3,9.5 C 2.723,9.5 2.5,9.723 2.5,10 l 0,3.5 43,0 0,-3.5 C 45.5,9.723 45.277,9.5 45,9.5 Z" style="color:#000;clip-rule:nonzero;display:inline;overflow:visible;visibility:visible;opacity:.15;isolation:auto;mix-blend-mode:normal;color-interpolation:sRGB;color-interpolation-filters:linearRGB;solid-color:#000;solid-opacity:1;fill:none;fill-opacity:1;fill-rule:nonzero;stroke:url(#linearGradient4373-8);stroke-width:.99999988;stroke-linecap:round;stroke-linejoin:round;stroke-miterlimit:4;stroke-dasharray:none;stroke-dashoffset:0;stroke-opacity:1;marker:none;color-rendering:auto;image-rendering:auto;shape-rendering:auto;text-rendering:auto;enable-background:accumulate"/><rect id="rect7303" width="14" height="11" x="6" y="28" rx="1" ry="1" style="opacity:.9;fill:#fff"/><rect id="rect7305" width="12" height="1" x="7" y="29" style="opacity:.3"/><rect id="rect7303-8" width="18" height="16" x="24" y="17" rx="1" ry="1" style="opacity:.9;fill:#fff"/><rect id="rect7305-5" width="16" height="1" x="25" y="18" style="opacity:.3"/><path id="path6912" d="m 13.075,4.5120001 c -0.164,-0.0082 -0.328,0.0582 -0.438,0.1875 -0.146,0.1725 -0.145,0.4284 -0.031,0.625 L 15.669,10.793 c 0.275,0.492 0.13,1.135 -0.313,1.782 -0.447,0.652 -1.204,1.293 -2.156,1.812 -0.953,0.519 -1.891,0.817 -2.688,0.844 C 9.7207,15.258 9.1005,15.036 8.8248,14.543 L 5.7311,9.0120001 c -0.0859,-0.153 -0.2315,-0.2296 -0.4063,-0.25 -0.1747,-0.0202 -0.3521,0.0268 -0.4687,0.1563 -0.063,0.0673 -0.1035,0.1605 -0.125,0.25 C 4.138,11.722 4.4187,14.657 5.5436,16.668 c 1.5363,2.747 4.7414,4.055 7.8754,3.5 1.28,0.431 3.456,1.178 5.469,3.176 l 4.15,-4.419 c -1.815,-1.801 -2.663,-3.444 -3.151,-4.663 0.424,-1.685 0.235,-3.471 -0.656,-5.0624999 -1.124,-2.0101 -3.468,-3.7895 -5.969,-4.6562 -0.053,-0.0196 -0.133,-0.0285 -0.187,-0.0313 z" style="fill:url(#linearGradient2958);fill-rule:evenodd;stroke:none;stroke-linecap:round;stroke-linejoin:round;stroke-dashoffset:.3612;enable-background:new"/><path id="path6912-9" d="m 13.075,4.5120001 c -0.164,-0.0082 -0.328,0.0582 -0.438,0.1875 -0.146,0.1725 -0.145,0.4284 -0.031,0.625 L 15.669,10.793 c 0.275,0.492 0.13,1.135 -0.313,1.782 -0.447,0.652 -1.204,1.293 -2.156,1.812 -0.953,0.519 -1.891,0.817 -2.688,0.844 C 9.7207,15.258 9.1005,15.036 8.8248,14.543 L 5.7311,9.0120001 c -0.0859,-0.153 -0.2315,-0.2296 -0.4063,-0.25 -0.1747,-0.0202 -0.3521,0.0268 -0.4687,0.1563 -0.063,0.0673 -0.1035,0.1605 -0.125,0.25 C 4.138,11.722 4.4187,14.657 5.5436,16.668 c 1.5363,2.747 4.7414,4.055 7.8754,3.5 1.28,0.431 3.456,1.178 5.469,3.176 l 4.15,-4.419 c -1.815,-1.801 -2.663,-3.444 -3.151,-4.663 0.424,-1.685 0.235,-3.471 -0.656,-5.0624999 -1.124,-2.0101 -3.468,-3.7895 -5.969,-4.6562 -0.053,-0.0196 -0.133,-0.0285 -0.187,-0.0313 z" style="fill:none;fill-rule:evenodd;stroke:#000;stroke-linecap:round;stroke-linejoin:round;stroke-dashoffset:.3612;enable-background:new;stroke-opacity:1;opacity:.3"/><path id="path7379" d="m 13.078,5.0093001 c 0.026,0.0095 0.01,0.0425 0,0.0426 L 16.145,10.541 c 0.414,0.74 0.115,1.613 -0.383,2.341 -0.504,0.734 -1.284,1.446 -2.301,2 -1.018,0.554 -2.086,0.82 -2.981,0.851 -0.8934,0.03 -1.7319,-0.225 -2.1299,-0.936 L 5.2833,9.2646001 c -0.0176,-0.0027 -0.0455,0.0027 -0.0427,0 0.0281,-0.0299 0.0054,0.0218 0,0.0427 C 4.6751,11.742 4.9684,14.556 6.0073,16.414 c 1.4212,2.54 4.3877,3.753 7.3267,3.234 2.924,-0.523 5.424,-3.068 6.048,-5.49 0.394,-1.568 0.226,-3.253 -0.596,-4.7230999 -1.036,-1.8521 -3.316,-3.5963 -5.708,-4.4255001 l 0,-1e-4 z" style="fill:url(#linearGradient4734);fill-rule:evenodd;enable-background:new"/><path style="fill:none;stroke:url(#linearGradient4758);stroke-width:1;stroke-linecap:round;stroke-dashoffset:.3612;enable-background:new;stroke-miterlimit:4;stroke-dasharray:none" id="path4347" d="m 14.605469,6.5429688 2.064453,3.6875002 c 0.581,1.039 0.157797,2.174 -0.408203,3 -0.571,0.834 -1.407,1.56125 -2.5,2.15625 -1.097,0.598 -2.235,0.93475 -3.25,0.96875 -1.0157003,0.034 -2.1415003,-0.274 -2.6875002,-1.25 l -2.125,-3.84375 c -0.0907,1.795 0.1171,3.60075 0.8125,4.84375 1.2819,2.291 3.9845002,3.4155 6.6875002,2.9375 0.198,-0.039 0.404703,-0.0045 0.595703,0.0625 1.464,0.492 3.291297,1.49675 5.404297,3.59375 l 1,1 3.095703,-3.09375 -0.970703,-0.96875 c -1.905,-1.89 -2.949,-3.5595 -3.5,-4.9375 -0.083,-0.216 -0.0853,-0.43225 -0.0293,-0.65625 0.358,-1.426 0.206797,-2.9893 -0.533203,-4.3125002 -0.676,-1.209 -2.10125,-2.3128001 -3.65625,-3.1875 z"/><path id="rect7166" d="m 19.044,18.356 c -0.137,0.012 -0.258,0.039 -0.344,0.125 l -0.625,0.656 c -0.344,0.344 -0.093,1.189 0.594,1.875 l 2.125,2.094 1.875,-1.906 -2.094,-2.094 c -0.515,-0.515 -1.121,-0.785 -1.531,-0.75 z" style="opacity:.07999998;fill-rule:evenodd;enable-background:new"/><path id="path6765" d="m 48,46 c 0,1.118 -3.134,2.024 -7,2.024 -3.866,0 -7,-0.906 -7,-2.024 0,-1.118 3.134,-2.024 7,-2.024 3.866,0 7,0.906 7,2.024 z" style="opacity:.51000001;fill:url(#radialGradient2915)"/><path id="path6773" d="M 45,46.867 C 45,47.493 43.626,48 41.932,48 c -1.695,0 -3.068,-0.507 -3.068,-1.133 0,-0.626 1.373,-1.133 3.068,-1.133 1.694,0 3.068,0.507 3.068,1.133 z" style="opacity:.3;fill:url(#radialGradient2912)"/><path id="path6899" d="m 18.446,22.939 21.271,22.696 c 1.395,1.394 3.784,1.211 5.379,-0.383 1.596,-1.594 1.778,-3.981 0.383,-5.376 L 22.768,18.62 18.446,22.939 Z m 22.329,17.995 c 0.793,-0.793 2.088,-0.793 2.881,0 0.793,0.792 0.793,2.086 0,2.879 -0.793,0.792 -2.088,0.792 -2.881,0 -0.793,-0.793 -0.793,-2.087 0,-2.879 z" style="fill:url(#linearGradient4668);stroke:none;stroke-width:.99962997;stroke-linecap:round;stroke-linejoin:round;stroke-dashoffset:.69999999;enable-background:new"/><path id="rect6533" d="m 22.384,22.603 c 0.555,-0.554 1.57,-0.432 2.276,0.273 l 14.692,13.335 c 0.706,0.705 0.16,2.386 -0.394,2.94 -0.555,0.553 -2.238,1.099 -2.944,0.394 L 22.658,24.875 C 21.952,24.17 21.83,23.156 22.384,22.603 Z" style="opacity:.23106001;fill:url(#linearGradient4665)"/><path id="path6899-2" d="m 18.446,22.939 21.271,22.696 c 1.395,1.394 3.784,1.211 5.379,-0.383 1.596,-1.594 1.778,-3.981 0.383,-5.376 L 22.768,18.62 18.446,22.939 Z m 22.329,17.995 c 0.793,-0.793 2.088,-0.793 2.881,0 0.793,0.792 0.793,2.086 0,2.879 -0.793,0.792 -2.088,0.792 -2.881,0 -0.793,-0.793 -0.793,-2.087 0,-2.879 z" style="fill:none;stroke:#6f0000;stroke-width:.99962997;stroke-linecap:round;stroke-linejoin:round;stroke-dashoffset:.69999999;enable-background:new;stroke-opacity:1;opacity:.5"/><path style="opacity:.5;fill:none;stroke:url(#linearGradient4088-9);stroke-width:1;stroke-linecap:round;stroke-linejoin:round;stroke-dashoffset:0;stroke-opacity:1;enable-background:accumulate;color:#000;clip-rule:nonzero;display:inline;overflow:visible;visibility:visible;isolation:auto;mix-blend-mode:normal;color-interpolation:sRGB;color-interpolation-filters:linearRGB;solid-color:#000;solid-opacity:1;fill-opacity:1;fill-rule:nonzero;stroke-miterlimit:4;stroke-dasharray:none;filter-blend-mode:normal;filter-gaussianBlur-deviation:0;color-rendering:auto;image-rendering:auto;shape-rendering:auto;text-rendering:auto" id="path4592" d="m 22.789062,20 -2.96289,2.962891 20.591797,21.970703 0.002,0 c 0.96411,0.961728 2.703641,0.887359 3.974609,-0.382813 1.271893,-1.270299 1.346062,-3.005768 0.382813,-3.970703 z"/></svg>