<svg xmlns="http://www.w3.org/2000/svg" xmlns:svg="http://www.w3.org/2000/svg" xmlns:xlink="http://www.w3.org/1999/xlink" id="svg2" width="48" height="48" version="1.1"><defs id="defs4"><linearGradient id="linearGradient14132" x1="-27.007" x2="-34.7" y1="-37.55" y2="-4.449" gradientUnits="userSpaceOnUse" xlink:href="#linearGradient2298"/><linearGradient id="linearGradient14130" x1="-25.137" x2="-35.653" y1="-1.249" y2="-24.884" gradientUnits="userSpaceOnUse" xlink:href="#linearGradient2527"/><linearGradient id="linearGradient14128" x1="11.149" x2="4.963" y1="-43.997" y2="-8.308" gradientUnits="userSpaceOnUse" xlink:href="#linearGradient3478"/><linearGradient id="linearGradient1431" x1="11.149" x2="4.963" y1="-43.997" y2="-8.308" gradientUnits="userSpaceOnUse" xlink:href="#linearGradient3478"/><linearGradient id="linearGradient1427" x1="-27.007" x2="-34.7" y1="-37.55" y2="-4.449" gradientUnits="userSpaceOnUse" xlink:href="#linearGradient2298"/><radialGradient id="radialGradient4835" cx="-35.002" cy="-1.144" r="17.501" fx="-35.002" fy="-1.144" gradientTransform="matrix(1,0,0,0.565657,0,-0.496855)" gradientUnits="userSpaceOnUse" xlink:href="#linearGradient4829"/><linearGradient id="linearGradient1557" x1="-25.137" x2="-35.653" y1="-1.249" y2="-24.884" gradientUnits="userSpaceOnUse" xlink:href="#linearGradient2527"/><linearGradient id="linearGradient1538" x1="14.261" x2="16.852" y1="9.286" y2="16.269" gradientTransform="translate(57.97693,-10.56876)" gradientUnits="userSpaceOnUse" xlink:href="#linearGradient2254"/><linearGradient id="linearGradient1536" x1="14.261" x2="16.852" y1="9.286" y2="16.269" gradientTransform="matrix(-0.976307,0,0,1,123.1162,-5.446357)" gradientUnits="userSpaceOnUse" xlink:href="#linearGradient2254"/><linearGradient id="linearGradient1534" x1="14.261" x2="16.852" y1="9.286" y2="16.269" gradientTransform="matrix(1.106619,0,0,1,0.795022,6.093572)" gradientUnits="userSpaceOnUse" xlink:href="#linearGradient2254"/><linearGradient id="linearGradient1532" x1="14.261" x2="16.852" y1="9.286" y2="16.269" gradientTransform="matrix(1.462015,0,0,1.262475,-11.2762,1.403411)" gradientUnits="userSpaceOnUse" xlink:href="#linearGradient2254"/><linearGradient id="linearGradient1530" x1="14.261" x2="16.852" y1="9.286" y2="16.269" gradientTransform="matrix(0.834148,0,0,1,9.287262,8.163122)" gradientUnits="userSpaceOnUse" xlink:href="#linearGradient2254"/><linearGradient id="linearGradient1528" x1="14.261" x2="16.852" y1="9.286" y2="16.269" gradientTransform="matrix(0.751222,0,0,1,-5.7863,7.206012)" gradientUnits="userSpaceOnUse" xlink:href="#linearGradient2254"/><linearGradient id="linearGradient1526" x1="14.261" x2="16.852" y1="9.286" y2="16.269" gradientTransform="translate(3.674812,3.08837)" gradientUnits="userSpaceOnUse" xlink:href="#linearGradient2254"/><linearGradient id="linearGradient1524" x1="14.261" x2="16.852" y1="9.286" y2="16.269" gradientTransform="translate(-2.033818,0.56172)" gradientUnits="userSpaceOnUse" xlink:href="#linearGradient2254"/><linearGradient id="linearGradient1522" x1="14.261" x2="16.852" y1="9.286" y2="16.269" gradientTransform="translate(-7.197595,2.690414)" gradientUnits="userSpaceOnUse" xlink:href="#linearGradient2254"/><linearGradient id="linearGradient1520" x1="-25.137" x2="-35.653" y1="-1.249" y2="-24.884" gradientUnits="userSpaceOnUse" xlink:href="#linearGradient2527"/><linearGradient id="linearGradient1518" x1="14.261" x2="16.852" y1="9.286" y2="16.269" gradientTransform="matrix(1.284317,0,0,1,79.36909,-3.193747)" gradientUnits="userSpaceOnUse" xlink:href="#linearGradient2254"/><linearGradient id="linearGradient1516" x1="14.261" x2="16.852" y1="9.286" y2="16.269" gradientTransform="matrix(1.462015,0,0,1.262475,56.25514,-12.39388)" gradientUnits="userSpaceOnUse" xlink:href="#linearGradient2254"/><linearGradient id="linearGradient1514" x1="14.261" x2="16.852" y1="9.286" y2="16.269" gradientTransform="translate(88.49344,-9.697877)" gradientUnits="userSpaceOnUse" xlink:href="#linearGradient2254"/><linearGradient id="linearGradient3405" x1="14.261" x2="16.852" y1="9.286" y2="16.269" gradientTransform="translate(4.561802,-4.303373)" gradientUnits="userSpaceOnUse" xlink:href="#linearGradient2254"/><linearGradient id="linearGradient3401" x1="14.261" x2="16.852" y1="9.286" y2="16.269" gradientTransform="translate(-7.197595,2.690414)" gradientUnits="userSpaceOnUse" xlink:href="#linearGradient2254"/><linearGradient id="linearGradient3398" x1="14.261" x2="16.852" y1="9.286" y2="16.269" gradientTransform="translate(-2.033818,0.56172)" gradientUnits="userSpaceOnUse" xlink:href="#linearGradient2254"/><linearGradient id="linearGradient3395" x1="14.261" x2="16.852" y1="9.286" y2="16.269" gradientTransform="translate(3.674812,3.08837)" gradientUnits="userSpaceOnUse" xlink:href="#linearGradient2254"/><linearGradient id="linearGradient3392" x1="14.261" x2="16.852" y1="9.286" y2="16.269" gradientTransform="matrix(0.751222,0,0,1,-5.7863,7.206012)" gradientUnits="userSpaceOnUse" xlink:href="#linearGradient2254"/><linearGradient id="linearGradient3389" x1="14.261" x2="16.852" y1="9.286" y2="16.269" gradientTransform="matrix(0.834148,0,0,1,9.287262,8.163122)" gradientUnits="userSpaceOnUse" xlink:href="#linearGradient2254"/><linearGradient id="linearGradient3386" x1="14.261" x2="16.852" y1="9.286" y2="16.269" gradientTransform="matrix(1.462015,0,0,1.262475,-11.2762,1.403411)" gradientUnits="userSpaceOnUse" xlink:href="#linearGradient2254"/><linearGradient id="linearGradient3383" x1="14.261" x2="16.852" y1="9.286" y2="16.269" gradientTransform="matrix(1.106619,0,0,1,0.795022,6.093572)" gradientUnits="userSpaceOnUse" xlink:href="#linearGradient2254"/><linearGradient id="linearGradient3380" x1="14.261" x2="16.852" y1="9.286" y2="16.269" gradientTransform="matrix(1.106619,0,0,1,9.63386,11.75043)" gradientUnits="userSpaceOnUse" xlink:href="#linearGradient2254"/><linearGradient id="linearGradient3378" x1="14.261" x2="16.852" y1="9.286" y2="16.269" gradientTransform="matrix(1.462015,0,0,1.262475,-2.437359,7.060269)" gradientUnits="userSpaceOnUse" xlink:href="#linearGradient2254"/><linearGradient id="linearGradient3376" x1="14.261" x2="16.852" y1="9.286" y2="16.269" gradientTransform="matrix(0.834148,0,0,1,18.1261,13.81998)" gradientUnits="userSpaceOnUse" xlink:href="#linearGradient2254"/><linearGradient id="linearGradient3374" x1="14.261" x2="16.852" y1="9.286" y2="16.269" gradientTransform="matrix(0.751222,0,0,1,3.052538,12.86287)" gradientUnits="userSpaceOnUse" xlink:href="#linearGradient2254"/><linearGradient id="linearGradient3372" x1="14.261" x2="16.852" y1="9.286" y2="16.269" gradientTransform="translate(12.51365,8.745228)" gradientUnits="userSpaceOnUse" xlink:href="#linearGradient2254"/><linearGradient id="linearGradient3370" x1="14.261" x2="16.852" y1="9.286" y2="16.269" gradientTransform="translate(6.80502,6.218578)" gradientUnits="userSpaceOnUse" xlink:href="#linearGradient2254"/><linearGradient id="linearGradient3368" x1="14.261" x2="16.852" y1="9.286" y2="16.269" gradientTransform="translate(1.641243,8.347272)" gradientUnits="userSpaceOnUse" xlink:href="#linearGradient2254"/><linearGradient id="linearGradient3366" x1="14.261" x2="16.852" y1="9.286" y2="16.269" gradientTransform="translate(13.40064,1.353485)" gradientUnits="userSpaceOnUse" xlink:href="#linearGradient2254"/><linearGradient id="linearGradient3353" x1="23.304" x2="29.75" y1="29.116" y2="46.093" gradientUnits="userSpaceOnUse" xlink:href="#linearGradient3347"/><linearGradient id="linearGradient2563" x1="14.261" x2="16.852" y1="9.286" y2="16.269" gradientTransform="translate(-0.72683,2.481141)" gradientUnits="userSpaceOnUse" xlink:href="#linearGradient2254"/><linearGradient id="linearGradient2555" x1="14.261" x2="16.852" y1="9.286" y2="16.269" gradientTransform="translate(-7.499805,1.708617)" gradientUnits="userSpaceOnUse" xlink:href="#linearGradient2254"/><linearGradient id="linearGradient2541" x1="14.261" x2="16.852" y1="9.286" y2="16.269" gradientTransform="translate(13.40064,1.353485)" gradientUnits="userSpaceOnUse" xlink:href="#linearGradient2254"/><linearGradient id="linearGradient2537" x1="14.261" x2="16.852" y1="9.286" y2="16.269" gradientTransform="translate(17.33814,3.415985)" gradientUnits="userSpaceOnUse" xlink:href="#linearGradient2254"/><linearGradient id="linearGradient2533" x1="-25.137" x2="-35.653" y1="-1.249" y2="-24.884" gradientUnits="userSpaceOnUse" xlink:href="#linearGradient2527"/><linearGradient id="linearGradient2517" x1="37" x2="53.75" y1="-21.75" y2="9" gradientTransform="matrix(0.414169,0,0,0.778853,-1.910724,36.8785)" gradientUnits="userSpaceOnUse" xlink:href="#linearGradient2500"/><linearGradient id="linearGradient2513" x1="38.858" x2="53.75" y1="-18.407" y2="9" gradientTransform="matrix(0.605509,0,0,0.710542,-0.224971,42.195)" gradientUnits="userSpaceOnUse" xlink:href="#linearGradient2500"/><linearGradient id="linearGradient2509" x1="37" x2="53.75" y1="-21.75" y2="9" gradientTransform="matrix(0.889091,0,0,0.617886,-4.771368,39.81402)" gradientUnits="userSpaceOnUse" xlink:href="#linearGradient2500"/><linearGradient id="linearGradient2506" x1="37" x2="53.75" y1="-21.75" y2="9" gradientUnits="userSpaceOnUse" xlink:href="#linearGradient2500"/><linearGradient id="linearGradient2483" x1="14.261" x2="16.852" y1="9.286" y2="16.269" gradientTransform="translate(0.842481,-3.998086)" gradientUnits="userSpaceOnUse" xlink:href="#linearGradient2254"/><linearGradient id="linearGradient2478" x1="14.261" x2="16.852" y1="9.286" y2="16.269" gradientTransform="translate(1.641243,8.347272)" gradientUnits="userSpaceOnUse" xlink:href="#linearGradient2254"/><linearGradient id="linearGradient2475" x1="14.261" x2="16.852" y1="9.286" y2="16.269" gradientTransform="translate(6.80502,6.218578)" gradientUnits="userSpaceOnUse" xlink:href="#linearGradient2254"/><linearGradient id="linearGradient2472" x1="14.261" x2="16.852" y1="9.286" y2="16.269" gradientTransform="translate(12.51365,8.745228)" gradientUnits="userSpaceOnUse" xlink:href="#linearGradient2254"/><linearGradient id="linearGradient2469" x1="14.261" x2="16.852" y1="9.286" y2="16.269" gradientTransform="matrix(0.751222,0,0,1,3.052538,12.86287)" gradientUnits="userSpaceOnUse" xlink:href="#linearGradient2254"/><linearGradient id="linearGradient2463" x1="14.261" x2="16.852" y1="9.286" y2="16.269" gradientTransform="matrix(0.834148,0,0,1,18.1261,13.81998)" gradientUnits="userSpaceOnUse" xlink:href="#linearGradient2254"/><linearGradient id="linearGradient2460" x1="14.261" x2="16.852" y1="9.286" y2="16.269" gradientTransform="matrix(1.462015,0,0,1.262475,-2.437359,7.060269)" gradientUnits="userSpaceOnUse" xlink:href="#linearGradient2254"/><linearGradient id="linearGradient2457" x1="14.261" x2="16.852" y1="9.286" y2="16.269" gradientTransform="matrix(1.106619,0,0,1,9.63386,11.75043)" gradientUnits="userSpaceOnUse" xlink:href="#linearGradient2254"/><linearGradient id="linearGradient2451" x1="6.665" x2="41.404" y1="13.803" y2="13.803" gradientTransform="matrix(0.992367,0,0,0.990713,4.378541,10.65407)" gradientUnits="userSpaceOnUse" xlink:href="#linearGradient2392"/><linearGradient id="linearGradient2448" x1="6.665" x2="41.404" y1="13.803" y2="13.803" gradientTransform="matrix(0.992367,0,0,0.990713,1.128541,5.404075)" gradientUnits="userSpaceOnUse" xlink:href="#linearGradient2392"/><linearGradient id="linearGradient2446" x1="14.261" x2="16.852" y1="9.286" y2="16.269" gradientTransform="matrix(-0.976307,0,0,1,53.94753,8.563694)" gradientUnits="userSpaceOnUse" xlink:href="#linearGradient2254"/><linearGradient id="linearGradient2444" x1="14.261" x2="16.852" y1="9.286" y2="16.269" gradientTransform="matrix(1.106619,0,0,1,6.38386,6.500432)" gradientUnits="userSpaceOnUse" xlink:href="#linearGradient2254"/><linearGradient id="linearGradient2442" x1="14.261" x2="16.852" y1="9.286" y2="16.269" gradientTransform="matrix(1.462015,0,0,1.262475,-5.687359,1.810269)" gradientUnits="userSpaceOnUse" xlink:href="#linearGradient2254"/><linearGradient id="linearGradient2440" x1="14.261" x2="16.852" y1="9.286" y2="16.269" gradientTransform="matrix(0.834148,0,0,1,14.8761,8.569976)" gradientUnits="userSpaceOnUse" xlink:href="#linearGradient2254"/><linearGradient id="linearGradient2438" x1="14.261" x2="16.852" y1="9.286" y2="16.269" gradientTransform="matrix(1.284317,0,0,1,14.61983,4.452335)" gradientUnits="userSpaceOnUse" xlink:href="#linearGradient2254"/><linearGradient id="linearGradient2436" x1="14.261" x2="16.852" y1="9.286" y2="16.269" gradientTransform="matrix(0.751222,0,0,1,-0.197462,7.612867)" gradientUnits="userSpaceOnUse" xlink:href="#linearGradient2254"/><linearGradient id="linearGradient2434" x1="14.261" x2="16.852" y1="9.286" y2="16.269" gradientTransform="translate(9.263651,3.495228)" gradientUnits="userSpaceOnUse" xlink:href="#linearGradient2254"/><linearGradient id="linearGradient2432" x1="14.261" x2="16.852" y1="9.286" y2="16.269" gradientTransform="translate(3.55502,0.968578)" gradientUnits="userSpaceOnUse" xlink:href="#linearGradient2254"/><linearGradient id="linearGradient2430" x1="14.261" x2="16.852" y1="9.286" y2="16.269" gradientTransform="translate(-1.608757,3.097272)" gradientUnits="userSpaceOnUse" xlink:href="#linearGradient2254"/><linearGradient id="linearGradient2428" x1="14.261" x2="16.852" y1="9.286" y2="16.269" gradientTransform="translate(8.497184,-2.330824)" gradientUnits="userSpaceOnUse" xlink:href="#linearGradient2254"/><linearGradient id="linearGradient2426" x1="14.261" x2="16.852" y1="9.286" y2="16.269" gradientTransform="translate(14.4634,2.014073)" gradientUnits="userSpaceOnUse" xlink:href="#linearGradient2254"/><linearGradient id="linearGradient2398" x1="6.665" x2="41.404" y1="13.803" y2="13.803" gradientTransform="matrix(0.992367,0,0,0.990713,1.128541,5.404075)" gradientUnits="userSpaceOnUse" xlink:href="#linearGradient2392"/><linearGradient id="linearGradient2372" x1="14.261" x2="16.852" y1="9.286" y2="16.269" gradientTransform="matrix(-0.976307,0,0,1,56.12415,32.08882)" gradientUnits="userSpaceOnUse" xlink:href="#linearGradient2254"/><linearGradient id="linearGradient2370" x1="14.261" x2="16.852" y1="9.286" y2="16.269" gradientTransform="translate(4.207586,21.30544)" gradientUnits="userSpaceOnUse" xlink:href="#linearGradient2254"/><linearGradient id="linearGradient2368" x1="14.261" x2="16.852" y1="9.286" y2="16.269" gradientTransform="matrix(1.106619,0,0,1,8.185476,29.52556)" gradientUnits="userSpaceOnUse" xlink:href="#linearGradient2254"/><linearGradient id="linearGradient2366" x1="14.261" x2="16.852" y1="9.286" y2="16.269" gradientTransform="matrix(1.462015,0,0,1.262475,-4.010744,24.9604)" gradientUnits="userSpaceOnUse" xlink:href="#linearGradient2254"/><linearGradient id="linearGradient2364" x1="14.261" x2="16.852" y1="9.286" y2="16.269" gradientTransform="matrix(0.834148,0,0,1,17.05272,31.4701)" gradientUnits="userSpaceOnUse" xlink:href="#linearGradient2254"/><linearGradient id="linearGradient2362" x1="14.261" x2="16.852" y1="9.286" y2="16.269" gradientTransform="matrix(1.284317,0,0,1,16.67145,27.22746)" gradientUnits="userSpaceOnUse" xlink:href="#linearGradient2254"/><linearGradient id="linearGradient2360" x1="14.261" x2="16.852" y1="9.286" y2="16.269" gradientTransform="matrix(0.751222,0,0,1,0.229156,30.76299)" gradientUnits="userSpaceOnUse" xlink:href="#linearGradient2254"/><linearGradient id="linearGradient2358" x1="14.261" x2="16.852" y1="9.286" y2="16.269" gradientTransform="translate(10.30638,19.27251)" gradientUnits="userSpaceOnUse" xlink:href="#linearGradient2254"/><linearGradient id="linearGradient2356" x1="14.261" x2="16.852" y1="9.286" y2="16.269" gradientTransform="translate(11.19027,26.52035)" gradientUnits="userSpaceOnUse" xlink:href="#linearGradient2254"/><linearGradient id="linearGradient2354" x1="14.261" x2="16.852" y1="9.286" y2="16.269" gradientTransform="translate(5.356636,23.8687)" gradientUnits="userSpaceOnUse" xlink:href="#linearGradient2254"/><linearGradient id="linearGradient2352" x1="14.261" x2="16.852" y1="9.286" y2="16.269" gradientTransform="translate(-0.932144,25.8724)" gradientUnits="userSpaceOnUse" xlink:href="#linearGradient2254"/><linearGradient id="linearGradient2350" x1="14.261" x2="16.852" y1="9.286" y2="16.269" gradientTransform="translate(16.14002,24.6642)" gradientUnits="userSpaceOnUse" xlink:href="#linearGradient2254"/><linearGradient id="linearGradient2311" x1="14.261" x2="16.852" y1="9.286" y2="16.269" gradientTransform="matrix(-0.976307,0,0,1,53.94753,8.563694)" gradientUnits="userSpaceOnUse" xlink:href="#linearGradient2254"/><linearGradient id="linearGradient2303" x1="14.261" x2="16.852" y1="9.286" y2="16.269" gradientTransform="translate(1.707748,-5.784024)" gradientUnits="userSpaceOnUse" xlink:href="#linearGradient2254"/><linearGradient id="linearGradient2299" x1="14.261" x2="16.852" y1="9.286" y2="16.269" gradientTransform="matrix(1.106619,0,0,1,6.38386,6.500432)" gradientUnits="userSpaceOnUse" xlink:href="#linearGradient2254"/><linearGradient id="linearGradient2295" x1="14.261" x2="16.852" y1="9.286" y2="16.269" gradientTransform="matrix(1.462015,0,0,1.262475,-5.687359,1.810269)" gradientUnits="userSpaceOnUse" xlink:href="#linearGradient2254"/><linearGradient id="linearGradient2291" x1="14.261" x2="16.852" y1="9.286" y2="16.269" gradientTransform="matrix(0.834148,0,0,1,14.8761,8.569976)" gradientUnits="userSpaceOnUse" xlink:href="#linearGradient2254"/><linearGradient id="linearGradient2287" x1="14.261" x2="16.852" y1="9.286" y2="16.269" gradientTransform="matrix(1.284317,0,0,1,14.61983,4.452335)" gradientUnits="userSpaceOnUse" xlink:href="#linearGradient2254"/><linearGradient id="linearGradient2283" x1="14.261" x2="16.852" y1="9.286" y2="16.269" gradientTransform="matrix(0.751222,0,0,1,-0.197462,7.612867)" gradientUnits="userSpaceOnUse" xlink:href="#linearGradient2254"/><linearGradient id="linearGradient2279" x1="14.261" x2="16.852" y1="9.286" y2="16.269" gradientTransform="translate(14.4634,2.014073)" gradientUnits="userSpaceOnUse" xlink:href="#linearGradient2254"/><linearGradient id="linearGradient2275" x1="14.261" x2="16.852" y1="9.286" y2="16.269" gradientTransform="translate(8.497184,-2.330824)" gradientUnits="userSpaceOnUse" xlink:href="#linearGradient2254"/><linearGradient id="linearGradient2271" x1="14.261" x2="16.852" y1="9.286" y2="16.269" gradientTransform="translate(9.263651,3.495228)" gradientUnits="userSpaceOnUse" xlink:href="#linearGradient2254"/><linearGradient id="linearGradient2267" x1="14.261" x2="16.852" y1="9.286" y2="16.269" gradientTransform="translate(3.55502,0.968578)" gradientUnits="userSpaceOnUse" xlink:href="#linearGradient2254"/><linearGradient id="linearGradient2263" x1="14.261" x2="16.852" y1="9.286" y2="16.269" gradientTransform="translate(-1.608757,3.097272)" gradientUnits="userSpaceOnUse" xlink:href="#linearGradient2254"/><linearGradient id="linearGradient2254"><stop id="stop2256" offset="0" style="stop-color:#fff;stop-opacity:1"/><stop id="stop2258" offset="1" style="stop-color:#fff;stop-opacity:0"/></linearGradient><linearGradient id="linearGradient2392"><stop id="stop2394" offset="0" style="stop-color:#eeeeec;stop-opacity:1"/><stop id="stop2396" offset="1" style="stop-color:#eeeeec;stop-opacity:0"/></linearGradient><linearGradient id="linearGradient2500"><stop id="stop2502" offset="0" style="stop-color:#fce94f;stop-opacity:1"/><stop id="stop2504" offset="1" style="stop-color:#fce94f;stop-opacity:0"/></linearGradient><linearGradient id="linearGradient2527"><stop id="stop2529" offset="0" style="stop-color:#fcaf3e;stop-opacity:1"/><stop id="stop2531" offset="1" style="stop-color:#fcaf3e;stop-opacity:0"/></linearGradient><linearGradient id="linearGradient3347"><stop id="stop3349" offset="0" style="stop-color:#edd400;stop-opacity:1"/><stop id="stop3351" offset="1" style="stop-color:#edd400;stop-opacity:0"/></linearGradient><linearGradient id="linearGradient2298"><stop id="stop2300" offset="0" style="stop-color:#fff;stop-opacity:1"/><stop id="stop2302" offset="1" style="stop-color:#fff;stop-opacity:0"/></linearGradient><linearGradient id="linearGradient3478"><stop id="stop3480" offset="0" style="stop-color:#fff;stop-opacity:1"/><stop id="stop3482" offset="1" style="stop-color:#fff;stop-opacity:0"/></linearGradient><linearGradient id="linearGradient4829"><stop id="stop4831" offset="0" style="stop-color:#000;stop-opacity:1"/><stop id="stop4833" offset="1" style="stop-color:#000;stop-opacity:0"/></linearGradient><linearGradient id="linearGradient7744" x1="11.149" x2="4.963" y1="-43.997" y2="-8.308" gradientUnits="userSpaceOnUse" xlink:href="#linearGradient3478"/><linearGradient id="linearGradient7746" x1="-25.137" x2="-35.653" y1="-1.249" y2="-24.884" gradientUnits="userSpaceOnUse" xlink:href="#linearGradient2527"/><linearGradient id="linearGradient7748" x1="-27.007" x2="-34.7" y1="-37.55" y2="-4.449" gradientUnits="userSpaceOnUse" xlink:href="#linearGradient2298"/><radialGradient id="radialGradient7778" cx="97.468" cy="-405.912" r="358.446" fx="97.468" fy="-405.912" gradientTransform="matrix(0.02128891,0,0,0.02758631,323.3674,-435.104)" gradientUnits="userSpaceOnUse" xlink:href="#linearGradient9642"/><linearGradient id="linearGradient9642"><stop id="stop9644" offset="0" style="stop-color:#787974;stop-opacity:1"/><stop id="stop9646" offset="1" style="stop-color:#787974;stop-opacity:0"/></linearGradient><radialGradient id="radialGradient2996" cx="27.75" cy="18.625" r="15.063" fx="27.75" fy="18.625" gradientTransform="matrix(1.341774,0,0,1.0894455,-13.234228,-3.745426)" gradientUnits="userSpaceOnUse" xlink:href="#lG3584"/><radialGradient id="radialGradient2993" cx="14.772" cy="74.21" r="7.829" fx="14.772" fy="74.21" gradientTransform="matrix(2.1121636,0,0,0.6226858,-6.201582,-3.209507)" gradientUnits="userSpaceOnUse" xlink:href="#lG20210"/><linearGradient id="linearGradient2990" x1="23.124" x2="26.479" y1="43.165" y2="43.165" gradientTransform="matrix(1.7634105,0,0,1.5366701,-19.732605,-23.884032)" gradientUnits="userSpaceOnUse" xlink:href="#aigrd1"/><linearGradient id="linearGradient2987" x1="24.613" x2="24.613" y1="31.146" y2="26.74" gradientTransform="matrix(0.9917,0,0,0.9909251,-0.408739,1.0079205)" gradientUnits="userSpaceOnUse" xlink:href="#lG3300"/><linearGradient id="linearGradient2984" x1="-10.481" x2="-23.851" y1="39.034" y2="39.143" gradientTransform="matrix(0.5604295,0.02969716,-0.1172615,0.6523102,35.381303,20.961615)" gradientUnits="userSpaceOnUse" xlink:href="#lG2399"/><linearGradient id="linearGradient2982" x1="-22.874" x2="-4.391" y1="38.676" y2="38.676" gradientTransform="matrix(0.5604295,0.02969716,-0.1172615,0.6523102,35.381303,20.961615)" gradientUnits="userSpaceOnUse" xlink:href="#lG19894"/><linearGradient id="linearGradient2979" x1="-10.481" x2="-23.851" y1="39.034" y2="39.143" gradientTransform="matrix(0.6119222,-0.1311763,0.06194293,0.7364078,30.37142,15.405948)" gradientUnits="userSpaceOnUse" xlink:href="#lG2399"/><linearGradient id="linearGradient2977" x1="-22.874" x2="-4.391" y1="38.676" y2="38.676" gradientTransform="matrix(0.6119222,-0.1311763,0.06194293,0.7364078,30.37142,15.405948)" gradientUnits="userSpaceOnUse" xlink:href="#lG19894"/><linearGradient id="linearGradient2974" x1="-10.481" x2="-23.851" y1="39.034" y2="39.143" gradientTransform="matrix(0.6119222,-0.1311763,0.06194293,0.7364078,30.37142,12.330395)" gradientUnits="userSpaceOnUse" xlink:href="#lG2399"/><linearGradient id="linearGradient2972" x1="-22.874" x2="-4.391" y1="38.676" y2="38.676" gradientTransform="matrix(0.6119222,-0.1311763,0.06194293,0.7364078,30.37142,12.330395)" gradientUnits="userSpaceOnUse" xlink:href="#lG19894"/><linearGradient id="linearGradient2969" x1="-10.481" x2="-23.851" y1="39.034" y2="39.143" gradientTransform="matrix(0.6119217,-0.1311762,0.06194293,0.7364078,30.37142,9.2548427)" gradientUnits="userSpaceOnUse" xlink:href="#lG2399"/><linearGradient id="linearGradient2967" x1="-22.874" x2="-4.391" y1="38.676" y2="38.676" gradientTransform="matrix(0.6119217,-0.1311762,0.06194293,0.7364078,30.37142,9.2548427)" gradientUnits="userSpaceOnUse" xlink:href="#lG19894"/><linearGradient id="linearGradient2959" x1="-29.007" x2="-37.641" y1="-29.799" y2="-29.598" gradientTransform="matrix(-0.8644621,-0.0434172,0.1808757,-0.9536764,1.0306099,1.6641308)" gradientUnits="userSpaceOnUse" xlink:href="#lG3265"/><linearGradient id="linearGradient2957" x1="17.88" x2="11.906" y1="55.363" y2="54.863" gradientTransform="matrix(1.5303857,0,0,0.5438301,1.0306099,1.6641308)" gradientUnits="userSpaceOnUse" xlink:href="#lG3311"/><linearGradient id="linearGradient2954" x1="23.413" x2="23.413" y1="2" y2="34.005" gradientUnits="userSpaceOnUse" xlink:href="#lG3531"/><radialGradient id="radialGradient2952" cx="68.138" cy="29.869" r="33.934" fx="68.138" fy="29.869" gradientTransform="matrix(0.5261727,0,0,0.7582733,-9.5647863,5.1185895)" gradientUnits="userSpaceOnUse" xlink:href="#aigrd7"/><linearGradient id="linearGradient2949" x1="37.94" x2="-5.252" y1="16.652" y2="3.856" gradientTransform="matrix(0.8533916,0,0,0.9752486,1.8913364,1.6641308)" gradientUnits="userSpaceOnUse" xlink:href="#lG3175"/><linearGradient id="linearGradient2946" x1="30.62" x2="32.166" y1="10.314" y2="18.163" gradientTransform="matrix(-0.5899687,0,0,1.4729675,47.100499,4.7781825)" gradientUnits="userSpaceOnUse" xlink:href="#lG20393"/><linearGradient id="linearGradient2943" x1="30.62" x2="32.166" y1="10.314" y2="18.163" gradientTransform="matrix(0.5899687,0,0,1.4729675,0.9038103,4.8940498)" gradientUnits="userSpaceOnUse" xlink:href="#lG20393"/><linearGradient id="linearGradient2940" x1="14.637" x2="9.365" y1="31.504" y2="32.251" gradientTransform="matrix(1.8610153,0,0,0.4669515,1.2553727,5.473386)" gradientUnits="userSpaceOnUse" xlink:href="#lG20428"/><linearGradient id="linearGradient2937" x1="16.999" x2="32.097" y1="10.061" y2="36.726" gradientTransform="matrix(1.088532,0,0,0.9166207,0.7043474,-1.5743919)" gradientUnits="userSpaceOnUse" xlink:href="#lG6339"/><linearGradient id="lG3537" x1="23.413" x2="23.413" y1="2" y2="34.005" gradientUnits="userSpaceOnUse" xlink:href="#lG3531"/><linearGradient id="lG3845" x1="24.613" x2="24.613" y1="31.146" y2="26.74" gradientTransform="matrix(0.9917,0,0,0.9909251,-0.408739,1.0079205)" gradientUnits="userSpaceOnUse" xlink:href="#lG3300"/><linearGradient id="lG3842" x1="-10.481" x2="-23.851" y1="39.034" y2="39.143" gradientTransform="matrix(0.5604295,0.02969716,-0.1172615,0.6523102,35.381303,20.961615)" gradientUnits="userSpaceOnUse" xlink:href="#lG2399"/><linearGradient id="lG3840" x1="-22.874" x2="-4.391" y1="38.676" y2="38.676" gradientTransform="matrix(0.5604295,0.02969716,-0.1172615,0.6523102,35.381303,20.961615)" gradientUnits="userSpaceOnUse" xlink:href="#lG19894"/><linearGradient id="lG3835" x1="-10.481" x2="-23.851" y1="39.034" y2="39.143" gradientTransform="matrix(0.6119217,-0.1311762,0.06194293,0.7364078,30.37142,9.2548427)" gradientUnits="userSpaceOnUse" xlink:href="#lG2399"/><linearGradient id="lG3833" x1="-22.874" x2="-4.391" y1="38.676" y2="38.676" gradientTransform="matrix(0.6119217,-0.1311762,0.06194293,0.7364078,30.37142,9.2548427)" gradientUnits="userSpaceOnUse" xlink:href="#lG19894"/><radialGradient id="rG3590" cx="27.75" cy="18.625" r="15.063" fx="27.75" fy="18.625" gradientUnits="userSpaceOnUse" xlink:href="#lG3584"/><linearGradient id="lG3580" x1="30.62" x2="32.166" y1="10.314" y2="18.163" gradientTransform="matrix(-0.5899687,0,0,1.4729675,47.100499,4.7781825)" gradientUnits="userSpaceOnUse" xlink:href="#lG20393"/><linearGradient id="lG3577" x1="30.62" x2="32.166" y1="10.314" y2="18.163" gradientTransform="matrix(0.5899687,0,0,1.4729675,0.9038103,4.8940498)" gradientUnits="userSpaceOnUse" xlink:href="#lG20393"/><linearGradient id="lG3574" x1="14.637" x2="9.365" y1="31.504" y2="32.251" gradientTransform="matrix(1.8610153,0,0,0.4669515,1.2553727,5.473386)" gradientUnits="userSpaceOnUse" xlink:href="#lG20428"/><linearGradient id="lG2801" x1="-29.007" x2="-37.641" y1="-29.799" y2="-29.598" gradientTransform="matrix(-0.8644621,-0.0434172,0.1808757,-0.9536764,1.0306099,1.6641308)" gradientUnits="userSpaceOnUse" xlink:href="#lG3265"/><linearGradient id="lG2799" x1="17.88" x2="11.906" y1="55.363" y2="54.863" gradientTransform="matrix(1.5303857,0,0,0.5438301,1.0306099,1.6641308)" gradientUnits="userSpaceOnUse" xlink:href="#lG3311"/><radialGradient id="rG2796" cx="68.138" cy="29.869" r="33.934" fx="68.138" fy="29.869" gradientTransform="matrix(0.5261727,0,0,0.7582733,-9.5647863,5.1185895)" gradientUnits="userSpaceOnUse" xlink:href="#aigrd7"/><linearGradient id="lG2793" x1="37.94" x2="-5.252" y1="16.652" y2="3.856" gradientTransform="matrix(0.8533916,0,0,0.9752486,1.8913364,1.6641308)" gradientUnits="userSpaceOnUse" xlink:href="#lG3175"/><linearGradient id="lG2774" x1="16.999" x2="32.097" y1="10.061" y2="36.726" gradientTransform="matrix(1.088532,0,0,0.9166207,0.7043474,-1.5743919)" gradientUnits="userSpaceOnUse" xlink:href="#lG6339"/><linearGradient id="lG2755" x1="23.124" x2="26.479" y1="43.165" y2="43.165" gradientTransform="matrix(1.7634105,0,0,1.5366701,-19.732605,-23.884032)" gradientUnits="userSpaceOnUse" xlink:href="#aigrd1"/><linearGradient id="lG4114" x1="-10.481" x2="-23.851" y1="39.034" y2="39.143" gradientTransform="scale(1.02645,0.974232)" gradientUnits="userSpaceOnUse" xlink:href="#lG2399"/><linearGradient id="lG4112" x1="-22.874" x2="-4.391" y1="38.676" y2="38.676" gradientTransform="scale(1.02645,0.974232)" gradientUnits="userSpaceOnUse" xlink:href="#lG19894"/><linearGradient id="lG4110" x1="-10.481" x2="-23.851" y1="39.034" y2="39.143" gradientTransform="scale(1.02645,0.974232)" gradientUnits="userSpaceOnUse" xlink:href="#lG2399"/><linearGradient id="lG4108" x1="-22.874" x2="-4.391" y1="38.676" y2="38.676" gradientTransform="scale(1.02645,0.974232)" gradientUnits="userSpaceOnUse" xlink:href="#lG19894"/><radialGradient id="rG20216" cx="14.772" cy="74.21" r="7.829" fx="14.772" fy="74.21" gradientTransform="scale(1.764278,0.566804)" gradientUnits="userSpaceOnUse" xlink:href="#lG20210"/><linearGradient id="lG19894" x1="18.995" x2="30.17" y1="37.227" y2="37.227" gradientUnits="userSpaceOnUse"><stop id="stop2842" offset=".006" style="stop-color:#a3a349"/><stop id="stop2844" offset=".021" style="stop-color:#acac54"/><stop id="stop2846" offset=".066" style="stop-color:#c1c172"/><stop id="stop2848" offset=".115" style="stop-color:#d4d68e"/><stop id="stop2850" offset=".168" style="stop-color:#e2e4a6"/><stop id="stop2852" offset=".227" style="stop-color:#edf0b8"/><stop id="stop2854" offset=".296" style="stop-color:#f3f6c3"/><stop id="stop2856" offset=".405" style="stop-color:#f5f8c7"/><stop id="stop2858" offset=".524" style="stop-color:#eef0be"/><stop id="stop2860" offset=".667" style="stop-color:#dbdda9"/><stop id="stop2862" offset=".821" style="stop-color:#bebd88"/><stop id="stop2864" offset=".983" style="stop-color:#989564"/><stop id="stop2866" offset="1" style="stop-color:#949160"/></linearGradient><linearGradient id="aigrd1" x1="23.124" x2="26.479" y1="43.165" y2="43.165" gradientUnits="userSpaceOnUse"><stop id="stop2815" offset=".006" style="stop-color:#686868"/><stop id="stop2817" offset=".03" style="stop-color:#777"/><stop id="stop2819" offset=".084" style="stop-color:#929292"/><stop id="stop2821" offset=".142" style="stop-color:#a7a7a7"/><stop id="stop2823" offset=".207" style="stop-color:#b6b6b6"/><stop id="stop2825" offset=".285" style="stop-color:#bebebe"/><stop id="stop2827" offset=".405" style="stop-color:#c1c1c1"/><stop id="stop2829" offset=".496" style="stop-color:#bcbcbc"/><stop id="stop2831" offset=".606" style="stop-color:#adadad"/><stop id="stop2833" offset=".725" style="stop-color:#959595"/><stop id="stop2835" offset=".85" style="stop-color:#747474"/><stop id="stop2837" offset=".979" style="stop-color:#494949"/><stop id="stop2839" offset="1" style="stop-color:#414141"/></linearGradient><radialGradient id="aigrd7" cx="17.834" cy="11.487" r="22.709" fx="17.834" fy="11.487" gradientUnits="userSpaceOnUse"><stop id="stop2808" style="stop-color:#fff;stop-opacity:.17525773"/><stop id="stop2810" offset=".882" style="stop-color:#f30;stop-opacity:1"/><stop id="stop2812" offset="1" style="stop-color:#ff5600;stop-opacity:1"/></radialGradient><linearGradient id="lG20210"><stop id="stop2801" style="stop-color:#000;stop-opacity:.51546389"/><stop id="stop2803" offset=".552" style="stop-color:#000;stop-opacity:.14432989"/><stop id="stop2805" offset="1" style="stop-color:#000;stop-opacity:0"/></linearGradient><linearGradient id="lG20393"><stop id="stop2794" offset="0" style="stop-color:#ff1708;stop-opacity:1"/><stop id="stop2796" offset=".412" style="stop-color:#ff4f04;stop-opacity:.43921569"/><stop id="stop2798" offset="1" style="stop-color:#4c3e1c;stop-opacity:.47843137"/></linearGradient><linearGradient id="lG20428"><stop id="stop2789" style="stop-color:#ffb812"/><stop id="stop2791" offset="1" style="stop-color:#ffb812;stop-opacity:0"/></linearGradient><linearGradient id="lG6339"><stop id="stop2784" style="stop-color:#fff"/><stop id="stop2786" offset="1" style="stop-color:#fff;stop-opacity:0"/></linearGradient><linearGradient id="lG2399"><stop id="stop2775" style="stop-color:#929470"/><stop id="stop2777" offset=".265" style="stop-color:#fcffc1"/><stop id="stop2779" offset=".632" style="stop-color:#f3f5ba"/><stop id="stop2781" offset="1" style="stop-color:#929470"/></linearGradient><linearGradient id="lG3175"><stop id="stop2770" style="stop-color:#fffff1"/><stop id="stop2772" offset="1" style="stop-color:#f1f3ff;stop-opacity:0"/></linearGradient><linearGradient id="lG3265"><stop id="stop2761" style="stop-color:#dcd763"/><stop id="stop2763" offset=".265" style="stop-color:#d9bb05"/><stop id="stop2765" offset=".632" style="stop-color:#dcd763"/><stop id="stop2767" offset="1" style="stop-color:#c7a107"/></linearGradient><linearGradient id="lG3311"><stop id="stop2756" style="stop-color:#d6d87b"/><stop id="stop2758" offset="1" style="stop-color:#fbe843"/></linearGradient><linearGradient id="lG3300"><stop id="stop2751" style="stop-color:#4c4428"/><stop id="stop2753" offset="1" style="stop-color:#e7b600;stop-opacity:0"/></linearGradient><linearGradient id="lG3584"><stop id="stop2744" offset="0" style="stop-color:#ff4300;stop-opacity:0"/><stop id="stop2746" offset=".5" style="stop-color:#ff2c00;stop-opacity:.32549018"/><stop id="stop2748" offset="1" style="stop-color:#ff5600;stop-opacity:0"/></linearGradient><linearGradient id="lG3531"><stop id="stop2737" offset="0" style="stop-color:#ab1d04;stop-opacity:1"/><stop id="stop2739" offset=".736" style="stop-color:#ab4704;stop-opacity:1"/><stop id="stop2741" offset="1" style="stop-color:#616471"/></linearGradient></defs><metadata id="metadata7"/><g id="layer1" transform="translate(0,-1004.3622)"><g id="layer1-1" transform="matrix(0.76551132,0,0,0.76551132,15.682475,1006.0323)"><g id="g7594" transform="matrix(0.998698,0,0,0.998698,-342.5411,469.4117)"><path style="fill:#eaece8;fill-opacity:1;stroke:none" id="path7596" d="M -46.5,0.24999997 C -46.5,5.6347763 -50.865224,10 -56.25,10 -61.634776,10 -66,5.6347763 -66,0.24999997 -66,-5.1347763 -61.634776,-9.5 -56.25,-9.5 c 5.384776,0 9.75,4.3652237 9.75,9.74999997 z" transform="matrix(1.386488,0,0,1.386488,444.99,-446.4716)"/><g id="g7598" transform="translate(37.125,-1.625)"><path id="path7600" d="m 323.84614,-456.07802 c 0.0486,0.17562 -0.12591,0.39397 -0.27934,0.59855 -0.20144,0.2686 -0.31042,0.44775 -0.0798,0.67837 0.14329,0.14328 0.57893,0.0158 0.71827,-0.0399 0.3214,-0.12856 0.67358,-0.22953 0.9976,-0.35913 0.24571,-0.0983 0.4292,-0.13723 0.67836,-0.19952 0.28672,-0.0717 0.57153,0.0571 0.67837,0.19952 0.0681,0.0908 -0.46179,0.49026 -0.51875,0.51874 -0.24201,0.12101 -0.47287,0.21798 -0.71827,0.27933 -0.30202,0.0755 -0.57153,0.17815 -0.87788,0.23942 -0.30771,0.0615 -0.52362,0.15456 -0.79808,0.31923 -0.34006,0.20404 -0.62606,0.50635 -0.91778,0.79808 -0.27257,0.27257 -0.36706,0.56686 -0.27933,0.91778 0.0844,0.33751 0.21002,0.457 0.51875,0.51875 0.3433,0.0687 0.51056,-0.0955 0.67836,-0.31923 0.21824,-0.29099 0.30168,-0.66081 0.55865,-0.91778 0.21494,-0.21495 0.36222,-0.4213 0.59856,-0.59856 0.23962,-0.17971 0.42089,-0.27386 0.71827,-0.19952 0.24731,0.0618 0.44872,0.30522 0.71826,0.35914 0.22729,0.0455 0.56158,-0.26084 0.75817,-0.35914 0.0429,-0.0215 0.0798,-0.0532 0.11972,-0.0798 0.20735,-0.13824 0.55041,-0.0798 0.79807,-0.0798 0.26905,0 0.49616,0.12837 0.71826,0.23942 0.26878,0.13438 0.50065,0.12608 0.75817,0.31923 0.27256,0.20441 0.41892,0.35898 0.55866,0.63846 0.13199,0.26397 0.19033,0.42976 0.39904,0.63846 0.22072,0.22072 0.56031,0.36079 0.79806,0.59855 0.14292,0.14291 0.23261,0.53136 0.27934,0.71827 0.0733,0.29311 0.1394,0.59907 0,0.87788 -0.15089,0.30177 -0.33188,0.58396 -0.47885,0.87788 -0.1446,0.28922 -0.54921,0.53162 -0.79807,0.71827 -0.34301,0.25726 -0.75121,0.27237 -1.0774,0.59856 -0.37514,0.37513 -0.41054,0.59585 -0.75818,1.1173 -0.25687,0.38531 0.0488,0.55643 0.35914,0.47885 0.32847,-0.0821 0.63271,-0.15818 0.95769,-0.23943 0.0532,-0.0133 0.10641,-0.0266 0.15961,-0.0399 0.40008,-0.10002 0.71782,-0.41888 1.11731,-0.51875 0.49734,-0.12433 1.54284,0.64638 1.99518,0.91779 0.35667,0.214 -0.0691,0.63308 -0.23942,0.71826 -0.31687,0.15844 -0.63299,0.19952 -0.99759,0.19952 -0.23599,0 -0.49249,-0.0745 -0.71827,-0.11971 -0.30515,-0.061 -0.5178,-0.0606 -0.75817,0.11971 -0.26721,0.20042 -0.2359,0.45813 -0.0798,0.71827 0.15594,0.25989 0.41021,0.4437 0.47884,0.71827 0.0866,0.34645 -0.19337,0.53102 -0.43893,0.67836 -0.24655,0.14793 -0.67219,-0.0399 -0.95769,-0.0399 -0.3617,0 -0.71143,0.18442 -0.99759,0.39904 -0.12967,0.0973 -0.24307,0.61316 -0.27933,0.75817 -0.0133,0.0532 -0.0266,0.10641 -0.0399,0.15962 -0.0973,0.38907 0.0274,0.58727 0.15962,0.91778 0.0957,0.23926 0.32804,0.45656 0.43894,0.67837 0.13845,0.27689 0.22919,0.4594 0.0798,0.75817 -0.12733,0.25465 -0.17554,0.46276 -0.23943,0.71826 -0.0447,0.17901 0.20742,0.65822 0.27933,0.83798 0.14424,0.36058 0.0101,0.42884 -0.23943,0.67837 -0.2208,0.2208 -0.55161,0.2758 -0.79806,0.39903 -0.2292,0.1146 -0.68093,-0.0206 -0.91779,-0.0798 -0.26703,-0.0668 -0.51539,0.0582 -0.71827,0.15962 -0.32213,0.16107 -0.3211,0.31673 -0.55865,0 -0.25189,-0.33585 -0.46083,-0.68615 -0.55865,-1.0774 -0.0133,-0.0532 -0.0266,-0.10641 -0.0399,-0.15962 -0.0668,-0.26738 -0.0399,-0.59608 -0.0399,-0.87788 0,-0.28763 0.0798,-0.54462 0.0798,-0.83798 0,-0.31598 -0.75459,0.2779 -0.95768,0.35914 -0.0941,0.0376 -0.18623,0.0798 -0.27934,0.11971 -0.39873,0.17089 -0.35913,0.53524 -0.35913,0.87788 0,0.34152 0.19951,0.60231 0.19951,0.95769 0,0.34243 -0.40342,0.43894 -0.67835,0.43894 -0.39099,0 -0.5722,-0.45249 -0.83798,-0.71827 -0.25426,-0.25425 -0.68805,-0.53811 -0.83798,-0.83797 -0.21217,-0.42435 -0.28391,-0.66496 0.15961,-0.9976 0.25414,-0.1906 0.60842,-0.22596 0.79808,-0.47884 0.19924,-0.26566 0.48175,-0.63773 0,-0.75817 -0.32828,-0.0821 -0.45563,-0.19618 -0.83798,-0.11971 -0.0665,0.0133 -0.13301,0.0266 -0.19952,0.0399 -0.65946,0.13189 -0.65494,0.0716 -1.27692,-0.23942 -0.44759,-0.2238 -0.60098,-0.56108 -0.91778,-0.87788 -0.29493,-0.29493 -0.46228,-0.69193 -0.55865,-1.0774 -0.0887,-0.3548 -0.19371,-0.69501 -0.27933,-1.0375 -0.0701,-0.28054 -0.0798,-0.62556 -0.0798,-0.91778 0,-0.29704 -0.0798,-0.61345 -0.0798,-0.91779 0,-0.33253 0,-0.66506 0,-0.99759 0,-0.33653 0.0399,-0.63407 0.0399,-0.95769 0,-0.27723 0.0542,-0.61602 0.11971,-0.87789 0.006,-0.0258 0,-0.0532 0,-0.0798 0,-0.34036 0.19708,-0.69223 0.31923,-0.9976 0.10762,-0.26907 0.27463,-0.54927 0.39904,-0.79807 0.13029,-0.26057 0.26091,-0.48091 0.43894,-0.71827 0.1922,-0.25627 0.39689,-0.51616 0.59855,-0.75817 0.34733,-0.41679 0.70836,-0.80669 1.11731,-1.15721 0.23897,-0.20482 0.35656,-0.54674 0.63846,-0.75816 0.34879,-0.2616 0.65243,-0.53921 0.99759,-0.79808 0.2624,-0.1968 0.50187,-0.4241 0.67836,-0.71827 0.14357,-0.23929 0.22463,-0.46405 0.43894,-0.67836 0.0527,-0.0527 0.22985,-0.13487 0.27934,-0.15961 z" style="opacity:.10555552;fill:#787974;fill-opacity:1;fill-rule:evenodd;stroke:none"/><path id="path7602" d="m 334.85956,-450.97035 c -0.38499,0.0925 -1.15273,0.22436 -1.67596,0.11971 -0.40086,-0.0802 -0.41421,-0.30406 -0.79807,0.0798 -0.0266,0.0266 -0.0532,0.0532 -0.0798,0.0798 -0.24233,0.24233 -0.27932,0.27859 -0.27932,0.63846 0,0.2363 0.004,0.4611 -0.0399,0.67836 -0.0467,0.23338 -0.0115,0.59226 0.0399,0.79807 0.0784,0.31372 0.12792,0.53517 0.27932,0.83798 0.12091,0.24181 0.17725,0.43221 0.39904,0.59856 0.288,0.21599 0.68441,0.27376 0.9976,0.39903 0.22083,0.0883 0.59074,0.0399 0.83797,0.0399 0.31364,0 0.35914,0.0355 0.35914,0.39903 0,0.31202 -0.58566,0.74998 -0.75817,1.0375 -0.19089,0.31814 -0.11781,0.56436 0,0.91779 0.0878,0.26347 0.1448,0.5245 0.19951,0.79807 0.057,0.28517 0.13143,0.49056 0.35914,0.71827 0.24219,0.2422 0.68895,-0.0258 0.91778,0.27933 0.11503,0.15336 0.11972,0.40725 0.11972,0.59855 0,0.31727 0.10251,0.46749 0.39903,0.31923 0.26993,-0.13496 0.4726,-0.12467 0.67837,-0.39904 0.19592,-0.26123 0.29408,-0.58817 0.43894,-0.87788 0.12918,-0.25837 0.35001,-0.27932 0.63846,-0.27932 0.26664,0 0.4808,0.0693 0.75817,0 0.40637,-0.1016 0.46832,-0.2289 0.75816,-0.51875 0.36667,-0.36667 0.32315,-0.62199 0.39904,-1.0774 0.0342,-0.20545 -0.0338,-0.45465 -0.0798,-0.63846 -0.0133,-0.0532 -0.0266,-0.10641 -0.0399,-0.15962 -0.0556,-0.22243 -0.54378,-0.23942 -0.71826,-0.23942 -0.38567,0 -0.95765,-0.18953 -1.31683,-0.27933 -0.18343,-0.0458 -0.69207,-0.65216 -0.83797,-0.79807 -0.2109,-0.21089 -0.25241,-0.37116 -0.31923,-0.63846 -0.0823,-0.32931 -0.0384,-0.67226 -0.11971,-0.99759 -0.0932,-0.37293 0.0159,-0.5827 -0.27933,-0.87788 -0.20899,-0.209 -0.34674,-0.49671 -0.39904,-0.75818 -0.0504,-0.25226 -0.28717,-0.53461 -0.47884,-0.67836 -0.14021,-0.10515 -0.15679,-0.0792 -0.35913,-0.11971 z" style="opacity:.18888885;fill:#787974;fill-opacity:1;fill-rule:evenodd;stroke:none"/><path id="path7604" d="m 341.00473,-448.65593 c -0.20686,0.007 -0.41855,0.25893 -0.59856,0.43894 -0.17692,0.17692 -0.11971,0.4801 -0.11971,0.71826 0,0.26057 0.056,0.5433 0.11971,0.79808 0.054,0.21611 0.253,0.49242 0.39904,0.63846 0.22008,0.22008 0.50176,0.34965 0.79807,0.39903 0.38807,0.0647 0.60185,0.11149 0.75818,-0.27932 0.10737,-0.26842 0.15961,-0.45302 0.15961,-0.75817 0,-0.27625 -0.0124,-0.48851 -0.0798,-0.75817 -0.0815,-0.32585 -0.18635,-0.49221 -0.47884,-0.63846 -0.20729,-0.10364 -0.41834,-0.34368 -0.59856,-0.47885 -0.10339,-0.0775 -0.23587,-0.0798 -0.35913,-0.0798 z" style="opacity:.18333327;fill:#787974;fill-opacity:1;fill-rule:evenodd;stroke:none"/><path id="path7606" d="m 328.35524,-436.20598 c 0.21632,-0.14825 0.84563,-0.79382 1.27693,-1.1173 0.0831,-0.0623 0.15961,-0.13301 0.23942,-0.19952 0.43011,-0.35842 0.80496,-0.92811 1.11731,-1.39663 0.49552,-0.74328 0.71315,-1.41096 0.87788,-2.23461 0.20928,-1.0464 0.26214,-0.34748 0.0399,0.31924 -0.0347,0.10405 -0.0532,0.21282 -0.0798,0.31922 -0.10903,0.43615 -0.15211,0.89903 -0.31922,1.31683 -0.22556,0.5639 -0.65123,1.04865 -0.79808,1.63605 -0.0784,0.31342 -0.18502,0.69649 -0.11972,0.95769 0.078,0.31211 0.53278,-0.37711 0.83799,-0.47885 0.4153,-0.13843 0.51874,-0.22895 0.51874,0.23943 0,0.28308 -0.14275,0.67387 -0.19952,0.95769 -0.0979,0.48934 1.28804,0.077 1.59615,0 1.0073,-0.25183 1.69819,-0.59713 2.51394,-1.27692 0.89829,-0.74857 1.64541,-1.5656 2.47402,-2.39423 0.66669,-0.66668 0.98041,-1.08477 0.55866,0.0399 -0.0399,0.10641 -0.0798,0.21282 -0.11971,0.31923 -0.0399,0.10641 -0.0798,0.21282 -0.11971,0.31923 -0.22087,0.58898 -0.62389,1.2406 -1.15721,1.59615 -0.83096,0.55397 -1.36956,1.58261 -2.27451,2.03508 -0.36626,0.18313 -0.74917,0.25488 -1.1173,0.43894 -0.36945,0.18473 0.71851,0.31485 0.91778,0.35914 2.00332,0.44518 -1.62115,0.63846 -2.07499,0.63846 -0.74853,0 -1.12279,-0.15633 -1.71586,0.19951 -0.20269,0.12161 0.94323,0.58769 0.99758,0.59856 0.4676,0.0935 0.88473,0.39904 1.39664,0.39904 0.84991,0 -1.77287,0.26507 -2.51393,0.0798 -0.62118,-0.1553 -1.20981,-0.2825 -1.83557,-0.43895 -0.31755,-0.0794 -0.63616,-0.0305 -0.9178,0.0399 -0.056,0.014 0.0399,0.82339 0.0399,0.91778 0,0.591 -0.15469,1.05225 -0.43894,0.19952 -0.15311,-0.45935 -0.43894,-0.94432 -0.43894,-1.43653 0,-0.31166 -0.41156,0.46894 -0.59855,0.71827 -0.26333,0.3511 -0.78197,0.8539 -0.87788,0.87788 -0.0131,0.003 0.25819,-0.55392 0.35913,-0.95769 0.0759,-0.3034 0.56595,-1.11548 0.23942,-1.19711 -0.3049,-0.0762 -0.72505,-0.0173 -1.0375,-0.0798 -0.46341,-0.0927 -0.96027,-0.18086 -1.39663,-0.39904 -0.84451,-0.42225 -2.16285,-0.81006 -3.07258,-1.0375 -0.0838,-0.0209 -1.45551,-1.49541 -0.15962,-0.19951 0.85544,0.85544 2.19059,1.43653 3.39182,1.43653 0.38491,0 0.95655,-0.14935 1.31682,-0.23942 0.21699,-0.0543 0.51677,-0.38229 0.75817,-0.47885 0.26199,-0.10479 -0.41791,-0.38179 -0.59855,-0.59855 -0.0665,-0.0798 -0.13302,-0.15962 -0.19953,-0.23942 -0.71532,-0.8584 -0.96642,-2.04384 -1.79565,-2.87307 -0.13341,-0.1334 -2.07779,-2.40319 -1.15721,-1.63605 0.95189,0.79324 1.83163,1.49845 2.63364,2.43412 0.41125,0.4798 0.76487,1.10573 1.15721,1.59615 0.39477,0.49348 0.31152,-0.10291 0.19951,-0.43894 -0.24012,-0.72038 -0.1197,-1.72147 -0.1197,-2.47403 0,-0.99806 0.51551,1.02456 0.55865,1.19711 0.12401,0.49605 0.38047,1.14206 0.75816,0.63846 0.39026,-0.52034 0.43894,-0.61871 0.43894,0.0399 0,0.0532 0,0.10641 0,0.15961 0,0.24765 -0.0131,0.53284 0.0399,0.79807 z" style="opacity:.47222218;fill:#f3f4f2;fill-opacity:1;fill-rule:evenodd;stroke:none"/><path id="path7608" d="m 340.04704,-444.98479 c 0.08,0.0851 0.15962,0.37727 0.15962,0.63846 0,0.10627 -0.65983,0.61991 -0.75818,0.71827 -0.19197,0.19196 -0.23069,0.51496 -0.27932,0.75816 -0.0627,0.31332 -0.14128,0.53067 -0.0798,0.83798 0.0521,0.26046 0.16017,0.51987 0.27932,0.75817 0.14338,0.28674 0.35124,0.43104 0.59856,0.67837 0.27549,0.27549 0.61563,0.27362 0.95768,0.35913 0.43482,0.1087 -0.25838,0.523 -0.35913,0.59856 -0.26793,0.20095 -0.5291,0.26013 -0.67836,0.55865 -0.1729,0.3458 0.18476,0.47294 0.39904,0.55865 0.2419,0.0968 0.60668,-0.33006 0.71827,-0.47885 0.15065,-0.20087 0.39904,-0.42712 0.39904,-0.67836 0,-0.24697 0.1197,-0.50826 0.1197,-0.79807 0,-0.27029 0.0614,-0.56478 0.11971,-0.79808 0.0889,-0.35541 0.21725,-0.49656 0.43894,-0.71826 0.17864,-0.17863 0.17417,-0.6202 0.11972,-0.83798 -0.0624,-0.24974 -0.21901,-0.47698 -0.27933,-0.71827 -0.0615,-0.24606 -0.36202,-0.38978 -0.55865,-0.43894 -0.23626,-0.0591 -0.56748,-0.48767 -0.71827,-0.63846 -0.20761,-0.20761 -0.2995,-0.35913 -0.59855,-0.35913 z" style="opacity:.11666661;fill:#787974;fill-opacity:1;fill-rule:evenodd;stroke:none"/><path id="path7610" d="m 322.68884,-446.02226 c -0.009,-0.009 0.0266,0 0,0 z" style="fill:none;stroke:#000;stroke-width:1.0013057px;stroke-linecap:butt;stroke-linejoin:miter;stroke-opacity:1"/><path id="path7612" d="m 327.59708,-455.67899 c 0.17193,-0.0426 0.57166,-0.17284 0.83797,-0.23942 0.34034,-0.0851 0.69744,0.11971 1.0375,0.11971 0.0345,0 0.25527,0.43894 0.63846,0.43894 0.0532,0 0.10641,0 0.15962,0 0.24164,0 0.51173,0.1925 0.67836,0.35914 0.16091,0.1609 0.0136,0.54508 -0.0798,0.63846 -0.25418,0.25417 -0.48157,0.0771 -0.67836,-0.11972 -0.21053,-0.21053 -0.32098,-0.28974 -0.59856,-0.35913 -0.27563,-0.0689 -0.57017,-0.0271 -0.83797,0.0399 -0.32704,0.0818 -0.54193,0.15961 -0.91779,0.15961 -0.12562,0 -0.5121,-0.54536 -0.55866,-0.63846 -0.0821,-0.16419 0.21875,-0.37391 0.31924,-0.39904 z" style="opacity:.2;fill:#938f8b;fill-opacity:1;fill-rule:evenodd;stroke:none"/><path id="path7614" d="m 332.42543,-455.00062 c 0.19753,0.0512 0.64044,0.0394 0.95768,-0.0399 0.35162,-0.0879 0.90828,-0.13206 1.27693,-0.0399 0.22336,0.0558 1.58727,0.32367 0.95768,0.63846 -0.31149,0.15575 -0.64122,0.19319 -0.91778,0.35913 -0.33295,0.19977 0.40229,0.27933 0.55865,0.27933 0.42422,0 0.18044,0.51064 0.0798,0.67836 -0.15693,0.26154 -0.0504,0.66587 0,0.91779 0.0571,0.28533 0.54752,0.23942 0.79807,0.23942 0.34322,0 0.63189,0.0444 0.83798,0.31923 0.18225,0.243 0.43466,0.4874 0.31923,0.71827 -0.11889,0.23778 -0.72141,0.27932 -0.91778,0.27932 -0.15157,0 -0.75039,-0.7629 -0.83799,-0.83798 -0.23047,-0.19755 -0.49986,-0.0147 -0.71825,0.0399 -0.38884,0.0972 -0.67608,-0.39713 -0.9178,-0.59856 -0.26154,-0.21795 -0.42515,-0.53108 -0.55865,-0.79807 -0.16889,-0.33778 0.10385,-0.47885 -0.39903,-0.47885 -0.3123,0 -0.48314,-0.0631 -0.71828,-0.23942 -0.31928,-0.23946 -0.55864,-0.14689 -0.55864,-0.59856 0,-0.39868 0.0217,-0.5158 0.35913,-0.71826 0.10827,-0.065 0.25395,-0.0327 0.39904,-0.11971 z" style="opacity:.28888891;fill:#938f8b;fill-opacity:1;fill-rule:evenodd;stroke:none"/><path id="path7616" d="m 323.87671,-456.18983 c 0.0486,0.17563 -0.12589,0.39398 -0.27933,0.59856 -0.20144,0.2686 -0.31042,0.44774 -0.0798,0.67836 0.14329,0.14329 0.57893,0.0158 0.71827,-0.0399 0.3214,-0.12856 0.67358,-0.22953 0.99759,-0.35914 0.24572,-0.0983 0.42921,-0.13723 0.67837,-0.19952 0.28672,-0.0717 0.57153,0.0571 0.67836,0.19952 0.0681,0.0908 -0.46179,0.49027 -0.51875,0.51875 -0.24201,0.12101 -0.47286,0.21798 -0.71826,0.27933 -0.30202,0.0755 -0.57153,0.17815 -0.87789,0.23942 -0.3077,0.0615 -0.52361,0.15455 -0.79807,0.31923 -0.34006,0.20404 -0.62606,0.50635 -0.91778,0.79807 -0.27258,0.27258 -0.36706,0.56687 -0.27933,0.91779 0.0844,0.33751 0.21002,0.457 0.51874,0.51875 0.34331,0.0687 0.51057,-0.0955 0.67837,-0.31923 0.21824,-0.29099 0.30168,-0.66081 0.55865,-0.91779 0.21494,-0.21494 0.36221,-0.4213 0.59856,-0.59855 0.23961,-0.17971 0.42089,-0.27386 0.71826,-0.19952 0.24732,0.0618 0.44873,0.30522 0.71827,0.35913 0.22729,0.0455 0.56158,-0.26083 0.75817,-0.35913 0.0429,-0.0215 0.0798,-0.0532 0.11972,-0.0798 0.20735,-0.13823 0.55041,-0.0798 0.79807,-0.0798 0.26905,0 0.49616,0.12837 0.71826,0.23943 0.26878,0.13438 0.50064,0.12608 0.75817,0.31922 0.27256,0.20442 0.41891,0.35898 0.55865,0.63846 0.132,0.26398 0.19034,0.42976 0.39905,0.63846 0.22072,0.22073 0.5603,0.3608 0.79806,0.59856 0.14292,0.14291 0.23261,0.53136 0.27934,0.71827 0.0733,0.29311 0.1394,0.59907 0,0.87788 -0.15089,0.30177 -0.33189,0.58395 -0.47885,0.87788 -0.14461,0.28922 -0.54921,0.53161 -0.79808,0.71827 -0.343,0.25726 -0.75121,0.27237 -1.07739,0.59855 -0.37514,0.37514 -0.41054,0.59586 -0.75818,1.11731 -0.25687,0.38531 0.0488,0.55643 0.35914,0.47884 0.32847,-0.0821 0.63271,-0.15818 0.95769,-0.23942 0.0532,-0.0133 0.10641,-0.0266 0.15961,-0.0399 0.40007,-0.10002 0.71782,-0.41888 1.11731,-0.51875 0.49733,-0.12434 1.54284,0.64638 1.99518,0.91778 0.35667,0.214 -0.0691,0.63309 -0.23943,0.71827 -0.31686,0.15844 -0.63298,0.19952 -0.99758,0.19952 -0.23599,0 -0.49249,-0.0746 -0.71827,-0.11971 -0.30515,-0.061 -0.51781,-0.0606 -0.75817,0.11971 -0.26722,0.20041 -0.2359,0.45813 -0.0798,0.71827 0.15594,0.25988 0.4102,0.4437 0.47884,0.71826 0.0866,0.34646 -0.19337,0.53103 -0.43894,0.67837 -0.24654,0.14793 -0.67218,-0.0399 -0.95768,-0.0399 -0.36171,0 -0.71143,0.18442 -0.99759,0.39904 -0.12968,0.0972 -0.24307,0.61316 -0.27933,0.75817 -0.0133,0.0532 -0.0266,0.10641 -0.0399,0.15961 -0.0973,0.38907 0.0274,0.58727 0.15962,0.91779 0.0957,0.23925 0.32804,0.45656 0.43894,0.67836 0.13845,0.2769 0.22919,0.45941 0.0798,0.75817 -0.12733,0.25466 -0.17555,0.46276 -0.23943,0.71827 -0.0447,0.17901 0.20742,0.65821 0.27933,0.83798 0.14423,0.36058 0.0101,0.42884 -0.23942,0.67836 -0.22081,0.22081 -0.55162,0.27581 -0.79808,0.39904 -0.22919,0.11459 -0.68092,-0.0206 -0.91778,-0.0798 -0.26703,-0.0668 -0.51539,0.0582 -0.71827,0.15962 -0.32213,0.16106 -0.32111,0.31673 -0.55865,0 -0.25189,-0.33586 -0.46084,-0.68615 -0.55865,-1.0774 -0.0133,-0.0532 -0.0266,-0.10641 -0.0399,-0.15962 -0.0669,-0.26738 -0.0399,-0.59608 -0.0399,-0.87788 0,-0.28764 0.0798,-0.54462 0.0798,-0.83798 0,-0.31598 -0.75459,0.2779 -0.95769,0.35914 -0.094,0.0376 -0.18622,0.0798 -0.27933,0.11971 -0.39874,0.17088 -0.35913,0.53524 -0.35913,0.87788 0,0.34152 0.19952,0.60231 0.19952,0.95769 0,0.34242 -0.40343,0.43894 -0.67836,0.43894 -0.39099,0 -0.5722,-0.45249 -0.83798,-0.71827 -0.25427,-0.25426 -0.68805,-0.53811 -0.83798,-0.83798 -0.21218,-0.42434 -0.28391,-0.66495 0.15961,-0.99759 0.25414,-0.1906 0.60842,-0.22596 0.79808,-0.47885 0.19924,-0.26565 0.48175,-0.63773 0,-0.75816 -0.32828,-0.0821 -0.45564,-0.19619 -0.83798,-0.11972 -0.0665,0.0133 -0.13301,0.0266 -0.19952,0.0399 -0.65946,0.13189 -0.65494,0.0716 -1.27692,-0.23943 -0.44759,-0.22379 -0.60098,-0.56108 -0.91778,-0.87787 -0.29493,-0.29493 -0.46228,-0.69193 -0.55865,-1.07741 -0.0887,-0.3548 -0.19371,-0.69501 -0.27933,-1.03749 -0.0701,-0.28055 -0.0798,-0.62556 -0.0798,-0.91779 0,-0.29703 -0.0798,-0.61344 -0.0798,-0.91778 0,-0.33253 0,-0.66507 0,-0.9976 0,-0.33652 0.0399,-0.63406 0.0399,-0.95769 0,-0.27723 0.0542,-0.61602 0.11971,-0.87788 0.006,-0.0258 0,-0.0532 0,-0.0798 0,-0.34035 0.19708,-0.69222 0.31923,-0.99759 0.10762,-0.26907 0.27463,-0.54927 0.39904,-0.79807 0.13028,-0.26058 0.26091,-0.48091 0.43893,-0.71827 0.19221,-0.25628 0.3969,-0.51617 0.59856,-0.75817 0.34733,-0.4168 0.70836,-0.80669 1.11731,-1.15721 0.23897,-0.20483 0.35655,-0.54675 0.63846,-0.75817 0.34879,-0.26159 0.65243,-0.5392 0.99759,-0.79807 0.2624,-0.1968 0.50186,-0.42411 0.67837,-0.71827 0.14356,-0.23929 0.22462,-0.46405 0.43893,-0.67836 0.0527,-0.0527 0.22984,-0.13487 0.27933,-0.15962 z" style="opacity:.17777776;fill:url(#radialGradient7778);fill-opacity:1;fill-rule:evenodd;stroke:none"/><path id="path7618" d="m -824.73115,649.36853 c 0,17.59834 -14.26627,31.86461 -31.86461,31.86461 -17.59834,0 -31.86462,-14.26627 -31.86462,-31.86461 0,-17.59834 14.26628,-31.86461 31.86462,-31.86461 17.59834,0 31.86461,14.26627 31.86461,31.86461 z" transform="matrix(0.02128891,0,0,0.02128891,345.1547,-457.7716)" style="opacity:.61666667;fill:#fff;fill-opacity:1;stroke:none"/><path id="path7620" d="m -824.73115,649.36853 c 0,17.59834 -14.26627,31.86461 -31.86461,31.86461 -17.59834,0 -31.86462,-14.26627 -31.86462,-31.86461 0,-17.59834 14.26628,-31.86461 31.86462,-31.86461 17.59834,0 31.86461,14.26627 31.86461,31.86461 z" transform="matrix(0.01127061,0,0,0.01127061,330.388,-456.653)" style="opacity:.54444442;fill:#fff;fill-opacity:1;stroke:none"/><path id="path7622" d="m -824.73115,649.36853 c 0,17.59834 -14.26627,31.86461 -31.86461,31.86461 -17.59834,0 -31.86462,-14.26627 -31.86462,-31.86461 0,-17.59834 14.26628,-31.86461 31.86462,-31.86461 17.59834,0 31.86461,14.26627 31.86461,31.86461 z" transform="matrix(0.02128891,0,0,0.02128891,354.9312,-458.5298)" style="opacity:.54444442;fill:#c2c3be;fill-opacity:1;stroke:none"/><path id="path7624" d="m -824.73115,649.36853 c 0,17.59834 -14.26627,31.86461 -31.86461,31.86461 -17.59834,0 -31.86462,-14.26627 -31.86462,-31.86461 0,-17.59834 14.26628,-31.86461 31.86462,-31.86461 17.59834,0 31.86461,14.26627 31.86461,31.86461 z" transform="matrix(0.02128891,0,0,0.02128891,349.8235,-448.3144)" style="opacity:.56666667;fill:#c2c3be;fill-opacity:1;stroke:none"/><path id="path7626" d="m -824.73115,649.36853 c 0,17.59834 -14.26627,31.86461 -31.86461,31.86461 -17.59834,0 -31.86462,-14.26627 -31.86462,-31.86461 0,-17.59834 14.26628,-31.86461 31.86462,-31.86461 17.59834,0 31.86461,14.26627 31.86461,31.86461 z" transform="matrix(0.01377519,0,0,0.01377519,347.8565,-453.491)" style="opacity:.61666667;fill:#fff;fill-opacity:1;stroke:none"/><path id="path7628" d="m -824.73115,649.36853 c 0,17.59834 -14.26627,31.86461 -31.86461,31.86461 -17.59834,0 -31.86462,-14.26627 -31.86462,-31.86461 0,-17.59834 14.26628,-31.86461 31.86462,-31.86461 17.59834,0 31.86461,14.26627 31.86461,31.86461 z" transform="matrix(0.01127061,0,0,0.01127061,337.4909,-441.33)" style="opacity:.61666667;fill:#fff;fill-opacity:1;stroke:none"/><path id="path7630" d="m -824.73115,649.36853 c 0,17.59834 -14.26627,31.86461 -31.86461,31.86461 -17.59834,0 -31.86462,-14.26627 -31.86462,-31.86461 0,-17.59834 14.26628,-31.86461 31.86462,-31.86461 17.59834,0 31.86461,14.26627 31.86461,31.86461 z" transform="matrix(0.01377519,0,0,0.01377519,346.1806,-447.5852)" style="opacity:.61666667;fill:#fff;fill-opacity:1;stroke:none"/><path id="path7632" d="m -824.73115,649.36853 c 0,17.59834 -14.26627,31.86461 -31.86461,31.86461 -17.59834,0 -31.86462,-14.26627 -31.86462,-31.86461 0,-17.59834 14.26628,-31.86461 31.86462,-31.86461 17.59834,0 31.86461,14.26627 31.86461,31.86461 z" transform="matrix(0.01377519,0,0,0.01377519,351.368,-458.9977)" style="opacity:.61666667;fill:#fff;fill-opacity:1;stroke:none"/><path id="path7634" d="m -824.73115,649.36853 c 0,17.59834 -14.26627,31.86461 -31.86461,31.86461 -17.59834,0 -31.86462,-14.26627 -31.86462,-31.86461 0,-17.59834 14.26628,-31.86461 31.86462,-31.86461 17.59834,0 31.86461,14.26627 31.86461,31.86461 z" transform="matrix(0.01377519,0,0,0.01377519,348.3353,-458.1996)" style="opacity:.61666667;fill:#fff;fill-opacity:1;stroke:none"/><path id="path7636" d="m -824.73115,649.36853 c 0,17.59834 -14.26627,31.86461 -31.86461,31.86461 -17.59834,0 -31.86462,-14.26627 -31.86462,-31.86461 0,-17.59834 14.26628,-31.86461 31.86462,-31.86461 17.59834,0 31.86461,14.26627 31.86461,31.86461 z" transform="matrix(0.01377519,0,0,0.01377519,349.5325,-462.6689)" style="opacity:.61666667;fill:#fff;fill-opacity:1;stroke:none"/><path id="path7638" d="m -824.73115,649.36853 c 0,17.59834 -14.26627,31.86461 -31.86461,31.86461 -17.59834,0 -31.86462,-14.26627 -31.86462,-31.86461 0,-17.59834 14.26628,-31.86461 31.86462,-31.86461 17.59834,0 31.86461,14.26627 31.86461,31.86461 z" transform="matrix(0.01377519,0,0,0.01377519,340.6738,-449.4208)" style="opacity:.61666667;fill:#fff;fill-opacity:1;stroke:none"/><path id="path7640" d="m 328.31362,-435.94304 c 0.20049,-0.13569 0.7838,-0.72662 1.18356,-1.02271 0.077,-0.0571 0.14794,-0.12175 0.22192,-0.18263 0.39866,-0.32808 0.74611,-0.84954 1.03562,-1.2784 0.45929,-0.68036 0.66102,-1.29151 0.81369,-2.04542 0.19399,-0.95783 0.24299,-0.31807 0.037,0.2922 -0.0322,0.0953 -0.0493,0.1948 -0.074,0.29221 -0.10106,0.39921 -0.14098,0.82291 -0.29589,1.20534 -0.20907,0.51616 -0.60361,0.95987 -0.73973,1.49755 -0.0726,0.28688 -0.17148,0.63753 -0.11095,0.87661 0.0723,0.28568 0.49382,-0.34519 0.77671,-0.43831 0.38495,-0.12671 0.48082,-0.20957 0.48082,0.21916 0,0.25912 -0.13232,0.61682 -0.18493,0.87661 -0.0907,0.44791 1.19386,0.0705 1.47945,0 0.93365,-0.23051 1.57404,-0.54658 2.33015,-1.16882 0.83261,-0.6852 1.52511,-1.43306 2.29315,-2.19153 0.61795,-0.61025 0.90873,-0.99294 0.51781,0.0365 -0.037,0.0974 -0.074,0.19481 -0.11096,0.29221 -0.037,0.0974 -0.074,0.1948 -0.11095,0.2922 -0.20473,0.53913 -0.57829,1.13557 -1.07261,1.46102 -0.77021,0.50708 -1.26944,1.44864 -2.10823,1.8628 -0.33947,0.16763 -0.6944,0.2333 -1.03562,0.40179 -0.34243,0.16909 0.66599,0.28819 0.85069,0.32873 1.85687,0.40749 -1.50262,0.58441 -1.92329,0.58441 -0.6938,0 -1.04071,-0.14309 -1.59041,0.18263 -0.18787,0.11131 0.87427,0.53793 0.92465,0.54788 0.43341,0.0856 0.82005,0.36525 1.29453,0.36525 0.78777,0 -1.64325,0.24264 -2.33015,0.0731 -0.57575,-0.14215 -1.12135,-0.25859 -1.70136,-0.40179 -0.29434,-0.0727 -0.58965,-0.0279 -0.85069,0.0365 -0.0519,0.0128 0.037,0.75369 0.037,0.84009 0,0.54096 -0.1434,0.96316 -0.40685,0.18263 -0.14193,-0.42047 -0.40686,-0.86438 -0.40686,-1.31492 0,-0.28528 -0.38147,0.42924 -0.55479,0.65746 -0.24407,0.32138 -0.7248,0.78161 -0.8137,0.80356 -0.0121,0.003 0.23931,-0.50702 0.33287,-0.87662 0.0703,-0.27771 0.52458,-1.02104 0.22192,-1.09576 -0.28262,-0.0698 -0.67204,-0.0159 -0.96164,-0.0731 -0.42953,-0.0848 -0.89007,-0.16554 -1.29453,-0.36525 -0.78276,-0.38651 -2.00472,-0.74149 -2.84795,-0.94967 -0.0777,-0.0192 -1.3491,-1.36881 -0.14795,-0.18262 0.7929,0.78302 2.03043,1.31492 3.14385,1.31492 0.35677,0 0.88662,-0.13671 1.22055,-0.21916 0.20112,-0.0496 0.47898,-0.34992 0.70274,-0.4383 0.24283,-0.0959 -0.38736,-0.34947 -0.5548,-0.54788 -0.0616,-0.0731 -0.12328,-0.14611 -0.18493,-0.21916 -0.66303,-0.78573 -0.89577,-1.87081 -1.66438,-2.62984 -0.12365,-0.12211 -1.92588,-2.19974 -1.07261,-1.49755 0.8823,0.72609 1.69774,1.3716 2.4411,2.22806 0.38119,0.43918 0.70895,1.01212 1.07261,1.46103 0.36592,0.45169 0.28875,-0.0942 0.18493,-0.40178 -0.22258,-0.6594 -0.11096,-1.57575 -0.11096,-2.26459 0,-0.91357 0.47782,0.93782 0.51781,1.09577 0.11494,0.45405 0.35266,1.04537 0.70274,0.58441 0.36173,-0.47629 0.40685,-0.56634 0.40685,0.0365 0,0.0487 0,0.0974 0,0.1461 0,0.22669 -0.0122,0.48773 0.037,0.73051 z" style="fill:#fff;fill-opacity:1;fill-rule:evenodd;stroke:none"/><g style="opacity:.31666661" id="g7642" transform="translate(461.6971,-517.2066)"><path style="fill:#a3a4a0;fill-opacity:1;stroke:none" id="path7644" d="m -125.68823,68.682877 c 0,0.878679 -0.79146,1.59099 -1.76777,1.59099 -0.97631,0 -1.76777,-0.712311 -1.76777,-1.59099 0,-0.87868 0.79146,-1.590991 1.76777,-1.590991 0.97631,0 1.76777,0.712311 1.76777,1.590991 z" transform="matrix(1,0,0,1.055556,-0.176777,-4.08088)"/><path style="fill:#a3a4a0;fill-opacity:1;stroke:none" id="path7646" d="m -125.68823,68.682877 c 0,0.878679 -0.79146,1.59099 -1.76777,1.59099 -0.97631,0 -1.76777,-0.712311 -1.76777,-1.59099 0,-0.87868 0.79146,-1.590991 1.76777,-1.590991 0.97631,0 1.76777,0.712311 1.76777,1.590991 z" transform="matrix(1,0,0,1.055556,1.767771,-0.103439)"/><path style="fill:#a3a4a0;fill-opacity:1;stroke:none" id="path7648" d="m -125.68823,68.682877 c 0,0.878679 -0.79146,1.59099 -1.76777,1.59099 -0.97631,0 -1.76777,-0.712311 -1.76777,-1.59099 0,-0.87868 0.79146,-1.590991 1.76777,-1.590991 0.97631,0 1.76777,0.712311 1.76777,1.590991 z" transform="matrix(0.65,0,0,0.686111,-40.27856,25.21363)"/><path style="fill:#a3a4a0;fill-opacity:1;stroke:none" id="path7651" d="m -125.68823,68.682877 c 0,0.878679 -0.79146,1.59099 -1.76777,1.59099 -0.97631,0 -1.76777,-0.712311 -1.76777,-1.59099 0,-0.87868 0.79146,-1.590991 1.76777,-1.590991 0.97631,0 1.76777,0.712311 1.76777,1.590991 z" transform="matrix(1.55,0,0,1.636111,63.02973,-45.53725)"/><path style="fill:#a3a4a0;fill-opacity:1;stroke:none" id="path7653" d="m -125.68823,68.682877 c 0,0.878679 -0.79146,1.59099 -1.76777,1.59099 -0.97631,0 -1.76777,-0.712311 -1.76777,-1.59099 0,-0.87868 0.79146,-1.590991 1.76777,-1.590991 0.97631,0 1.76777,0.712311 1.76777,1.590991 z" transform="matrix(1.8,0,0,1.9,89.14849,-57.50565)"/><path style="fill:#a3a4a0;fill-opacity:1;stroke:none" id="path7655" d="m -125.68823,68.682877 c 0,0.878679 -0.79146,1.59099 -1.76777,1.59099 -0.97631,0 -1.76777,-0.712311 -1.76777,-1.59099 0,-0.87868 0.79146,-1.590991 1.76777,-1.590991 0.97631,0 1.76777,0.712311 1.76777,1.590991 z" transform="matrix(1.4,0,0,1.477778,42.32034,-25.70873)"/><path style="fill:#a3a4a0;fill-opacity:1;stroke:none" id="path7657" d="m -125.68823,68.682877 c 0,0.878679 -0.79146,1.59099 -1.76777,1.59099 -0.97631,0 -1.76777,-0.712311 -1.76777,-1.59099 0,-0.87868 0.79146,-1.590991 1.76777,-1.590991 0.97631,0 1.76777,0.712311 1.76777,1.590991 z" transform="matrix(1.4,0,0,1.477778,40.72936,-32.28484)"/></g><path id="path7659" d="m -161.83907,69.52256 c 0,0.366117 -0.2968,0.662913 -0.66291,0.662913 -0.36612,0 -0.66292,-0.296796 -0.66292,-0.662913 0,-0.366116 0.2968,-0.662912 0.66292,-0.662912 0.36611,0 0.66291,0.296796 0.66291,0.662912 z" transform="translate(490.9094,-504.2577)" style="fill:#fff;fill-opacity:1;stroke:none"/></g><path style="fill:none;stroke:#888a85;stroke-width:.7221877;stroke-miterlimit:4;stroke-opacity:1;stroke-dasharray:none;stroke-dashoffset:0" id="path7661" d="M -46.5,0.24999997 C -46.5,5.6347763 -50.865224,10 -56.25,10 -61.634776,10 -66,5.6347763 -66,0.24999997 -66,-5.1347763 -61.634776,-9.5 -56.25,-9.5 c 5.384776,0 9.75,4.3652237 9.75,9.74999997 z" transform="matrix(1.386488,0,0,1.386488,445.0082,-446.3649)"/><path style="fill:none;stroke:#fff;stroke-width:.76089418;stroke-linecap:square;stroke-linejoin:miter;stroke-miterlimit:4;stroke-opacity:1;stroke-dasharray:none" id="path7663" d="m -22.5,-17.5 c 0,5.246705 -4.253295,9.5 -9.5,9.5 -5.246705,0 -9.5,-4.253295 -9.5,-9.5 0,-5.246705 4.253295,-9.5 9.5,-9.5 5.246705,0 9.5,4.253295 9.5,9.5 z" transform="matrix(0.778069,-1.061297,1.061298,0.778071,410.4716,-466.346)"/></g></g><g id="g3397" transform="matrix(0.93551831,0,0,0.93551831,-5.4800873,1005.5951)"><path style="fill:url(#radialGradient2996)" id="path2891" d="m 44.210471,16.545496 c 0,9.062868 -9.048536,16.409773 -20.21047,16.409773 -11.161935,0 -20.2104714,-7.346905 -20.2104714,-16.409773 0,-9.0628668 9.0485364,-16.40977241 20.2104714,-16.40977241 11.161934,0 20.21047,7.34690561 20.21047,16.40977241 z"/><path style="opacity:.8;fill:url(#radialGradient2993)" id="path2893" d="m 41.53609,42.999977 c 0,2.692387 -7.40346,4.874998 -16.53609,4.874998 -9.13263,0 -16.5360902,-2.182611 -16.5360902,-4.874998 0,-2.692387 7.4034602,-4.874998 16.5360902,-4.874998 9.13263,0 16.53609,2.182611 16.53609,4.874998 z"/><path style="fill:url(#linearGradient2990);stroke:#565656;stroke-width:1" id="path2895" d="m 21.0022,40.502514 0,1.383004 c 0,1.383004 1.41073,2.612342 2.9978,2.612342 1.587071,0 2.997799,-1.229338 2.997799,-2.612342 l 0,-1.383004 -5.995599,0 z"/><path style="fill:#aeae57;stroke:url(#linearGradient2987);stroke-width:2" id="path2897" d="m 23.835146,28.498489 c -3.26679,-0.0079 -6.971431,0.956981 -4.963971,2.781027 -0.497724,0.201695 -1.209183,0.652152 -1.125314,1.706225 0.04631,0.550494 0.627148,0.88841 1.421489,1.136517 -0.900504,0.634496 -1.4735,1.304983 -1.421489,1.923336 0.04576,0.544076 0.61438,0.916665 1.392479,1.165659 -0.877813,0.627195 -1.443778,1.313462 -1.392479,1.923337 0.0784,0.932091 2.079601,1.97616 6.412913,1.855912 3.119933,-0.08543 5.873101,-0.647189 6.090386,-1.855912 0.08532,-0.474625 -0.301362,-0.91747 -0.899309,-1.311366 0.447626,-0.453222 0.761216,-0.912917 0.725249,-1.340508 -0.04598,-0.546638 -0.607907,-0.917007 -1.392478,-1.165658 0.877813,-0.627195 1.443777,-1.313462 1.392478,-1.923336 -0.04598,-0.54664 -0.607907,-0.887866 -1.392478,-1.136518 0.88828,-0.630582 1.444108,-1.309539 1.392478,-1.923337 -0.05739,-0.682277 -3.169609,-1.827935 -6.239954,-1.835378 z"/><path style="fill:url(#linearGradient2982);stroke:url(#linearGradient2984);stroke-width:.08828904" id="path2899" d="m 30.173604,39.09069 c -0.217286,1.208725 -3.292412,1.890831 -8.214327,1.643249 -3.117187,-0.1568 -3.29556,-1.032919 -3.078276,-2.241643 0.217286,-1.208726 2.923176,-2.055679 6.039934,-1.890522 3.116758,0.165157 5.469953,1.280192 5.252669,2.488916 z"/><path style="fill:url(#linearGradient2977);stroke:url(#linearGradient2979);stroke-width:.08828909" id="path2901" d="m 29.994936,36.439584 c 0.114839,1.365262 -2.552269,3.063723 -5.957153,3.79362 -3.404884,0.729897 -6.258183,0.214832 -6.373022,-1.150429 -0.114839,-1.365262 2.552269,-3.063723 5.957153,-3.79362 3.404884,-0.729897 6.258183,-0.214832 6.373022,1.150429 l 0,0 z"/><path style="fill:url(#linearGradient2972);stroke:url(#linearGradient2974);stroke-width:.08828909" id="path2903" d="m 29.994936,33.364031 c 0.114839,1.365262 -2.552269,3.063723 -5.957153,3.79362 -3.404884,0.729897 -6.258183,0.214832 -6.373022,-1.150429 -0.114839,-1.365262 2.552269,-3.063723 5.957153,-3.79362 3.404884,-0.729897 6.258183,-0.214832 6.373022,1.150429 l 0,0 z"/><path style="fill:url(#linearGradient2967);stroke:url(#linearGradient2969);stroke-width:.08828908" id="path2905" d="m 29.95391,30.45333 c 0,1.36942 -2.512998,2.89925 -5.916126,3.628771 -3.403128,0.729521 -6.258242,0.214128 -6.373022,-1.150429 -0.11478,-1.364557 2.212069,-2.956163 5.617159,-3.1416 3.432075,-0.186903 6.671989,-0.04364 6.671989,0.663258 z"/><path style="fill:#fff" id="path2907" d="m 21.495434,35.516215 c 0,0.598253 -0.482791,1.083232 -1.078344,1.083232 -0.595554,0 -1.078345,-0.484979 -1.078345,-1.083232 0,-0.598253 0.482791,-1.083233 1.078345,-1.083233 0.595553,0 1.078344,0.48498 1.078344,1.083233 z"/><path style="fill:#000;fill-opacity:.23391807;fill-rule:evenodd" id="path2909" d="m 18.722092,34.171692 c 3.357318,0.501416 6.902552,-0.03246 9.764259,-1.895762 0.802402,-0.522457 0.923091,-1.119601 1.292329,-1.586673 -1.40857,1.1196 -4.971021,4.134963 -11.056588,3.482435 z"/><path style="fill:#fff" id="path2911" d="m 21.495434,38.504493 c 0,0.598253 -0.482791,1.083232 -1.078344,1.083232 -0.595554,0 -1.078345,-0.484979 -1.078345,-1.083232 0,-0.598253 0.482791,-1.083233 1.078345,-1.083233 0.595553,0 1.078344,0.48498 1.078344,1.083233 z"/><path style="fill:#000;fill-opacity:.23391807;fill-rule:evenodd" id="path2913" d="m 18.84517,40.271106 c 3.357319,0.501415 6.902552,-0.03246 9.764259,-1.895763 0.802403,-0.522456 0.923092,-1.119599 1.292329,-1.586672 -1.408569,1.119599 -4.97102,4.134962 -11.056588,3.482435 z"/><path style="fill:#000;fill-opacity:.23391807;fill-rule:evenodd" id="path2915" d="m 18.865684,37.180187 c 3.357318,0.501416 6.902551,-0.03246 9.764258,-1.895763 0.802403,-0.522456 0.923092,-1.119599 1.29233,-1.586672 -1.40857,1.119599 -4.971021,4.134962 -11.056588,3.482435 z"/><path style="fill:url(#linearGradient2957);stroke:url(#linearGradient2959);stroke-width:.08828903" id="path2917" d="m 18.455672,30.967846 c 0,-0.783415 1.502387,-1.72053 5.295422,-1.668083 3.514168,0.04859 5.829116,0.886614 5.829116,2.140524 0,1.227316 -3.072688,2.048051 -6.348862,1.883507 -3.276173,-0.164544 -4.775676,-1.128632 -4.775676,-2.355948 z"/><path style="fill:url(#radialGradient2952);stroke:url(#linearGradient2954);stroke-width:.98750001" id="path2919" d="m 24,2.4934387 c -7.465638,0 -13.52799,5.9144368 -13.52799,13.1979183 0,7.466149 5.479974,8.293052 5.479974,11.044668 0,3.232977 3.212906,6.899082 8.495922,6.766744 5.617685,-0.140719 7.936039,-3.329266 7.936039,-6.766744 0,-2.938853 5.144044,-3.017226 5.144044,-11.044668 C 37.527989,8.4078755 31.465638,2.4934387 24,2.4934387 z"/><path style="fill:none;stroke:url(#linearGradient2949);stroke-width:.92033798" id="path2921" d="m 24,3.5480659 c -6.957882,0 -12.607919,5.5121823 -12.607919,12.3002971 0,6.958358 5.107268,7.729022 5.107268,10.293494 0,3.013096 2.994388,6.429859 7.918095,6.306522 5.235612,-0.13115 7.39629,-3.102835 7.39629,-6.306522 0,-2.738974 4.794185,-2.812018 4.794185,-10.293494 C 36.607919,9.0602482 30.957882,3.5480659 24,3.5480659 z"/><path style="fill:url(#linearGradient2946)" id="path2923" d="m 29.53101,19.070048 c 0.293196,0.09663 0.48866,0.386524 0.390927,0.676416 l -3.616075,10.726009 c -0.09773,0.289892 -0.390927,0.483153 -0.684123,0.386523 -0.293194,-0.09663 -0.488657,-0.386523 -0.390926,-0.676415 l 3.616075,-10.726009 c 0.09773,-0.289892 0.390928,-0.483154 0.684122,-0.386524 z"/><path style="fill:url(#linearGradient2943)" id="path2925" d="m 18.473303,19.185915 c -0.293196,0.09663 -0.48866,0.386524 -0.390927,0.676416 l 3.616075,10.726009 c 0.09773,0.289893 0.390927,0.483154 0.684123,0.386523 0.293194,-0.09663 0.488658,-0.386523 0.390926,-0.676414 l -3.616075,-10.72601 c -0.09773,-0.289892 -0.390928,-0.483154 -0.684122,-0.386524 z"/><path style="fill:#ff4600;fill-opacity:1;stroke:url(#linearGradient2940);stroke-width:.2" id="path2927" d="m 18.569826,19.116755 c -0.230541,0.03899 -0.411146,0.2175 -0.450665,0.44543 -0.03952,0.227929 0.07064,0.455721 0.274884,0.568408 0,0 1.727083,1.001899 3.984375,1.506274 2.257291,0.504376 5.145844,0.537093 7.324218,-1.564207 0.164293,-0.128875 0.240462,-0.338718 0.196543,-0.541475 -0.04392,-0.202757 -0.200327,-0.363351 -0.403592,-0.414393 -0.203265,-0.05104 -0.418222,0.0163 -0.554669,0.173764 -1.828628,1.763927 -4.260786,1.765438 -6.328125,1.303506 -2.06734,-0.461932 -3.66211,-1.390407 -3.66211,-1.390407 -0.111969,-0.07396 -0.247434,-0.104868 -0.380859,-0.0869 z"/><path style="opacity:.5977654;fill:url(#linearGradient2937)" id="path2929" d="m 24.306505,5.1682019 c -5.978176,0 -10.828873,3.9848174 -10.828873,8.8924001 0,1.960052 0.933021,3.676289 2.243551,5.146519 1.481923,0.625458 3.096028,1.074904 4.875985,1.074904 5.978176,0 10.828871,-3.984816 10.828873,-8.892402 0,-1.9718701 -0.948528,-3.7041538 -2.273465,-5.1790881 -1.47501,-0.6180475 -3.077416,-1.0423331 -4.846071,-1.042333 z"/></g></g></svg>