<svg xmlns="http://www.w3.org/2000/svg" xmlns:xlink="http://www.w3.org/1999/xlink" id="svg2820" width="48" height="48" version="1.0"><metadata id="metadata290"/><defs id="defs2822"><linearGradient id="linearGradient5060"><stop id="stop5062" offset="0"/><stop id="stop5064" offset="1" style="stop-opacity:0"/></linearGradient><linearGradient id="linearGradient3104"><stop id="stop3106" offset="0" style="stop-color:#a0a0a0"/><stop id="stop3108" offset="1" style="stop-color:#c8c8c8"/></linearGradient><linearGradient id="linearGradient2670" x1="9" x2="9" y1="29.057" y2="26.03" gradientTransform="matrix(.63801 -.64114 .85963 .85535 -3.6613 16.731)" gradientUnits="userSpaceOnUse"><stop id="stop2607" offset="0" style="stop-color:#ece5a5"/><stop id="stop2609" offset="1" style="stop-color:#fcfbf2"/></linearGradient><linearGradient id="linearGradient2673" x1="5.518" x2="9.522" y1="37.372" y2="41.392" gradientTransform="matrix(.56036 .024186 .024156 .55967 19.547 13.104)" gradientUnits="userSpaceOnUse"><stop id="stop2613" offset="0" style="stop-color:#dbce48"/><stop id="stop2615" offset="1" style="stop-color:#c5b625"/></linearGradient><linearGradient id="linearGradient2676" x1="30.038" x2="30.038" y1="24.99" y2="30" gradientTransform="matrix(.63801 -.64114 .85963 .85535 -2.3288 15.392)" gradientUnits="userSpaceOnUse"><stop id="stop2599" offset="0" style="stop-color:#b1b1b1"/><stop id="stop2601" offset=".5" style="stop-color:#fff"/><stop id="stop2603" offset="1" style="stop-color:#8f8f8f"/></linearGradient><linearGradient id="linearGradient2679" x1="30.038" x2="30.038" y1="24.99" y2="30" gradientTransform="matrix(.63801 -.64114 .85963 .85535 -2.1461 15.208)" gradientUnits="userSpaceOnUse"><stop id="stop2591" offset="0" style="stop-color:#565656"/><stop id="stop2593" offset=".5" style="stop-color:#9a9a9a"/><stop id="stop2595" offset="1" style="stop-color:#545454"/></linearGradient><linearGradient id="linearGradient2682" x1="30.038" x2="30.038" y1="24.99" y2="30" gradientTransform="matrix(.63801 -.64114 .85963 .85535 -2.9668 16.033)" gradientUnits="userSpaceOnUse"><stop id="stop2583" offset="0" style="stop-color:#b1b1b1"/><stop id="stop2585" offset=".5" style="stop-color:#fff"/><stop id="stop2587" offset="1" style="stop-color:#8f8f8f"/></linearGradient><linearGradient id="linearGradient2685" x1="30.038" x2="30.038" y1="24.99" y2="30" gradientTransform="matrix(.63801 -.64114 .85963 .85535 -2.7841 15.849)" gradientUnits="userSpaceOnUse"><stop id="stop2575" offset="0" style="stop-color:#565656"/><stop id="stop2577" offset=".5" style="stop-color:#9a9a9a"/><stop id="stop2579" offset="1" style="stop-color:#545454"/></linearGradient><linearGradient id="linearGradient2688" x1="30.038" x2="30.038" y1="24.99" y2="30" gradientTransform="matrix(.63801 -.64114 .85963 .85535 -3.6017 16.671)" gradientUnits="userSpaceOnUse"><stop id="stop2567" offset="0" style="stop-color:#b1b1b1"/><stop id="stop2569" offset=".5" style="stop-color:#fff"/><stop id="stop2571" offset="1" style="stop-color:#8f8f8f"/></linearGradient><linearGradient id="linearGradient2691" x1="30.038" x2="30.038" y1="24.99" y2="30" gradientTransform="matrix(.63801 -.64114 .85963 .85535 -3.419 16.487)" gradientUnits="userSpaceOnUse"><stop id="stop2559" offset="0" style="stop-color:#565656"/><stop id="stop2561" offset=".5" style="stop-color:#9a9a9a"/><stop id="stop2563" offset="1" style="stop-color:#545454"/></linearGradient><linearGradient id="linearGradient2697" x1="23.576" x2="23.576" y1="25.357" y2="31.211" gradientTransform="matrix(.65657 -.65979 .73452 .73087 -1.013 19.863)" gradientUnits="userSpaceOnUse"><stop id="stop2541" offset="0" style="stop-color:#181818"/><stop id="stop2543" offset=".135" style="stop-color:#dbdbdb"/><stop id="stop2545" offset=".202" style="stop-color:#a4a4a4"/><stop id="stop2547" offset=".27" style="stop-color:#fff"/><stop id="stop2549" offset=".447" style="stop-color:#8d8d8d"/><stop id="stop2551" offset=".571" style="stop-color:#959595"/><stop id="stop2553" offset=".72" style="stop-color:#cecece"/><stop id="stop2555" offset="1" style="stop-color:#181818"/></linearGradient><linearGradient id="linearGradient2973" x1="-60.97" x2="-60.908" y1="13.668" y2="114.54" gradientTransform="matrix(.45037 .00027173 -.00027421 .44630 46.808 -6.9909)" gradientUnits="userSpaceOnUse"><stop id="stop3828" offset="0" style="stop-color:#f4f4f4"/><stop id="stop3604" offset="1" style="stop-color:#dbdbdb"/></linearGradient><linearGradient id="linearGradient2975" x1="11.536" x2="11.536" y1="44.952" y2="-1.004" gradientTransform="translate(5e-7 .047615)" gradientUnits="userSpaceOnUse" xlink:href="#linearGradient3104"/><radialGradient id="radialGradient2978" cx="605.71" cy="486.65" r="117.14" gradientTransform="matrix(.022892 0 0 .012353 26.354 38.471)" gradientUnits="userSpaceOnUse" xlink:href="#linearGradient5060"/><radialGradient id="radialGradient2981" cx="605.71" cy="486.65" r="117.14" gradientTransform="matrix(-.022892 0 0 .012353 21.646 38.471)" gradientUnits="userSpaceOnUse" xlink:href="#linearGradient5060"/><linearGradient id="linearGradient2984" x1="302.86" x2="302.86" y1="366.65" y2="609.51" gradientTransform="matrix(.066893 0 0 .012353 -.17722 38.471)" gradientUnits="userSpaceOnUse"><stop id="stop5050" offset="0" style="stop-opacity:0"/><stop id="stop5056" offset=".5"/><stop id="stop5052" offset="1" style="stop-opacity:0"/></linearGradient><linearGradient id="linearGradient3781" x1="22.004" x2="22.004" y1="44.854" y2="3.072" gradientUnits="userSpaceOnUse" xlink:href="#linearGradient3104"/></defs><rect id="rect3706" width="32.3" height="3" x="7.85" y="43" style="opacity:.40206;fill:url(#linearGradient2984)"/><path id="path3708" d="m7.85 43v3c-1.1789 0.006-2.85-0.672-2.85-1.5s1.3156-1.5 2.85-1.5z" style="opacity:.40206;fill:url(#radialGradient2981)"/><path id="path3710" d="m40.15 43v3c1.179 0.006 2.85-0.672 2.85-1.5s-1.316-1.5-2.85-1.5z" style="opacity:.40206;fill:url(#radialGradient2978)"/><path id="path2855" d="m7.5 3.5c8.522 0.0051 24.478-0.0051 33 0 0.075 1.6058 0.924 38.198 0.999 41-11.666-0.007-23.333-0.014-34.999-0.021 0.0918-3.147 0.9082-39.567 1-40.979z" style="stroke-linejoin:round;stroke:url(#linearGradient2975);stroke-linecap:round;fill:url(#linearGradient2973)"/><path id="path5685" d="m12.688 4.2499l-0.438 39.5" style="opacity:.5907;stroke-linejoin:round;fill-rule:evenodd;stroke:#f6abab;stroke-linecap:round;stroke-width:.5;fill:#80b3ff"/><path id="path6656" d="m40.057 9.875l-32.18-0.1845" style="opacity:.43721;stroke-linejoin:round;fill-rule:evenodd;stroke:#80b3ff;stroke-linecap:round;stroke-width:.25;fill:#80b3ff"/><path id="path6658" d="m40.131 11.875l-32.262-0.185" style="opacity:.43721;stroke-linejoin:round;fill-rule:evenodd;stroke:#80b3ff;stroke-linecap:round;stroke-width:.25;fill:#80b3ff"/><path id="path6660" d="m40.214 13.875l-32.428-0.185" style="opacity:.43721;stroke-linejoin:round;fill-rule:evenodd;stroke:#80b3ff;stroke-linecap:round;stroke-width:.25;fill:#80b3ff"/><path id="path6662" d="m40.297 15.875l-32.594-0.185" style="opacity:.43721;stroke-linejoin:round;fill-rule:evenodd;stroke:#80b3ff;stroke-linecap:round;stroke-width:.25;fill:#80b3ff"/><path id="path6664" d="m40.297 17.875l-32.594-0.185" style="opacity:.43721;stroke-linejoin:round;fill-rule:evenodd;stroke:#80b3ff;stroke-linecap:round;stroke-width:.25;fill:#80b3ff"/><path id="path6666" d="m40.379 19.875l-32.758-0.185" style="opacity:.43721;stroke-linejoin:round;fill-rule:evenodd;stroke:#80b3ff;stroke-linecap:round;stroke-width:.25;fill:#80b3ff"/><path id="path7637" d="m40.379 21.875l-32.758-0.185" style="opacity:.43721;stroke-linejoin:round;stroke-width:.25;fill-rule:evenodd;stroke:#80b3ff;stroke-linecap:round;fill:#80b3ff"/><path id="path7639" d="m40.462 23.875l-32.924-0.185" style="opacity:.43721;stroke-linejoin:round;stroke-width:.25;fill-rule:evenodd;stroke:#80b3ff;stroke-linecap:round;fill:#80b3ff"/><path id="path7641" d="m40.462 25.875l-32.924-0.185" style="opacity:.43721;stroke-linejoin:round;stroke-width:.25;fill-rule:evenodd;stroke:#80b3ff;stroke-linecap:round;fill:#80b3ff"/><path id="path7645" d="m40.627 27.875l-33.254-0.185" style="opacity:.43721;stroke-linejoin:round;stroke-width:.25;fill-rule:evenodd;stroke:#80b3ff;stroke-linecap:round;fill:#80b3ff"/><path id="path7647" d="m40.627 29.864l-33.254-0.184" style="opacity:.43721;stroke-linejoin:round;stroke-width:.25;fill-rule:evenodd;stroke:#80b3ff;stroke-linecap:round;fill:#80b3ff"/><path id="path7649" d="m40.875 31.875l-33.75-0.185" style="opacity:.43721;stroke-linejoin:round;stroke-width:.25;fill-rule:evenodd;stroke:#80b3ff;stroke-linecap:round;fill:#80b3ff"/><path id="path7651" d="m40.875 33.83l-33.75-0.184" style="opacity:.43721;stroke-linejoin:round;stroke-width:.25;fill-rule:evenodd;stroke:#80b3ff;stroke-linecap:round;fill:#80b3ff"/><path id="path7653" d="m40.875 35.814l-33.75-0.185" style="opacity:.43721;stroke-linejoin:round;stroke-width:.25;fill-rule:evenodd;stroke:#80b3ff;stroke-linecap:round;fill:#80b3ff"/><path id="path7655" d="m40.875 37.797l-33.75-0.185" style="opacity:.43721;stroke-linejoin:round;stroke-width:.25;fill-rule:evenodd;stroke:#80b3ff;stroke-linecap:round;fill:#80b3ff"/><path id="path7657" d="m40.875 39.78l-33.75-0.185" style="opacity:.43721;stroke-linejoin:round;stroke-width:.25;fill-rule:evenodd;stroke:#80b3ff;stroke-linecap:round;fill:#80b3ff"/><path id="path7659" d="m40.875 41.875l-33.75-0.185" style="opacity:.43721;stroke-linejoin:round;stroke-width:.25;fill-rule:evenodd;stroke:#80b3ff;stroke-linecap:round;fill:#80b3ff"/><path id="path7671" d="m35.25 4.1673l1.05 39.5" style="opacity:.5907;stroke-linejoin:round;stroke:#b9d5ff;stroke-linecap:round;stroke-width:.5;fill:none"/><path id="path3715" d="m12.999 11.546h2.348m0.335 0h2.181m0.351 0h1.945m0.32 0h0.838m0.336 0h1.878m0.369 0h4.931m0.335 0h3.757m0.336 0h1.14m-21.4 1.954h3.641m0.423 0h1.74m0.321 0h0.859m0.349 0h1.602m0.336 0h1.643m0.31 0h2.581m0.335 0h3.404m-17.544 1.98h3.081m0.324 0h5.075m0.311 0h2.461m0.316 0h2.302m0.33 0h1.961m0.316 0l3.085 0.02m-19.562 2h4.284m0.337 0h4.63m0.32 0h1.82m0.335 0h4.331m0.292 0h2.968m0.336 0h1.175m0.335 0h0.65m-21.813 2h1.599m0.492 0h5.921m-8.012 10h3.641m0.423 0h1.74m0.321 0h0.859m0.349 0h1.602m0.336 0h1.643m0.31 0h2.581m-13.805 3.98h3.081m0.324 0h5.075m0.311 0h2.461m8.697 0.061h5.027m-24.976-6.041h4.284m0.337 0h4.63m0.32 0h1.82m0.335 0h4.331m-16.057-4h2.348m0.335 0h2.181m0.351 0h1.945m0.32 0h0.838m0.336 0h1.878m0.369 0h4.931m0.335 0h3.757m-19.924 2h3.954m0.311 0h4.199m0.32 0h1.642m0.31 0h3.95m0.317 0h4.314m-19.317 10h3.695m0.397 0h1.629m0.381 0h0.813m0.259 0h1.604m0.213 0h8.492m0.399 0h2.267m0.305 0h0.572m-16.816 2h1.205m-5.415 0h3.857m1.866 0h2.805m0.297 0h4.116m0.32 0h2.793m0.281 0h0.576m0.315 0h3.546m0.363 0h1.856m-18.781 2h1.702m-5.912 0h3.857m2.423 0h2.393" style="stroke:url(#linearGradient3781);stroke-width:1px;fill:none"/><path id="path2422" d="m38.469 23.944c-0.173-0.101-0.307-0.075-0.396-0.018l-11.796 7.511-2.171 1.387-0.067 0.028-2.57 5.792 6.37 0.192 0.053-0.036 2.185-1.379 11.793-7.576c0.354-0.227-0.206-1.731-1.257-3.381-0.788-1.237-1.624-2.214-2.144-2.52z" style="opacity:.15;fill:#0c0c0c;fill-rule:evenodd"/><path id="rect2383" d="m24.934 31.028c0.446-0.334 1.697 0.294 2.847 1.438 1.147 1.141 1.751 2.362 1.424 2.812-0.001 0.002 0.029 0.026 0.027 0.027l16.01-16.088c0.407-0.409-0.225-1.7-1.411-2.88s-2.48-1.806-2.887-1.397l-16.01 16.088z" style="stroke-linejoin:round;stroke:#0c0c0c;stroke-width:.5;fill:url(#linearGradient2697)"/><path id="rect3175" d="m38.99 16.903c0.446-0.334 1.697 0.293 2.847 1.438 1.147 1.141 1.752 2.362 1.425 2.812-0.002 0.002 0.028 0.025 0.026 0.027l1.954-1.963 0.04-0.04c0.001-0.002-0.028-0.025-0.027-0.027 0.327-0.45-0.277-1.672-1.424-2.813-1.15-1.144-2.401-1.772-2.847-1.437l-0.04 0.04-1.954 1.963z" style="opacity:.8;stroke-linejoin:round;stroke:#e28ccd;stroke-width:.5;fill:#ffb6ed"/><path id="path3208" d="m24.934 31.028c0.446-0.334 1.697 0.294 2.847 1.438 1.147 1.141 1.751 2.362 1.424 2.812-0.001 0.002 0.029 0.026 0.027 0.027l11.026-11.079 0.04-0.041c0.001-0.001-0.028-0.025-0.027-0.026 0.327-0.451-0.278-1.672-1.425-2.813-1.149-1.144-2.401-1.772-2.846-1.437l-0.04 0.04-11.026 11.079z" style="opacity:.6;fill:#0c0c0c"/><path id="path3233" d="m36.8 19.104c0.446-0.334 1.697 0.293 2.847 1.437 1.147 1.142 1.751 2.363 1.424 2.813-0.001 0.002 0.029 0.025 0.027 0.027l0.2-0.2c0.001-0.002-0.028-0.025-0.027-0.027 0.327-0.45-0.278-1.672-1.425-2.813-1.149-1.144-2.401-1.772-2.846-1.437l-0.2 0.2z" style="fill:url(#linearGradient2691)"/><path id="path3216" d="m36.617 19.288c0.446-0.335 1.698 0.293 2.847 1.437 1.147 1.141 1.752 2.363 1.425 2.813-0.002 0.002 0.028 0.025 0.027 0.027l0.199-0.201c0.001-0.001-0.028-0.025-0.027-0.026 0.327-0.451-0.277-1.672-1.424-2.813-1.15-1.144-2.401-1.772-2.847-1.438l-0.2 0.201z" style="fill:url(#linearGradient2688)"/><path id="path3248" d="m37.435 18.466c0.446-0.334 1.697 0.293 2.847 1.437 1.147 1.142 1.751 2.363 1.424 2.813-0.001 0.002 0.028 0.025 0.027 0.027l0.2-0.2c0.001-0.002-0.029-0.025-0.027-0.027 0.327-0.45-0.278-1.672-1.425-2.813-1.149-1.144-2.401-1.772-2.847-1.437l-0.199 0.2z" style="fill:url(#linearGradient2685)"/><path id="path3250" d="m37.252 18.65c0.446-0.335 1.697 0.293 2.847 1.437 1.147 1.141 1.752 2.363 1.425 2.813-0.002 0.002 0.028 0.025 0.026 0.027l0.2-0.201c0.001-0.002-0.028-0.025-0.027-0.027 0.327-0.45-0.277-1.671-1.424-2.812-1.15-1.144-2.401-1.772-2.847-1.438l-0.2 0.201z" style="fill:url(#linearGradient2682)"/><path id="path3256" d="m38.073 17.825c0.446-0.335 1.697 0.293 2.847 1.437 1.147 1.142 1.751 2.363 1.424 2.813-0.001 0.002 0.028 0.025 0.027 0.027l0.2-0.201c0.001-0.001-0.029-0.025-0.027-0.026 0.327-0.451-0.278-1.672-1.425-2.813-1.149-1.144-2.401-1.772-2.847-1.437l-0.199 0.2z" style="fill:url(#linearGradient2679)"/><path id="path3258" d="m37.89 18.009c0.446-0.335 1.697 0.293 2.847 1.437 1.147 1.141 1.752 2.362 1.425 2.813-0.002 0.001 0.028 0.025 0.027 0.026l0.199-0.2c0.001-0.002-0.028-0.025-0.027-0.027 0.327-0.45-0.277-1.671-1.424-2.813-1.15-1.144-2.401-1.771-2.847-1.437l-0.2 0.201z" style="fill:url(#linearGradient2676)"/><path id="path3270" d="m21.866 38.31l7.284-2.97 0.062-0.063c0.327-0.45-0.285-1.671-1.432-2.813-1.15-1.144-2.4-1.768-2.846-1.433l-3.068 7.279z" style="fill-rule:evenodd;stroke:url(#linearGradient2673);stroke-width:.5;fill:url(#linearGradient2670)"/><path id="path3281" d="m22.697 36.339l-0.831 1.964 1.986-0.815c-0.159-0.191-0.306-0.384-0.497-0.575-0.22-0.219-0.437-0.396-0.658-0.574z" style="fill-rule:evenodd;stroke:#0c0c0c;stroke-width:.5;fill:#0c0c0c"/></svg>