<svg xmlns="http://www.w3.org/2000/svg" xmlns:xlink="http://www.w3.org/1999/xlink" id="svg3767" width="48" height="48" version="1.1"><defs id="defs3769"><radialGradient id="radialGradient2940" cx="90.747" cy="32.164" r="23" gradientTransform="matrix(-.20909 -.12655 -.077060 .096697 61.558 49.152)" gradientUnits="userSpaceOnUse"><stop id="stop3720-6" offset="0" style="stop-color:#e9ffbb"/><stop id="stop3722-32" offset="1" style="stop-color:#e0f9ab;stop-opacity:0"/></radialGradient><radialGradient id="radialGradient2943" cx="90.747" cy="32.164" r="23" gradientTransform="matrix(.23468 -.16298 .086489 .12453 -16.164 42.048)" gradientUnits="userSpaceOnUse"><stop id="stop3720" offset="0" style="stop-color:#fff"/><stop id="stop3722" offset="1" style="stop-color:#fff;stop-opacity:0"/></radialGradient><radialGradient id="radialGradient2947" cx="20.581" cy="-.189" r="21.996" gradientTransform="matrix(0 .76963 .66812 0 30.219 4.0744)" gradientUnits="userSpaceOnUse"><stop id="stop12409-7" offset="0" style="stop-color:#fff;stop-opacity:.702"/><stop id="stop12411-5" offset="1" style="stop-color:#fff;stop-opacity:0"/></radialGradient><radialGradient id="radialGradient2950" cx="20.249" cy="4.912" r="23" gradientTransform="matrix(0 .96411 .81045 0 27.862 1.7934)" gradientUnits="userSpaceOnUse"><stop id="stop2954" offset="0" style="stop-color:#eef87e"/><stop id="stop2956" offset=".301" style="stop-color:#cde34f"/><stop id="stop2958" offset=".661" style="stop-color:#93b723"/><stop id="stop2960" offset="1" style="stop-color:#5a7e0d"/></radialGradient><linearGradient id="linearGradient2953" x1="18.139" x2="18.139" y1="45.218" y2="3" gradientTransform="matrix(-.54458 0 0 .54458 44.29 19.688)" gradientUnits="userSpaceOnUse"><stop id="stop2492-0" offset="0" style="stop-color:#455f0e"/><stop id="stop2494-2" offset="1" style="stop-color:#84a718"/></linearGradient><radialGradient id="radialGradient2956" cx="62.625" cy="4.625" r="10.625" gradientTransform="matrix(-1.1789 0 0 .41004 105.05 39.575)" gradientUnits="userSpaceOnUse"><stop id="stop8840-5" offset="0"/><stop id="stop8842-9" offset="1" style="stop-opacity:0"/></radialGradient><radialGradient id="radialGradient2965" cx="20.249" cy="4.912" r="23" gradientTransform="matrix(0 1.2694 -1.0671 0 23.54 -20.147)" gradientUnits="userSpaceOnUse"><stop id="stop3673-1" offset="0" style="stop-color:#f6f6f6"/><stop id="stop3675-7" offset=".262" style="stop-color:#e5e5e5"/><stop id="stop3677-8" offset=".705" style="stop-color:#cdcdcd"/><stop id="stop3679-5" offset="1" style="stop-color:#929292"/></radialGradient><linearGradient id="linearGradient2967" x1="18.139" x2="18.139" y1="45.218" y2="3" gradientTransform="matrix(.71702 0 0 .71702 1.9101 3.4134)" gradientUnits="userSpaceOnUse"><stop id="stop3709" offset="0" style="stop-color:#707070"/><stop id="stop3711" offset="1" style="stop-color:#a6a6a6"/></linearGradient><radialGradient id="radialGradient2970" cx="62.625" cy="4.625" r="10.625" gradientTransform="matrix(1.5521 0 0 .53988 -78.084 29.597)" gradientUnits="userSpaceOnUse"><stop id="stop8840" offset="0"/><stop id="stop8842" offset="1" style="stop-opacity:0"/></radialGradient><linearGradient id="linearGradient3744" x1="-2.784" x2="-21.701" y1="10.608" y2="43.456" gradientTransform="matrix(.98452 0 0 .96347 32.331 -11.674)" gradientUnits="userSpaceOnUse"><stop id="stop12409" offset="0" style="stop-color:#fff;stop-opacity:.702"/><stop id="stop12411" offset="1" style="stop-color:#fff;stop-opacity:0"/></linearGradient></defs><path id="path8836" d="m35.61 32.094c0 3.168-7.3835 5.7362-16.492 5.7362-9.108 0-16.492-2.5682-16.492-5.7362s7.3835-5.7362 16.492-5.7362c9.108 0 16.492 2.5682 16.492 5.7362z" style="opacity:.3;fill-rule:evenodd;fill:url(#radialGradient2970)"/><path id="path6145" d="m16.833 6.1262c-8.2584 1.2175-14.369 6.9078-13.814 13.069 0.35954 3.9895 3.4216 7.2732 7.8004 9.0057l-1.8278 7.1221 8.086-5.848 0.0559-0.0051c0.99787 0.0477 2.0004 0.06351 3.0407-0.03141 8.8773-0.80992 15.627-6.717 15.044-13.181-0.582-6.4647-8.278-11.054-17.155-10.244-0.41612 0.037965-0.82367 0.052321-1.2298 0.1122z" style="stroke-linejoin:round;fill-rule:evenodd;stroke:url(#linearGradient2967);fill:url(#radialGradient2965)"/><path id="path6179" d="m17.064 7.1518c-7.2204 1.0292-13.587 5.6102-13.085 11.812 0.33731 4.1659 3.6584 6.9927 7.7766 8.3069l-1.3838 5.5665 6.4645-4.5483c0.87199 0.03707 2.2136 0.10319 3.123 0.022 6.876-0.614 14.889-5.612 14.314-11.826-0.614-6.5809-8.623-10.1-16.134-9.4291-0.36377 0.032479-0.71999 0.045379-1.0751 0.09599z" style="stroke:url(#linearGradient3744);fill:none"/><path id="path3705" d="m9.607 34.514 1.5403-6.4982 5.757 1.1264-7.2973 5.3718z" style="stroke-width:1px;fill:#bfbfbf"/><path id="path8836-8" d="m18.695 41.471c0 2.4061 5.6078 4.3567 12.525 4.3567 6.9176 0 12.525-1.9505 12.525-4.3567 0-2.4061-5.6078-4.3567-12.525-4.3567-6.9176 0-12.525 1.9505-12.525 4.3567z" style="opacity:.3;fill-rule:evenodd;fill:url(#radialGradient2956)"/><path id="path6145-9" d="m32.956 21.748c6.2725 0.92476 10.914 5.2465 10.492 9.9258-0.27308 3.03-2.5987 5.524-5.9245 6.8399l1.3882 5.4093-6.1414-4.4416-0.04246-0.0039c-0.75789 0.03622-1.5193 0.04823-2.3094-0.02385-6.7424-0.61514-11.869-5.1016-11.426-10.011 0.44245-4.9094 6.2871-8.395 13.029-7.7798 0.31605 0.02884 0.62558 0.03974 0.93407 0.08522z" style="stroke-linejoin:round;fill-rule:evenodd;stroke:url(#linearGradient2953);fill:url(#radialGradient2950)"/><path id="path6179-6" d="m32.497 22.841c5.5705 0.81129 10.381 4.1679 9.9931 9.0572-0.26022 3.284-1.907 5.4107-5.084 6.4467l1.0675 4.3881-5.1396-4.0431c-0.67269 0.02923-1.4535 0.08135-2.155 0.01734-5.3047-0.48397-11.589-3.9662-11.144-8.8648 0.47331-5.1877 5.6858-7.5041 11.481-6.9754 0.28063 0.0256 0.70798-0.06593 0.98194-0.02603z" style="stroke:url(#radialGradient2947);fill:none"/><path id="path3705-3" d="m38.444 43.309-1.1699-4.9354-4.3725 0.85549 5.5424 4.0799z" style="stroke-width:1px;fill:#80a41c"/><path id="path3845" d="m21.232 6.0746c-1.0434-0.059585-2.1083-0.032764-3.2042 0.067221-0.42798 0.039046-0.82754 0.055652-1.21 0.11203-4.069 0.5999-6.1764 3.4204-8.6146 5.7121-2.4382 2.2916-5.2089 4.049-4.9416 7.0151 0.34617 3.8411 3.3211 7.0385 7.6184 8.7387 0.14765 0.05432 0.23974 0.22827 0.20166 0.38092l-1.6122 6.251 7.3722-5.333c0.05373-0.03186 0.11686-0.04765 0.17926-0.04481h0.04481c0.0075-0.000259 0.01494-0.000259 0.02241 0 0.98802 0.04722 1.9815 0.04834 3.0025-0.04481 4.3754-0.39919 8.2208-2.0584 10.89-4.3918 2.669-2.3334 4.1569-5.3353 3.8764-8.4474-0.24539-2.7229-1.807-5.1049-4.2349-6.8789s-5.7305-2.9281-9.3885-3.137z" style="fill-rule:evenodd;fill:url(#radialGradient2943)"/><path id="path3845-4" d="m28.238 21.22c0.92962-0.04627 1.8784-0.02544 2.8549 0.05219 0.38132 0.03032 0.73732 0.04321 1.0781 0.08699 3.6254 0.4658 6.7716 1.7873 8.944 3.5666 2.1724 1.7794 3.3725 4.0125 3.1344 6.3156-0.30843 2.9825-2.9591 5.4652-6.7878 6.7853a0.28749 0.25054 0 0 0 -0.17968 0.29577l1.4374 4.8541-6.5682-4.1408a0.28749 0.25054 0 0 0 -0.15971 -0.03479h-0.03993a0.28749 0.25054 0 0 0 -0.01997 0c-0.88031 0.03666-1.7655 0.03753-2.6752-0.03479-3.8984-0.30996-7.3246-1.5983-9.7026-3.4101s-3.7037-4.1427-3.4538-6.5591c0.21864-2.1142 1.61-3.9638 3.7732-5.3413 2.1632-1.3774 5.1058-2.2735 8.365-2.4358z" style="fill-rule:evenodd;fill:url(#radialGradient2940)"/></svg>