<svg xmlns="http://www.w3.org/2000/svg" xmlns:xlink="http://www.w3.org/1999/xlink" id="svg3377" width="48" height="48" version="1.1"><defs id="defs3379"><radialGradient id="radialGradient2693" cx="6.703" cy="73.616" r="7.228" gradientTransform="scale(1.9022 .52570)" gradientUnits="userSpaceOnUse"><stop id="stop10693" offset="0"/><stop id="stop10695" offset="1" style="stop-opacity:0"/></radialGradient><linearGradient id="linearGradient3226" x1="64" x2="64" y1="6.874" y2="117.23" gradientUnits="userSpaceOnUse"><stop id="stop11" offset="0" style="stop-color:#f2f2f2"/><stop id="stop13" offset="1" style="stop-color:#d8d8d8"/></linearGradient><linearGradient id="linearGradient2443" x1="86.133" x2="84.639" y1="105.1" y2="20.895" gradientTransform="matrix(.85808 0 0 .85665 9.0991 8.1142)" gradientUnits="userSpaceOnUse"><stop id="stop5130" offset="0" style="stop-color:#fff"/><stop id="stop5132" offset="1" style="stop-color:#959595"/></linearGradient><linearGradient id="linearGradient2441" x1="64" x2="64" y1="21.941" y2="104.06" gradientTransform="matrix(.85808 0 0 .85665 9.0991 8.1142)" gradientUnits="userSpaceOnUse" xlink:href="#XMLID_5_"/><linearGradient id="linearGradient2438" x1="49.273" x2="49.374" y1="22.275" y2="102.05" gradientTransform="matrix(.99032 0 0 .98867 .63563 -.95317)" gradientUnits="userSpaceOnUse" xlink:href="#XMLID_6_"/><linearGradient id="XMLID_5_" x1="64" x2="64" y1="21.941" y2="104.06" gradientUnits="userSpaceOnUse"><stop id="stop24" offset="0" style="stop-color:#dadada"/><stop id="stop26" offset="1" style="stop-color:#ccc"/></linearGradient><linearGradient id="XMLID_6_" x1="64" x2="64" y1="21.523" y2="103.07" gradientUnits="userSpaceOnUse" xlink:href="#XMLID_5_"><stop id="stop31" offset="0" style="stop-color:#d9d9d9"/><stop id="stop33" offset="1" style="stop-color:#ccc"/></linearGradient><linearGradient id="linearGradient2436" x1="64" x2="64" y1="21.523" y2="103.07" gradientTransform="matrix(.99032 0 0 .98867 .63563 -.95317)" gradientUnits="userSpaceOnUse" xlink:href="#XMLID_6_"/><linearGradient id="linearGradient2733" x1="39.98" x2="39.98" y1="3.472" y2="14.369" gradientTransform="matrix(2.779 0 0 2.779 -4.7193 .92543)" gradientUnits="userSpaceOnUse"><stop id="stop5548" offset="0" style="stop-color:#d8d8d8"/><stop id="stop5550" offset="1" style="stop-color:#fff"/></linearGradient><linearGradient id="linearGradient2730" x1="31.177" x2="40.859" y1="19.822" y2="9.657" gradientTransform="matrix(3.1641 0 0 3.1641 -13.729 -16.758)" gradientUnits="userSpaceOnUse"><stop id="stop2252" offset="0" style="stop-color:#b9b9b9"/><stop id="stop2254" offset="1" style="stop-color:#fff;stop-opacity:0"/></linearGradient><linearGradient id="linearGradient2727-611-236-922-438" x1="9.75" x2="16.915" y1="32.284" y2="39.443" gradientTransform="matrix(2.779 0 0 2.779 -5.7018 -1.0396)" gradientUnits="userSpaceOnUse"><stop id="stop3193" offset="0" style="stop-color:#484848"/><stop id="stop3195" offset="0" style="stop-color:#878787"/><stop id="stop3197" offset="0" style="stop-color:#6b6b6b"/><stop id="stop3199" offset=".75" style="stop-color:#4d4d4d"/><stop id="stop3201" offset="1" style="stop-color:#4e4e4e"/></linearGradient><linearGradient id="linearGradient2723-207-870-812-510" x1="12.005" x2="10.651" y1="35.688" y2="33.195" gradientTransform="matrix(3.1871 -.083424 .083424 3.1871 -8.6874 -16.508)" gradientUnits="userSpaceOnUse"><stop id="stop3211" offset="0" style="stop-color:#bababa"/><stop id="stop3213" offset="1" style="stop-color:#bababa;stop-opacity:0"/></linearGradient><linearGradient id="linearGradient2719-69-752-179-525" x1="14.018" x2="15.416" y1="36.943" y2="38.268" gradientTransform="matrix(2.7784 -.054815 .054815 2.7784 -6.883 -3.8866)" gradientUnits="userSpaceOnUse"><stop id="stop3205" offset="0"/><stop id="stop3207" offset="1" style="stop-opacity:0"/></linearGradient></defs><g id="layer1"><path id="path10689" d="m26.5 38.7a13.75 3.8 0 1 1 -27.5 0 13.75 3.8 0 1 1 27.5 0z" transform="matrix(1.6 0 0 1.8447 3.6 -30.399)" style="opacity:.4;fill:url(#radialGradient2693)"/><path id="path6" d="m117.44 48.543h-4.5238c-1.221 0-2.6327-1.0144-3.0209-2.1695-0.0216-0.06005-2.8076-6.7928-2.8076-6.7928-0.57335-1.1514-0.29608-2.862 0.56678-3.7244l3.1986-3.1932c0.73502-0.73474 1.1411-1.7144 1.1411-2.7588s-0.40604-2.024-1.1411-2.7578l-12.596-12.573c-0.73502-0.7338-1.7163-1.1382-2.7624-1.1392-1.0461 0-2.0274 0.40444-2.7624 1.1392l-3.1986 3.1932c-0.86285 0.86048-2.5773 1.1382-3.6685 0.59398-0.061-0.028-6.805-2.808-6.805-2.808-1.219-0.41-2.235-1.82-2.235-3.039v-4.5173c-0.002-2.1515-1.755-3.9015-3.91-3.9015h-17.81c-2.1552 0-3.9082 1.75-3.9082 3.9017v4.5173c0 1.2189-1.0161 2.6284-2.1731 3.0159-0.06016 0.02252-6.8041 2.8029-6.8041 2.8029-1.1533 0.5724-2.8677 0.29464-3.7306-0.56677l-3.1986-3.1923c-0.73596-0.73474-1.7172-1.1392-2.7634-1.1392-1.0461 0-2.0274 0.40537-2.7624 1.1392l-12.594 12.573c-1.5236 1.5211-1.5236 3.9955 0 5.5166l3.1986 3.1932c0.86191 0.86142 1.1401 2.573 0.59497 3.6624-0.0282 0.06099-2.8141 6.7937-2.8141 6.7937-0.41075 1.2161-1.8216 2.2295-3.0425 2.2295h-3.3518c-2.1543 0.000939-5.0803 1.751-5.0803 3.9026v17.779c0 2.1517 1.753 3.9017 3.9082 3.9017h4.5248c1.221 0 2.6327 1.0134 3.02 2.1695 0.02256 0.06006 2.8085 6.7928 2.8085 6.7928 0.57335 1.1514 0.29514 2.862-0.56677 3.7244l-3.1986 3.1932c-1.5236 1.5211-1.5236 3.9955 0 5.5166l12.595 12.573c0.73502 0.73381 1.7163 1.1392 2.7624 1.1392 1.0471 0 2.0284-0.40538 2.7634-1.1392l3.1986-3.1932c0.86285-0.86047 2.5773-1.1382 3.6685-0.59399 0.06109 0.0281 6.805 2.8095 6.805 2.8095 1.2172 0.41006 2.2333 1.8186 2.2333 3.0375v4.5163c0 2.1517 1.753 3.9017 3.9082 3.9017h17.809c2.1543 0 3.9073-1.75 3.9073-3.9017v-4.5163c0-1.2189 1.0161-2.6284 2.174-3.0159 0.06015-0.0216 6.8041-2.8029 6.8041-2.8029 1.1533-0.57241 2.8686-0.29557 3.7306 0.56584l3.1986 3.1932c0.73502 0.73381 1.7163 1.1392 2.7624 1.1392s2.0274-0.40538 2.7624-1.1392l12.594-12.573c0.73503-0.7338 1.1411-1.7134 1.1411-2.7578s-0.40604-2.024-1.1411-2.7578l-3.1986-3.1932c-0.86285-0.86142-1.1401-2.573-0.59497-3.6624 0.0282-0.06099 2.8141-6.7937 2.8141-6.7937 0.41075-1.2152 1.8216-2.2295 3.0425-2.2295h4.5238c2.1552 0 3.9082-1.75 3.9082-3.9017v-17.781c0.003-2.1517-1.7501-3.9017-3.9054-3.9017zm-53.422 29.392c-9.169 0-16.629-7.4468-16.629-16.601 0-9.1537 7.4602-16.601 16.629-16.601 9.1699 0 16.628 7.4478 16.628 16.601 0 9.1547-7.4583 16.601-16.628 16.601z" transform="scale(.375)" style="opacity:.1;stroke-width:2.6667;fill:#030303"/><path id="path8" d="m117.43 48.521h-4.5239c-1.221 0-2.6327-1.0162-3.0209-2.1732-0.0216-0.06006-2.8076-6.8031-2.8076-6.8031-0.57335-1.1532-0.29607-2.8667 0.56678-3.73l3.1986-3.1989c0.73502-0.73568 1.1411-1.7172 1.1411-2.7635 0-1.0453-0.40606-2.0269-1.1411-2.7625l-12.602-12.594c-0.73502-0.73568-1.7163-1.141-2.7624-1.141s-2.0274 0.40537-2.7624 1.141l-3.1986 3.1979c-0.86285 0.86235-2.5773 1.1401-3.6685 0.59492-0.0611-0.02815-6.805-2.8132-6.805-2.8132-1.2181-0.411-2.2342-1.8223-2.2342-3.0431v-4.5248c-0.003-2.1559-1.755-3.9088-3.91-3.9088h-17.81c-2.1552 0-3.9082 1.7529-3.9082 3.9083v4.5248c0 1.2208-1.0161 2.633-2.1731 3.0206-0.06016 0.02252-6.8041 2.8076-6.8041 2.8076-1.1533 0.57334-2.8677 0.29558-3.7306-0.56677l-3.198-3.197c-0.73596-0.73568-1.7172-1.141-2.7634-1.141-1.0461 0-2.0274 0.40631-2.7624 1.141l-12.595 12.594c-1.5236 1.5239-1.5236 4.0031 0 5.526l3.1986 3.1989c0.86191 0.86236 1.1401 2.5767 0.59497 3.669-0.0282 0.06099-2.8141 6.805-2.8141 6.805-0.41074 1.218-1.8216 2.2333-3.0425 2.2333h-3.3518c-2.1539-0.001-5.0799 1.752-5.0799 3.907v17.809c0 2.1545 1.753 3.9073 3.9082 3.9073h4.5248c1.221 0 2.6327 1.0153 3.02 2.1732 0.02256 0.06005 2.8085 6.8031 2.8085 6.8031 0.57336 1.1532 0.29514 2.8676-0.56677 3.7309l-3.1986 3.1989c-1.5236 1.523-1.5236 4.0031 0 5.526l12.595 12.594c0.73502 0.73567 1.7163 1.141 2.7624 1.141 1.0471 0 2.0284-0.40536 2.7634-1.141l3.1986-3.198c0.86285-0.86236 2.5773-1.1411 3.6685-0.59492 0.06109 0.0272 6.805 2.8132 6.805 2.8132 1.2172 0.411 2.2333 1.8214 2.2333 3.0431v4.5238c0 2.1554 1.753 3.9083 3.9082 3.9083h17.809c2.1543 0 3.9073-1.7529 3.9073-3.9083v-4.5238c0-1.2218 1.0161-2.633 2.174-3.0215 0.06016-0.0216 6.8041-2.8076 6.8041-2.8076 1.1533-0.57335 2.8686-0.29465 3.7306 0.56678l3.1986 3.1979c0.73502 0.73569 1.7163 1.141 2.7624 1.141s2.0274-0.40535 2.7624-1.141l12.594-12.593c0.73503-0.73474 1.1411-1.7163 1.1411-2.7625 0-1.0463-0.40604-2.0278-1.1411-2.7625l-3.1986-3.1989c-0.86284-0.86235-1.1401-2.5777-0.59497-3.6681 0.0282-0.06193 2.8141-6.805 2.8141-6.805 0.41075-1.2189 1.8216-2.2342 3.0426-2.2342h4.5238c2.1552 0 3.9082-1.7529 3.9082-3.9073v-17.809c0.003-2.1554-1.7501-3.9083-3.9054-3.9083zm-53.429 30.727c-9.9472 0-18.039-8.0784-18.039-18.008 0-9.9307 8.0918-18.009 18.039-18.009 9.9463 0 18.038 8.0784 18.038 18.009 0 9.9297-8.0918 18.008-18.038 18.008z" transform="scale(.375)" style="stroke-linejoin:round;stroke:#888;stroke-linecap:round;stroke-width:2.6655;fill:url(#linearGradient3226)"/><path id="path28" d="m64.016 26.442c-19.685 0-35.7 15.989-35.7 35.641s16.015 35.641 35.7 35.641 35.7-15.989 35.7-35.641-16.015-35.641-35.7-35.641zm0 61.855c-14.502 0-26.257-11.734-26.257-26.214 0-14.479 11.755-26.214 26.257-26.214s26.257 11.735 26.257 26.214c0 14.478-11.755 26.214-26.257 26.214z" transform="scale(.375)" style="stroke:url(#linearGradient2443);stroke-width:2.6655;fill:url(#linearGradient2441)"/><path id="path35" d="m64.016 30.684c-16.955 0-30.7 13.722-30.7 30.649s13.745 30.649 30.7 30.649 30.7-13.722 30.7-30.649-13.745-30.649-30.7-30.649zm0 50.917c-11.213 0-20.302-9.0741-20.302-20.268 0-11.195 9.0882-20.268 20.302-20.268 11.212 0 20.302 9.0731 20.302 20.268 0 11.194-9.0892 20.268-20.302 20.268z" transform="scale(.375)" style="stroke:url(#linearGradient2438);stroke-width:2.6655;fill:url(#linearGradient2436)"/><path id="path2144" d="m57.46 78.563c2.638-2.261 42.032-42.553 42.032-42.553l9.7264-0.69475 15.284-21.19-12.734-11.344-19.8 17.021v9.7264l-40.295 41.858c-1.9105 1.9106 3.3545 9.2598 5.7861 7.1756z" transform="scale(.375)" style="stroke-linejoin:round;stroke:#888a85;stroke-width:2.6667;fill:url(#linearGradient2733)"/><path id="path3085" d="m57.154 75.273c2.0465-1.7541 41.211-41.861 41.211-41.861l9.2665-0.7847 13.333-17.916-9.1435-8.0654-17.329 14.927 0.49126 9.0208-40.109 42.059c-1.4825 1.4825 0.39223 4.2375 2.279 2.6203z" transform="scale(.375)" style="opacity:.53977;stroke-linejoin:round;stroke:url(#linearGradient2730);stroke-width:2.6667;fill:none"/><path id="path2142" d="m13.056 121.24c4.1659 4.6362 15.737 6.7338 20.869-2.2463 2.2374-3.9154 6.6255-14.88 26.203-32.5 3.288-2.9559 6.771-9.7175 3.8183-13.365l-7.6422-7.6422c-3.1264-3.4737-11.816-1.8534-15.381 3.0087-10.628 14.543-27.99 26.12-31.906 27.518-7.4924 2.6759-6.6492 13.72-1.6923 18.974l5.7316 6.2527z" transform="scale(.375)" style="stroke-linejoin:round;stroke:#373737;stroke-linecap:round;stroke-width:2.6667;fill:url(#linearGradient2727-611-236-922-438)"/><path id="path3101" d="m20.771 28.201a1.7678 1.7678 0 1 1 -3.5355 0 1.7678 1.7678 0 1 1 3.5355 0z" transform="matrix(.67738 0 0 .67738 5.7143 7.0658)" style="opacity:.60227;fill:#bababa"/><path id="path3103" d="m45.374 76.979s-22.687 23.097-33.314 27.012" transform="scale(.375)" style="stroke-linejoin:round;stroke:url(#linearGradient2723-207-870-812-510);stroke-linecap:round;stroke-width:2.6667;fill:none"/><path id="path2270" d="m14.134 117.68c4.5604 5.5234 14.554 6.8384 17.691-1.1726 2.1558-5.5041 10.548-17.927 25.938-31.779 2.5848-2.3237 5.3229-7.6393 3.0017-10.507l-6.0078-6.0078c-2.4577-2.7308-9.2892-1.457-12.092 2.3652-8.3547 11.433-26.843 26.388-31.312 27.862-6.9193 2.2833-5.6227 10.193-1.7259 14.323l4.5058 4.9155z" transform="scale(.375)" style="opacity:.19886;stroke:#bababa;stroke-width:2.6667;fill:none"/><path id="path2247" d="m52.163 82.156s-23.17 20.938-28.204 34.363" transform="scale(.375)" style="opacity:.27841;stroke-linejoin:round;stroke:url(#linearGradient2719-69-752-179-525);stroke-linecap:round;stroke-width:2.6667;fill:none"/></g></svg>