<svg xmlns="http://www.w3.org/2000/svg" xmlns:svg="http://www.w3.org/2000/svg" xmlns:xlink="http://www.w3.org/1999/xlink" id="svg2" width="64" height="64" version="1.0"><metadata id="metadata68"/><defs id="defs4"><linearGradient id="linearGradient4850"><stop style="stop-color:#fff;stop-opacity:1" id="stop4852" offset="0"/><stop style="stop-color:#fff;stop-opacity:.23529412" id="stop4854" offset="0"/><stop style="stop-color:#fff;stop-opacity:.15686275" id="stop4856" offset=".969"/><stop style="stop-color:#fff;stop-opacity:.39215687" id="stop4858" offset="1"/></linearGradient><linearGradient id="linearGradient4691"><stop id="stop4693" offset="0" style="stop-color:#fff;stop-opacity:1"/><stop id="stop4695" offset="0" style="stop-color:#fff;stop-opacity:.23529412"/><stop id="stop4697" offset="1" style="stop-color:#fff;stop-opacity:.15686275"/><stop id="stop4699" offset="1" style="stop-color:#fff;stop-opacity:.39215687"/></linearGradient><linearGradient id="linearGradient4585"><stop style="stop-color:#000;stop-opacity:.31764707" id="stop4587" offset="0"/><stop style="stop-opacity:.23921569;stop-color:#000" id="stop4589" offset="1"/></linearGradient><linearGradient id="linearGradient10691"><stop id="stop10693" offset="0"/><stop id="stop10695" offset="1" style="stop-opacity:0"/></linearGradient><linearGradient id="linearGradient6544"><stop id="stop6546" offset="0" style="stop-color:#f0f0f0"/><stop id="stop6548" offset="1" style="stop-color:#d2d2d2"/></linearGradient><linearGradient id="linearGradient3056" x1="316.86" x2="319.39" y1="85.62" y2="93.916" gradientTransform="matrix(1.1429 0 0 .93704 -333.71 -28.523)" gradientUnits="userSpaceOnUse"><stop id="stop4576" offset="0" style="stop-color:#282828"/><stop id="stop4578" offset="1" style="stop-color:#5a5c58"/></linearGradient><radialGradient id="radialGradient3063" cx="6.703" cy="73.616" r="7.228" gradientTransform="matrix(4.1791 -.0000035773 4.7438e-7 .20751 3.9886 45.224)" gradientUnits="userSpaceOnUse" xlink:href="#linearGradient10691"/><linearGradient id="linearGradient3074" x1="20.147" x2="20.104" y1="0" y2="31.983" gradientTransform="matrix(1.1507891,0,0,1.1948079,4.3802764,3.3834631)" gradientUnits="userSpaceOnUse" xlink:href="#linearGradient6544"/><linearGradient id="linearGradient3080" x1="320.03" x2="320.03" y1="82.323" y2="94.126" gradientTransform="matrix(1.2308 0 0 1.0001 -361.91 -44.013)" gradientUnits="userSpaceOnUse"><stop id="stop3205" offset="0" style="stop-color:#787878"/><stop id="stop3207" offset=".35" style="stop-color:#bebebe"/><stop id="stop3209" offset=".625" style="stop-color:#c8c8c8"/><stop id="stop3211" offset=".729" style="stop-color:#e6e6e6"/><stop id="stop3213" offset="1" style="stop-color:#8c8c8c"/></linearGradient><radialGradient id="radialGradient3085" cx="6.703" cy="73.616" r="7.228" gradientTransform="matrix(1.9368,0,0,0.48419875,19.018,13.8553)" gradientUnits="userSpaceOnUse" xlink:href="#linearGradient10691"/><linearGradient id="linearGradient4427" x1="327.19" x2="327.19" y1="77.875" y2="86.188" gradientTransform="translate(-292,-27)" gradientUnits="userSpaceOnUse"><stop id="stop6604-5" offset="0" style="stop-color:#fff"/><stop id="stop6606-8" offset="1" style="stop-color:#fff;stop-opacity:0"/></linearGradient><linearGradient id="linearGradient4430" x1="145.44" x2="145.44" y1="372.67" y2="416.83" gradientTransform="matrix(.23108 0 0 .18491 -1.6072 -15.992)" gradientUnits="userSpaceOnUse" xlink:href="#linearGradient6544"/><linearGradient id="linearGradient3152-7" x1="25.005" x2="25.005" y1="51.229" y2="40.265" gradientTransform="matrix(1.0242156,0,0,0.69699789,7.4817065,13.293507)" gradientUnits="userSpaceOnUse" xlink:href="#linearGradient4850"/><linearGradient id="linearGradient3033" x1="-51.786" x2="-51.786" y1="50.786" y2="2.906" gradientTransform="matrix(1.2689226,0,0,0.77271048,87.644598,0.496821)" gradientUnits="userSpaceOnUse" xlink:href="#linearGradient4585"/><linearGradient id="linearGradient3093-0" x1="24" x2="24" y1="5.514" y2="42.486" gradientTransform="matrix(1.3803441,0,0,0.94667394,-1.1282474,-0.22020335)" gradientUnits="userSpaceOnUse" xlink:href="#linearGradient4691"/><linearGradient id="linearGradient12481-7" x1="35.793" x2="35.793" y1="16.345" y2="57.823" gradientTransform="matrix(1.0290372,0,0,1.1734452,6.4088191,-13.361966)" gradientUnits="userSpaceOnUse" xlink:href="#radialGradient2444-8"/><radialGradient id="radialGradient2444-8" cx="63.969" cy="14.113" r="23.097" gradientTransform="matrix(1.5647,-9.5143e-8,6.1772e-8,1.0159,-59.14917,8.1461003)" gradientUnits="userSpaceOnUse"><stop id="stop3618-4" offset="0" style="stop-color:#adc980"/><stop id="stop3270-5" offset=".523" style="stop-color:#87a752"/><stop id="stop3620-0" offset="1" style="stop-color:#688933"/></radialGradient><linearGradient id="linearGradient5055" x1="-52.034" x2="-52.034" y1="78.437" y2="68.035" gradientTransform="matrix(1.2689226,0,0,0.77271048,87.644598,0.496821)" gradientUnits="userSpaceOnUse" xlink:href="#linearGradient4585"/></defs><path id="path2589" d="M 46,49.5 C 46,51.432963 39.732,53 32,53 24.268,53 18,51.432875 18,49.5 18,47.567125 24.268,46 32,46 c 7.732,0 14,1.567125 14,3.5 z" style="opacity:.3;fill:url(#radialGradient3085)"/><path id="path4675" d="m25.5 38.499v7.001c-0.0272 1.8022-2.6162 3.0004-2.6162 3.0004-0.9248 0.08844-1.3847 0.44607-1.3847 1.0002 0 0.55408 0.62259 1.0001 1.3847 1.0001h18.232c0.7621 0 1.3847-0.44606 1.3847-1.0001 0-0.55408-0.45989-0.91171-1.3847-1.0002 0 0-2.589-1.1982-2.6162-3.0004v-7.001h-13z" style="stroke-linejoin:round;stroke-width:.99827;stroke-dashoffset:.5;stroke:none;stroke-linecap:round;enable-background:new;fill:url(#linearGradient3080)"/><path id="path4675-6" d="m 25.5,38.499 0,7.001 c -0.0272,1.8022 -2.6162,3.0004 -2.6162,3.0004 -0.9248,0.08844 -1.3847,0.44607 -1.3847,1.0002 0,0.55408 0.62259,1.0001 1.3847,1.0001 l 18.232,0 c 0.7621,0 1.3847,-0.44606 1.3847,-1.0001 0,-0.55408 -0.45989,-0.91171 -1.3847,-1.0002 0,0 -2.589,-1.1982 -2.6162,-3.0004 l 0,-7.001 -13,0 z" style="fill:none;stroke:#000;stroke-width:.99827462;stroke-linecap:round;stroke-linejoin:round;stroke-dashoffset:.5;enable-background:new;color:#000;clip-rule:nonzero;display:inline;overflow:visible;visibility:visible;opacity:.25;isolation:auto;mix-blend-mode:normal;color-interpolation:sRGB;color-interpolation-filters:linearRGB;solid-color:#000;solid-opacity:1;fill-opacity:1;fill-rule:nonzero;stroke-miterlimit:4;stroke-dasharray:none;stroke-opacity:1;marker:none;filter-blend-mode:normal;filter-gaussianBlur-deviation:0;color-rendering:auto;image-rendering:auto;shape-rendering:auto;text-rendering:auto"/><path id="path6096" d="m61 60.5c0 0.828-12.984 1.5-29 1.5s-29-0.672-29-1.5 12.984-1.5 29-1.5 29 0.672 29 1.5z" style="opacity:.5;fill:url(#radialGradient3063)"/><path id="path3698" d="m9.6795 53.499c-1.0339 0.25979-1.3445 1.4695-1.9892 2.2187-0.71315 1.0893-1.496 2.1389-2.1642 3.2539-0.32463 0.97871 0.51831 1.772 1.5002 1.5308h50.486c1.2557 0.01982 1.2151-1.6286 0.48968-2.2635-1.0838-1.4934-2.0869-3.062-3.2205-4.5089-1.0625-0.451-2.296-0.13781-3.436-0.23097-13.889-0.000007-27.778 0.000013-41.666-0.00001z" style="stroke-width:.996;stroke-dashoffset:.3612;stroke:none;stroke-linecap:square;enable-background:new;fill:url(#linearGradient4430)"/><path id="path3702" d="m10.893 53.5-2.893 5.5l31-0.007-0.88427-5.493h-27.222v0.000141zm28.107 0.5l1 2h6l-1-2h-6zm7.5 0 1.5 4.9931h8l-2.488-4.993h-7.012zm-4.2866 3.0157 0.15913 0.87888h-2.3725l0.5 1.0986h6.5l-0.5-1.0986h-1.9937l-0.25314-0.87888h-2.0398z" style="opacity:.83105;fill-rule:evenodd;enable-background:new;fill:#1e1e1e"/><path id="path3704" d="m11 53-3 5h31l-1-5h-27zm28 0.000002l0.978 2h6.047l-1.025-2h-6zm7.5 0 1.715 5h7.785l-3-5h-6.5zm-4.5 3 0.5 1h-2.5l0.5 1h6.5l-0.5-1h-2l-0.5-1h-2z" style="enable-background:new;fill:url(#linearGradient3056);fill-rule:evenodd"/><path id="rect4584" d="m12.281 53c-1.06 0.568 0.777 1.703 0.719 0.447 0.098-0.491-0.395-0.463-0.719-0.447zm2 0c-1.06 0.568 0.777 1.703 0.719 0.447 0.098-0.491-0.395-0.463-0.719-0.447zm2 0c-1.06 0.568 0.777 1.703 0.719 0.447 0.098-0.491-0.395-0.463-0.719-0.447zm2 0c-1.06 0.568 0.777 1.703 0.719 0.447 0.098-0.491-0.395-0.463-0.719-0.447zm2 0c-1.06 0.568 0.777 1.703 0.719 0.447 0.098-0.491-0.395-0.463-0.719-0.447zm2 0c-1.06 0.568 0.777 1.703 0.719 0.447 0.098-0.491-0.395-0.463-0.719-0.447zm2 0c-1.06 0.568 0.777 1.703 0.719 0.447 0.098-0.491-0.395-0.463-0.719-0.447zm2 0c-1.06 0.568 0.777 1.703 0.719 0.447 0.098-0.491-0.395-0.463-0.719-0.447zm2 0c-1.06 0.568 0.777 1.703 0.719 0.447 0.098-0.491-0.395-0.463-0.719-0.447zm2 0c-1.06 0.568 0.777 1.703 0.719 0.447 0.098-0.491-0.395-0.463-0.719-0.447zm2 0c-1.06 0.568 0.777 1.703 0.719 0.447 0.098-0.491-0.395-0.463-0.719-0.447zm2 0c-1.06 0.568 0.777 1.703 0.719 0.447 0.098-0.491-0.395-0.463-0.719-0.447zm2 0c-1.06 0.568 0.777 1.703 0.719 0.447 0.098-0.491-0.395-0.463-0.719-0.447zm4 0c-1.06 0.568 0.777 1.703 0.719 0.447 0.098-0.491-0.395-0.463-0.719-0.447zm2 0c-1.06 0.568 0.777 1.703 0.719 0.447 0.098-0.491-0.395-0.463-0.719-0.447zm2 0c-1.06 0.568 0.777 1.703 0.719 0.447 0.098-0.491-0.395-0.463-0.719-0.447zm-33 1c-1.06 0.568 0.777 1.703 0.719 0.447 0.098-0.491-0.395-0.463-0.719-0.447zm2 0c-1.06 0.568 0.777 1.703 0.719 0.447 0.098-0.491-0.395-0.463-0.719-0.447zm2 0c-1.06 0.568 0.777 1.703 0.719 0.447 0.098-0.491-0.395-0.463-0.719-0.447zm2 0c-1.06 0.568 0.777 1.703 0.719 0.447 0.098-0.491-0.395-0.463-0.719-0.447zm2 0c-1.06 0.568 0.777 1.703 0.719 0.447 0.098-0.491-0.395-0.463-0.719-0.447zm2 0c-1.06 0.568 0.777 1.703 0.719 0.447 0.098-0.491-0.395-0.463-0.719-0.447zm2 0c-1.06 0.568 0.777 1.703 0.719 0.447 0.098-0.491-0.395-0.463-0.719-0.447zm2 0c-1.06 0.568 0.777 1.703 0.719 0.447 0.098-0.491-0.395-0.463-0.719-0.447zm2 0c-1.06 0.568 0.777 1.703 0.719 0.447 0.098-0.491-0.395-0.463-0.719-0.447zm2 0c-1.06 0.568 0.777 1.703 0.719 0.447 0.098-0.491-0.395-0.463-0.719-0.447zm2 0c-1.06 0.568 0.777 1.703 0.719 0.447 0.098-0.491-0.395-0.463-0.719-0.447zm2 0c-1.06 0.568 0.777 1.703 0.719 0.447 0.098-0.491-0.395-0.463-0.719-0.447zm2 0c-1.06 0.568 0.777 1.703 0.719 0.447 0.098-0.491-0.395-0.463-0.719-0.447zm2 0c-1.06 0.568 0.777 1.703 0.719 0.447 0.098-0.491-0.395-0.463-0.719-0.447zm4 0c-1.06 0.568 0.777 1.703 0.719 0.447 0.098-0.491-0.395-0.463-0.719-0.447zm2 0c-1.06 0.568 0.777 1.703 0.719 0.447 0.098-0.491-0.395-0.463-0.719-0.447zm5 0c-1.06 0.568 0.777 1.703 0.719 0.447 0.098-0.491-0.395-0.463-0.719-0.447zm2 0c-1.06 0.568 0.777 1.703 0.719 0.447 0.098-0.491-0.395-0.463-0.719-0.447zm2 0c-1.06 0.568 0.777 1.703 0.719 0.447 0.098-0.491-0.395-0.463-0.719-0.447zm-42 1c-1.0597 0.568 0.777 1.703 0.719 0.447 0.098-0.491-0.395-0.463-0.719-0.447zm2 0c-1.06 0.568 0.777 1.703 0.719 0.447 0.098-0.491-0.395-0.463-0.719-0.447zm2 0c-1.06 0.568 0.777 1.703 0.719 0.447 0.098-0.491-0.395-0.463-0.719-0.447zm2 0c-1.06 0.568 0.777 1.703 0.719 0.447 0.098-0.491-0.395-0.463-0.719-0.447zm2 0c-1.06 0.568 0.777 1.703 0.719 0.447 0.098-0.491-0.395-0.463-0.719-0.447zm2 0c-1.06 0.568 0.777 1.703 0.719 0.447 0.098-0.491-0.395-0.463-0.719-0.447zm2 0c-1.06 0.568 0.777 1.703 0.719 0.447 0.098-0.491-0.395-0.463-0.719-0.447zm2 0c-1.06 0.568 0.777 1.703 0.719 0.447 0.098-0.491-0.395-0.463-0.719-0.447zm2 0c-1.06 0.568 0.777 1.703 0.719 0.447 0.098-0.491-0.395-0.463-0.719-0.447zm2 0c-1.06 0.568 0.777 1.703 0.719 0.447 0.098-0.491-0.395-0.463-0.719-0.447zm2 0c-1.06 0.568 0.777 1.703 0.719 0.447 0.098-0.491-0.395-0.463-0.719-0.447zm2 0c-1.06 0.568 0.777 1.703 0.719 0.447 0.098-0.491-0.395-0.463-0.719-0.447zm2 0c-1.06 0.568 0.777 1.703 0.719 0.447 0.098-0.491-0.395-0.463-0.719-0.447zm2 0c-1.06 0.568 0.777 1.703 0.719 0.447 0.098-0.491-0.395-0.463-0.719-0.447zm13 0c-1.06 0.568 0.777 1.703 0.719 0.447 0.098-0.491-0.395-0.463-0.719-0.447zm2 0c-1.06 0.568 0.777 1.703 0.719 0.447 0.098-0.491-0.395-0.463-0.719-0.447zm2 0c-1.06 0.568 0.777 1.703 0.719 0.447 0.098-0.491-0.395-0.463-0.719-0.447zm-44 1c-1.0597 0.568 0.777 1.703 0.719 0.447 0.098-0.491-0.3951-0.463-0.7188-0.447zm2 0c-1.06 0.568 0.777 1.703 0.719 0.447 0.098-0.491-0.395-0.463-0.719-0.447zm2 0c-1.06 0.568 0.777 1.703 0.719 0.447 0.098-0.491-0.395-0.463-0.719-0.447zm2 0c-1.06 0.568 0.777 1.703 0.719 0.447 0.098-0.491-0.395-0.463-0.719-0.447zm2 0c-1.06 0.568 0.777 1.703 0.719 0.447 0.098-0.491-0.395-0.463-0.719-0.447zm2 0c-1.06 0.568 0.777 1.703 0.719 0.447 0.098-0.491-0.395-0.463-0.719-0.447zm2 0c-1.06 0.568 0.777 1.703 0.719 0.447 0.098-0.491-0.395-0.463-0.719-0.447zm2 0c-1.06 0.568 0.777 1.703 0.719 0.447 0.098-0.491-0.395-0.463-0.719-0.447zm2 0c-1.06 0.568 0.777 1.703 0.719 0.447 0.098-0.491-0.395-0.463-0.719-0.447zm2 0c-1.06 0.568 0.777 1.703 0.719 0.447 0.098-0.491-0.395-0.463-0.719-0.447zm2 0c-1.06 0.568 0.777 1.703 0.719 0.447 0.098-0.491-0.395-0.463-0.719-0.447zm2 0c-1.06 0.568 0.777 1.703 0.719 0.447 0.098-0.491-0.395-0.463-0.719-0.447zm2 0c-1.06 0.568 0.777 1.703 0.719 0.447 0.098-0.491-0.395-0.463-0.719-0.447zm2 0c-1.06 0.568 0.777 1.703 0.719 0.447 0.098-0.491-0.395-0.463-0.719-0.447zm2 0c-1.06 0.568 0.777 1.703 0.719 0.447 0.098-0.491-0.395-0.463-0.719-0.447zm11 0c-1.06 0.568 0.777 1.703 0.719 0.447 0.098-0.491-0.395-0.463-0.719-0.447zm2 0c-1.06 0.568 0.777 1.703 0.719 0.447 0.098-0.491-0.395-0.463-0.719-0.447zm2 0c-1.06 0.568 0.777 1.703 0.719 0.447 0.098-0.491-0.395-0.463-0.719-0.447zm-11 1c-1.06 0.568 0.777 1.703 0.719 0.447 0.098-0.491-0.395-0.463-0.719-0.447zm2 0c-1.06 0.568 0.777 1.703 0.719 0.447 0.098-0.491-0.395-0.463-0.719-0.447zm2 0c-1.06 0.568 0.777 1.703 0.719 0.447 0.098-0.491-0.395-0.463-0.719-0.447z" style="opacity:.5;enable-background:new;fill:url(#linearGradient4427)"/><path id="path4848" d="m 26.509766,39.507812 0,5.992188 a 1.0097479,1.0097479 0 0 1 0,0.01563 c -0.02084,1.380858 -0.934379,2.332996 -1.69336,2.945313 -0.75898,0.612316 -1.507812,0.955078 -1.507812,0.955078 a 1.0097479,1.0097479 0 0 1 -0.234375,0.07422 l 17.845703,0 a 1.0097479,1.0097479 0 0 1 -0.228516,-0.07422 c 0,0 -0.748832,-0.342762 -1.507812,-0.955078 -0.758981,-0.612317 -1.672519,-1.564455 -1.69336,-2.945313 a 1.0097479,1.0097479 0 0 1 0,-0.01563 l 0,-5.992188 -10.980468,0 z" style="color:#000;clip-rule:nonzero;display:inline;overflow:visible;visibility:visible;opacity:.8;isolation:auto;mix-blend-mode:normal;color-interpolation:sRGB;color-interpolation-filters:linearRGB;solid-color:#000;solid-opacity:1;fill:none;fill-opacity:1;fill-rule:nonzero;stroke:url(#linearGradient3152-7);stroke-width:.99999994;stroke-linecap:round;stroke-linejoin:round;stroke-miterlimit:4;stroke-dasharray:none;stroke-dashoffset:0;stroke-opacity:1;marker:none;color-rendering:auto;image-rendering:auto;shape-rendering:auto;text-rendering:auto;enable-background:accumulate"/><rect id="rect2722" width="54" height="37" x="5" y="4" rx=".5" ry=".5" style="fill:url(#linearGradient3074);stroke:none;stroke-width:.99999994;stroke-linecap:round;stroke-linejoin:round;stroke-dashoffset:.5"/><rect style="color:#000;clip-rule:nonzero;display:inline;overflow:visible;visibility:visible;opacity:1;isolation:auto;mix-blend-mode:normal;color-interpolation:sRGB;color-interpolation-filters:linearRGB;solid-color:#000;solid-opacity:1;fill:url(#linearGradient12481-7);fill-opacity:1;fill-rule:nonzero;stroke:none;stroke-width:1;stroke-linecap:butt;stroke-linejoin:miter;stroke-miterlimit:4;stroke-dasharray:none;stroke-dashoffset:0;stroke-opacity:1;marker:none;color-rendering:auto;image-rendering:auto;shape-rendering:auto;text-rendering:auto;enable-background:accumulate" id="rect2573-3" width="50" height="33" x="7" y="6" rx="0" ry="0"/><rect id="rect2722-3" width="55" height="38" x="4.5" y="3.5" rx="1.002" ry="1.001" style="fill:none;stroke:url(#linearGradient3033);stroke-linecap:butt;stroke-linejoin:round;stroke-dashoffset:0;color:#000;clip-rule:nonzero;display:inline;overflow:visible;visibility:visible;opacity:1;isolation:auto;mix-blend-mode:normal;color-interpolation:sRGB;color-interpolation-filters:linearRGB;solid-color:#000;solid-opacity:1;fill-opacity:1;fill-rule:nonzero;stroke-width:.99992192;stroke-miterlimit:4;stroke-dasharray:none;stroke-opacity:1;filter-blend-mode:normal;filter-gaussianBlur-deviation:0;color-rendering:auto;image-rendering:auto;shape-rendering:auto;text-rendering:auto;enable-background:accumulate"/><rect id="rect2722-7" width="53" height="36" x="5.5" y="4.5" style="color:#000;clip-rule:nonzero;display:inline;overflow:visible;visibility:visible;opacity:1;isolation:auto;mix-blend-mode:normal;color-interpolation:sRGB;color-interpolation-filters:linearRGB;solid-color:#000;solid-opacity:1;fill:none;fill-opacity:1;fill-rule:nonzero;stroke:url(#linearGradient3093-0);stroke-width:1;stroke-linecap:round;stroke-linejoin:round;stroke-miterlimit:4;stroke-dasharray:none;stroke-dashoffset:0;stroke-opacity:1;color-rendering:auto;image-rendering:auto;shape-rendering:auto;text-rendering:auto;enable-background:accumulate"/><path id="path3698-1" d="m 9.6795,53.499001 c -1.0339,0.25979 -1.3445,1.4695 -1.9892,2.2187 -0.71315,1.0893 -1.496,2.1389 -2.1642,3.2539 -0.32463,0.97871 0.51831,1.772 1.5002,1.5308 l 50.486,0 c 1.2557,0.01982 1.2151,-1.6286 0.48968,-2.2635 -1.0838,-1.4934 -2.0869,-3.062 -3.2205,-4.5089 -1.0625,-0.451 -2.296,-0.13781 -3.436,-0.23097 -13.889,-7e-6 -27.778,1.3e-5 -41.666,-1e-5 z" style="fill:none;stroke:url(#linearGradient5055);stroke-width:.99992192;stroke-linecap:butt;stroke-dashoffset:0;enable-background:accumulate;color:#000;clip-rule:nonzero;display:inline;overflow:visible;visibility:visible;opacity:1;isolation:auto;mix-blend-mode:normal;color-interpolation:sRGB;color-interpolation-filters:linearRGB;solid-color:#000;solid-opacity:1;fill-opacity:1;fill-rule:nonzero;stroke-linejoin:round;stroke-miterlimit:4;stroke-dasharray:none;stroke-opacity:1;filter-blend-mode:normal;filter-gaussianBlur-deviation:0;color-rendering:auto;image-rendering:auto;shape-rendering:auto;text-rendering:auto"/><path id="path3942-6" d="m 6.9999998,6 0,33 L 57,39 57,6 6.9999998,6 Z m 0.8928571,0.9166667 48.2142851,0 0,31.1666663 -48.2142851,0 0,-31.1666663 z" style="display:inline;opacity:.25;fill:#000;fill-opacity:1;stroke:none"/></svg>