<svg xmlns="http://www.w3.org/2000/svg" xmlns:xlink="http://www.w3.org/1999/xlink" id="svg3320" width="16" height="16" version="1.0"><defs id="defs3322"><radialGradient id="radialGradient2848" cx="-1.75" cy="-9.28" r="18.657" gradientTransform="matrix(-.0034338 .85760 -.80521 -.0032241 -2.4788 3.4708)" gradientUnits="userSpaceOnUse"><stop id="stop3701" offset="0" style="stop-color:#f8b17e"/><stop id="stop3703" offset=".262" style="stop-color:#e35d4f"/><stop id="stop3705" offset=".747" style="stop-color:#c6262e"/><stop id="stop3707" offset="1" style="stop-color:#690b54"/></radialGradient><linearGradient id="linearGradient3697" x1="3.82" x2="4" y1="18.827" gradientUnits="userSpaceOnUse"><stop id="stop2492" offset="0" style="stop-color:#791235"/><stop id="stop2494" offset="1" style="stop-color:#dd3b27"/></linearGradient><linearGradient id="linearGradient3715" x1="7.193" x2="7.193" y1="1.804" y2="23.644" gradientUnits="userSpaceOnUse"><stop id="stop4875" offset="0" style="stop-color:#fff"/><stop id="stop4877" offset="1" style="stop-color:#fff;stop-opacity:0"/></linearGradient></defs><g id="layer1"><path id="path2160" d="m14.519 14.154-4.9831-1.731-4.0665 3.058-0.9489-4.002-3.9432 1.002 2.9276-3.9791-2.6998-3.994 3.7625 0.0313 1.4665-4.049 3.3404 2.2374 5.0135-2.0552-1.983 4.9261 3.103 2.52-3.088 1.4633 2.099 4.5722z" style="stroke-linejoin:round;stroke:url(#linearGradient3697);stroke-linecap:round;stroke-width:.985;fill:url(#radialGradient2848)"/><path id="rect3153" d="m7.0001 3.9996h2l-0.55978 4h-0.96879l-0.4714-4z" style="fill:#fff"/><path id="path3157" d="m12.969 13.547a1.4219 1.4219 0 1 1 -2.8438 0 1.4219 1.4219 0 1 1 2.8438 0z" transform="matrix(.70329 0 0 .70330 -.12063 .47217)" style="fill:#fff"/><path id="path3200" d="m9.2188 3.0938-1.375 3.9687a1.2894 1.2894 0 0 1 -1.2188 0.8437l-2.625-0.0312 2.25 3.437a1.2894 1.2894 0 0 1 0 1.4688l-1.8125 2.531 1.8125-0.468a1.2894 1.2894 0 0 1 1.5625 0.96875l0.8125 3.5 3.8125-2.9375a1.2894 1.2894 0 0 1 1.2188 -0.1875l3.781 1.343-1.563-3.469a1.2894 1.2894 0 0 1 0.625 -1.687l2.344-1.125-2.594-2.1562a1.2894 1.2894 0 0 1 -0.375 -1.4688l1.5312-3.9062-3.875 1.625a1.2894 1.2894 0 0 1 -1.2188 -0.125l-3.0938-2.125z" transform="matrix(.75085 0 0 .73262 -.40098 -.32175)" style="opacity:.4;stroke:url(#linearGradient3715);stroke-linecap:round;stroke-width:1.3276;fill:none"/></g></svg>