<svg xmlns="http://www.w3.org/2000/svg" xmlns:svg="http://www.w3.org/2000/svg" xmlns:xlink="http://www.w3.org/1999/xlink" id="svg7324" width="48" height="48" version="1.1"><metadata id="metadata68"/><defs id="defs7326"><linearGradient id="linearGradient4207"><stop style="stop-color:#4d5e31;stop-opacity:1" id="stop4209" offset="0"/><stop style="stop-color:#87a556;stop-opacity:1" id="stop4211" offset="1"/></linearGradient><linearGradient id="linearGradient4197"><stop style="stop-color:#abc187;stop-opacity:1" id="stop4199" offset="0"/><stop style="stop-color:#87a556;stop-opacity:1" id="stop4201" offset=".262"/><stop style="stop-color:#657b40;stop-opacity:1" id="stop4203" offset=".661"/><stop style="stop-color:#4a5a2f;stop-opacity:1" id="stop4205" offset="1"/></linearGradient><linearGradient id="linearGradient3269"><stop id="stop3271" offset="0" style="stop-color:#787878"/><stop id="stop3273" offset=".344" style="stop-color:#bebebe"/><stop id="stop3275" offset=".373" style="stop-color:#c8c8c8"/><stop id="stop3277" offset=".49" style="stop-color:#e6e6e6"/><stop id="stop3279" offset="1" style="stop-color:#8c8c8c"/></linearGradient><linearGradient id="linearGradient3257"><stop id="stop3259" offset="0" style="stop-color:#3c3c3c"/><stop id="stop3261" offset=".348" style="stop-color:#8c8c8c"/><stop id="stop3263" offset=".366" style="stop-color:#969696"/><stop id="stop3265" offset=".494" style="stop-color:#bebebe"/><stop id="stop3267" offset="1" style="stop-color:#5a5a5a"/></linearGradient><linearGradient id="linearGradient6592"><stop id="stop6594" offset="0" style="stop-color:#fff;stop-opacity:.27451"/><stop id="stop6596" offset="1" style="stop-color:#fff;stop-opacity:0"/></linearGradient><linearGradient id="linearGradient6544"><stop id="stop6546" offset="0" style="stop-color:#f0f0f0"/><stop id="stop6548" offset="1" style="stop-color:#d2d2d2"/></linearGradient><linearGradient id="linearGradient10691"><stop id="stop10693" offset="0"/><stop id="stop10695" offset="1" style="stop-opacity:0"/></linearGradient><linearGradient id="linearGradient2951" x1="46.581" x2="46.164" y1="42.182" y2="29.439" gradientTransform="matrix(.67871 0 0 .71886 -.43159 13.87)" gradientUnits="userSpaceOnUse"><stop id="stop3698" offset="0" style="stop-color:#969696"/><stop id="stop3700" offset="1" style="stop-color:#505050"/></linearGradient><radialGradient id="radialGradient2908" cx="6.703" cy="73.616" r="7.228" gradientTransform="matrix(.83006 0 0 .20751 28.436 7.2237)" gradientUnits="userSpaceOnUse" xlink:href="#linearGradient10691"/><linearGradient id="linearGradient2910" x1="321.58" x2="321.58" y1="86.05" y2="96.245" gradientTransform="matrix(.41035 0 0 .51289 -97.323 -25.968)" gradientUnits="userSpaceOnUse" xlink:href="#linearGradient3269"/><linearGradient id="linearGradient2912" x1="22.452" x2="22.452" y1="30.05" y2="40.186" gradientTransform="matrix(.41182 0 0 .51282 24.116 2.7569)" gradientUnits="userSpaceOnUse" xlink:href="#linearGradient3257"/><linearGradient id="linearGradient2914" x1="20.147" x2="20.104" y1="0" y2="31.983" gradientTransform="matrix(.42622 0 0 .45209 25.27 2.267)" gradientUnits="userSpaceOnUse" xlink:href="#linearGradient6544"/><linearGradient id="linearGradient2920" x1="12.938" x2="15.25" y1="8.438" y2="19.812" gradientTransform="matrix(.40476 0 0 .46667 25.786 2.4336)" gradientUnits="userSpaceOnUse" xlink:href="#linearGradient6592"/><radialGradient id="radialGradient2938" cx="6.703" cy="73.616" r="7.228" gradientTransform="matrix(.83006 0 0 .20751 8.4364 30.224)" gradientUnits="userSpaceOnUse" xlink:href="#linearGradient10691"/><linearGradient id="linearGradient2940" x1="321.58" x2="321.58" y1="86.05" y2="96.245" gradientTransform="matrix(.41035 0 0 .51289 -117.32 -2.9677)" gradientUnits="userSpaceOnUse" xlink:href="#linearGradient3269"/><linearGradient id="linearGradient2942" x1="22.452" x2="22.452" y1="30.05" y2="40.186" gradientTransform="matrix(.41182 0 0 .51282 4.1162 25.757)" gradientUnits="userSpaceOnUse" xlink:href="#linearGradient3257"/><linearGradient id="linearGradient2944" x1="20.147" x2="20.104" y1="0" y2="31.983" gradientTransform="matrix(.42622 0 0 .45209 5.2705 25.267)" gradientUnits="userSpaceOnUse" xlink:href="#linearGradient6544"/><linearGradient id="linearGradient2950" x1="12.938" x2="15.25" y1="8.438" y2="19.812" gradientTransform="matrix(.40476 0 0 .46667 5.7857 25.434)" gradientUnits="userSpaceOnUse" xlink:href="#linearGradient6592"/><linearGradient id="linearGradient3242-593-605-251-305"><stop id="stop2749" offset="0" style="stop-color:#abc187;stop-opacity:1"/><stop id="stop2751" offset=".262" style="stop-color:#87a556;stop-opacity:1"/><stop id="stop2753" offset=".661" style="stop-color:#657b40;stop-opacity:1"/><stop id="stop2755" offset="1" style="stop-color:#4a5a2f;stop-opacity:1"/></linearGradient><linearGradient id="linearGradient3332-412-419-652-471"><stop id="stop2759" offset="0" style="stop-color:#4d5e31;stop-opacity:1"/><stop id="stop2761" offset="1" style="stop-color:#87a556;stop-opacity:1"/></linearGradient><radialGradient id="radialGradient2843" cx="26.617" cy="-2.064" r="23" gradientTransform="matrix(0 -.34355 .58896 0 39.034 21.115)" gradientUnits="userSpaceOnUse" xlink:href="#linearGradient3242-593-605-251-305"/><linearGradient id="linearGradient2845" x1="10.014" x2="10.014" y1="44.96" y2="2.877" gradientTransform="matrix(.40374 0 0 .29126 24.299 3.6246)" gradientUnits="userSpaceOnUse" xlink:href="#linearGradient3332-412-419-652-471"/><radialGradient id="radialGradient2892" cx="26.617" cy="-2.064" r="23" gradientTransform="matrix(0 -.34355 .58896 0 19.034 44.031)" gradientUnits="userSpaceOnUse" xlink:href="#linearGradient4197"/><linearGradient id="linearGradient2894" x1="10.014" x2="10.014" y1="44.96" y2="2.877" gradientTransform="matrix(.40374 0 0 .29126 4.2992 26.541)" gradientUnits="userSpaceOnUse" xlink:href="#linearGradient4207"/></defs><path id="path7035" d="m36.689 21.667c8.9288-0.64651 0.4868 3.5031-4.8675 7.4178-4.3846 4.7632 5.8519 4.088 7.3557 10.069 1.0935 4.349-6.9948 4.6081-10.056 4.3638-2.467 0.241-9.189-0.753-12.621 1.982" style="stroke:url(#linearGradient2951);stroke-linecap:round;fill:none"/><path id="path2892" d="m40 22.5c0 0.828-2.686 1.5-6 1.5s-6-0.672-6-1.5 2.686-1.5 6-1.5 6 0.672 6 1.5z" style="opacity:.5;fill:url(#radialGradient2908)"/><path id="path2894" d="m31.772 16.346v3.5903c-0.0091 0.92422-0.81125 1.5387-0.81125 1.5387-0.30832 0.04535-0.46164 0.22875-0.46164 0.5129 0 0.28414 0.20756 0.51289 0.46164 0.51289h6.0784c0.25408 0 0.46164-0.22875 0.46164-0.51289s-0.15332-0.46754-0.46164-0.5129c0 0-0.80496-0.61446-0.81403-1.5387v-3.5903h-4.4532z" style="stroke-linejoin:round;stroke-width:.99827;stroke-dashoffset:.5;stroke:url(#linearGradient2912);stroke-linecap:round;enable-background:new;fill:url(#linearGradient2910)"/><rect id="rect2896" width="22.909" height="15.939" x="22.591" y="2.622" rx=".5" ry=".5" style="stroke-linejoin:round;stroke-dashoffset:.5;stroke:#969696;stroke-linecap:round;fill:url(#linearGradient2914)"/><rect id="rect3063" width="18.998" height="11.998" x="24.501" y="4.585" style="stroke-linejoin:round;stroke-width:1.0021;fill-rule:evenodd;stroke:url(#linearGradient2845);stroke-linecap:round;fill:url(#radialGradient2843)"/><rect id="rect2900" width="17.909" height="1" x="25.091" y="5" style="opacity:.8;fill:#fff"/><rect id="rect2902" width="5" height="4" x="29" y="11" rx=".5" ry=".5" style="opacity:.9;fill:#fff"/><rect id="rect2904" width="6" height="5" x="36" y="7" rx=".5" ry=".5" style="opacity:.9;fill:#fff"/><path id="path2906" d="m24 3.8336h20v3.7333l-20 3.2667v-7z" style="fill:url(#linearGradient2920)"/><path id="path2922" d="m20 45.5c0 0.828-2.686 1.5-6 1.5s-6-0.672-6-1.5 2.686-1.5 6-1.5 6 0.672 6 1.5z" style="opacity:.5;fill:url(#radialGradient2938)"/><path id="path2924" d="m11.772 39.346v3.5903c-0.0091 0.92422-0.81125 1.5387-0.81125 1.5387-0.30832 0.04535-0.46164 0.22875-0.46164 0.5129 0 0.28414 0.20756 0.51289 0.46164 0.51289h6.0784c0.25408 0 0.46164-0.22875 0.46164-0.51289s-0.15332-0.46754-0.46164-0.5129c0 0-0.80496-0.61446-0.81403-1.5387v-3.5903h-4.4532z" style="stroke-linejoin:round;stroke-width:.99827;stroke-dashoffset:.5;stroke:url(#linearGradient2942);stroke-linecap:round;enable-background:new;fill:url(#linearGradient2940)"/><rect id="rect2926" width="22.909" height="15.939" x="2.591" y="25.622" rx=".5" ry=".5" style="stroke-linejoin:round;stroke-dashoffset:.5;stroke:#969696;stroke-linecap:round;fill:url(#linearGradient2944)"/><rect id="rect2890" width="18.998" height="11.998" x="4.501" y="27.501" style="stroke-linejoin:round;stroke-width:1.0021;fill-rule:evenodd;stroke:url(#linearGradient2894);stroke-linecap:round;fill:url(#radialGradient2892)"/><rect id="rect2932" width="5" height="4" x="10" y="35" rx=".5" ry=".5" style="opacity:.9;fill:#fff"/><rect id="rect2934" width="6" height="5" x="16" y="30" rx=".5" ry=".5" style="opacity:.9;fill:#fff"/><path id="rect7291" d="m5 28v1h1v5h4v-5h13v-1h-18z" style="opacity:.8;fill:#fff"/><path id="rect7293" d="m7 30v1h2v-1h-2zm0 2v1h2v-1h-2z" style="opacity:.2"/><path id="path2936" d="m4 26.834h20v3.7333l-20 3.2667v-7z" style="fill:url(#linearGradient2950)"/></svg>