<svg xmlns="http://www.w3.org/2000/svg" xmlns:svg="http://www.w3.org/2000/svg" xmlns:xlink="http://www.w3.org/1999/xlink" id="svg3443" width="48" height="48" version="1.0"><metadata id="metadata86"/><defs id="defs3445"><linearGradient id="linearGradient4254"><stop style="stop-color:#4e6827;stop-opacity:1" id="stop4256" offset="0"/><stop style="stop-color:#617f30;stop-opacity:1" id="stop4258" offset="1"/></linearGradient><linearGradient id="linearGradient4244"><stop style="stop-color:#b4c990;stop-opacity:1" id="stop4246" offset="0"/><stop style="stop-color:#b4c990;stop-opacity:1" id="stop4248" offset=".262"/><stop style="stop-color:#87a556;stop-opacity:1" id="stop4250" offset=".661"/><stop style="stop-color:#617f30;stop-opacity:1" id="stop4252" offset="1"/></linearGradient><linearGradient id="linearGradient4238"><stop style="stop-color:#fff" id="stop4240" offset="0"/><stop style="stop-color:#617f30;stop-opacity:0" id="stop4242" offset="1"/></linearGradient><linearGradient id="linearGradient4232"><stop style="stop-color:#617f30;stop-opacity:1" id="stop4234" offset="0"/><stop style="stop-color:#b4c990;stop-opacity:1" id="stop4236" offset="1"/></linearGradient><radialGradient id="radialGradient3047" cx="605.71" cy="486.65" r="117.14" gradientTransform="matrix(-2.7744 0 0 1.9697 112.76 -872.89)" gradientUnits="userSpaceOnUse" xlink:href="#linearGradient5060"/><radialGradient id="radialGradient3045" cx="605.71" cy="486.65" r="117.14" gradientTransform="matrix(2.7744 0 0 1.9697 -1891.6 -872.89)" gradientUnits="userSpaceOnUse" xlink:href="#linearGradient5060"/><linearGradient id="linearGradient3043" x1="302.86" x2="302.86" y1="366.65" y2="609.51" gradientTransform="matrix(2.7744 0 0 1.9697 -1892.2 -872.89)" gradientUnits="userSpaceOnUse" xlink:href="#linearGradient5048"/><linearGradient id="linearGradient3426" x1="41.618" x2="41.618" y1="35" y2="4.999" gradientUnits="userSpaceOnUse" xlink:href="#linearGradient4254"/><linearGradient id="linearGradient3877" x1="21.882" x2="21.882" y1="14.68" y2="42.669" gradientTransform="matrix(1.1404 0 0 1.1392 13.045 -11.723)" gradientUnits="userSpaceOnUse" xlink:href="#linearGradient4244"/><linearGradient id="linearGradient3418" x1="37.78" x2="37.78" y1="5.909" y2="33.849" gradientUnits="userSpaceOnUse" xlink:href="#linearGradient3518"/><linearGradient id="linearGradient3871" x1="14.828" x2="14.828" y1="25.623" y2="36.141" gradientTransform="matrix(.98513 0 0 1.1409 17.393 -15.233)" gradientUnits="userSpaceOnUse" xlink:href="#linearGradient4232"/><linearGradient id="linearGradient3868" x1="17.457" x2="17.457" y1="41.435" y2="27.232" gradientTransform="matrix(.98393 0 0 1.1425 15.282 -11.671)" gradientUnits="userSpaceOnUse" xlink:href="#linearGradient4238"/><linearGradient id="linearGradient9366"><stop id="stop9368" offset="0" style="stop-color:#617f30;stop-opacity:1"/><stop id="stop9370" offset="1" style="stop-color:#b4c990;stop-opacity:1"/></linearGradient><radialGradient id="radialGradient3865" cx="18.164" cy="22.224" r="2.842" gradientTransform="matrix(.97765 0 0 .98166 14.772 -9.5294)" gradientUnits="userSpaceOnUse" xlink:href="#linearGradient9366"/><linearGradient id="linearGradient3420"><stop id="stop3422" offset="0" style="stop-color:#4e6827;stop-opacity:1"/><stop id="stop3424" offset="1" style="stop-color:#617f30;stop-opacity:1"/></linearGradient><linearGradient id="linearGradient3441" x1="35.947" x2="35.947" y1="16.116" y2="-.275" gradientUnits="userSpaceOnUse" xlink:href="#linearGradient3420"/><linearGradient id="linearGradient3839"><stop id="stop3841" offset="0" style="stop-color:#b4c990;stop-opacity:1"/><stop id="stop3843" offset=".262" style="stop-color:#b4c990;stop-opacity:1"/><stop id="stop3845" offset=".661" style="stop-color:#87a556;stop-opacity:1"/><stop id="stop3847" offset="1" style="stop-color:#617f30;stop-opacity:1"/></linearGradient><radialGradient id="radialGradient3862" cx="12.911" cy="13.002" r="7.489" gradientTransform="matrix(2.0559 0 0 1.7159 1.3085 -18.296)" gradientUnits="userSpaceOnUse" xlink:href="#linearGradient3839"/><radialGradient id="radialGradient3858" cx="17.097" cy="19.777" r="4.547" gradientTransform="matrix(1.378 0 0 .72648 9.0657 -5.3516)" gradientUnits="userSpaceOnUse"><stop id="stop3431" offset="0" style="stop-color:#4e6827;stop-opacity:1"/><stop id="stop3433" offset="1" style="stop-color:#617f30;stop-opacity:1"/></radialGradient><linearGradient id="linearGradient5060"><stop id="stop5062" offset="0"/><stop id="stop5064" offset="1" style="stop-opacity:0"/></linearGradient><linearGradient id="linearGradient5048"><stop id="stop5050" offset="0" style="stop-opacity:0"/><stop id="stop5056" offset=".5"/><stop id="stop5052" offset="1" style="stop-opacity:0"/></linearGradient><linearGradient id="linearGradient3953" x1="14.883" x2="13.401" y1="27.847" y2="20.069" gradientTransform="matrix(1.1404 0 0 1.1392 -3.955 -1.7232)" gradientUnits="userSpaceOnUse"><stop id="stop3570" offset="0" style="stop-color:#d6d6d6"/><stop id="stop3572" offset="1" style="stop-color:#f0f0f0"/></linearGradient><radialGradient id="radialGradient3950" cx="9.877" cy="34.067" r="10.984" gradientTransform="matrix(1.1345 0 0 1.2779 -7.1543 -16.998)" gradientUnits="userSpaceOnUse" xlink:href="#linearGradient3518"/><linearGradient id="linearGradient3947" x1="15.335" x2="15.335" y1="42.995" y2="27.212" gradientTransform="matrix(.98513 0 0 1.1409 .39262 -5.2328)" gradientUnits="userSpaceOnUse" xlink:href="#linearGradient4639"/><linearGradient id="linearGradient3518"><stop id="stop3520" offset="0" style="stop-color:#fff"/><stop id="stop3522" offset="1" style="stop-color:#fff;stop-opacity:0"/></linearGradient><linearGradient id="linearGradient3944" x1="17.457" x2="17.457" y1="41.435" y2="27.232" gradientTransform="matrix(.98393 0 0 1.1425 -1.7181 -1.6715)" gradientUnits="userSpaceOnUse" xlink:href="#linearGradient3518"/><linearGradient id="linearGradient4639"><stop id="stop4641" offset="0" style="stop-color:#555753"/><stop id="stop4643" offset="1" style="stop-color:#7c7f79"/></linearGradient><radialGradient id="radialGradient3941" cx="18.164" cy="22.224" r="2.842" gradientTransform="matrix(.97765 0 0 .98166 -2.228 .47064)" gradientUnits="userSpaceOnUse" xlink:href="#linearGradient4639"/><radialGradient id="radialGradient3938" cx="12.911" cy="13.002" r="7.489" gradientTransform="matrix(2.0559 0 0 1.7159 -15.692 -8.2959)" gradientUnits="userSpaceOnUse"><stop id="stop3562" offset="0" style="stop-color:#f0f0f0"/><stop id="stop3564" offset="1" style="stop-color:#c9c9c9"/></radialGradient><radialGradient id="radialGradient3934" cx="17.097" cy="19.777" r="4.547" gradientTransform="matrix(1.378 0 0 .72648 -7.9343 4.6484)" gradientUnits="userSpaceOnUse"><stop id="stop3552" offset="0" style="stop-color:#6f6f6f"/><stop id="stop3554" offset="1" style="stop-color:#969696"/></radialGradient></defs><g id="layer1"><g id="g3015" transform="matrix(.015268 0 0 .018814 46.08 30.835)" style="enable-background:new"><rect id="rect3017" width="1339.6" height="478.36" x="-1559.3" y="-150.7" style="opacity:.40206;fill:url(#linearGradient3043)"/><path id="path3019" d="m-219.62-150.68v478.33c142.88 0.9 345.4-107.17 345.4-239.2 0-132.02-159.44-239.13-345.4-239.13z" style="opacity:.40206;fill:url(#radialGradient3045)"/><path id="path3021" d="m-1559.3-150.68v478.33c-142.8 0.9-345.4-107.17-345.4-239.2 0-132.02 159.5-239.13 345.4-239.13z" style="opacity:.40206;fill:url(#radialGradient3047)"/></g><path id="path3023" d="m 30.389,5.5006 4.222,0 c 3.303728,0 7.11432,0.6853624 9.238157,1.3191619 C 44.868266,7.1238864 45.499,7.4161385 45.499,7.6151 l 0,25.777 c 0,0.613 -0.498,1.107 -1.117,1.107 l -23.764,0 c -0.619,0 -1.117,-0.494 -1.117,-1.107 l 0,-25.777 c 0,-0.6135 5.898,-2.1144 10.888,-2.1144 z" style="fill:url(#linearGradient3877);fill-opacity:1;fill-rule:evenodd;stroke:url(#linearGradient3426);stroke-width:1.00119996"/><path id="path3025" d="m30.651 6.4097h3.864c4.472 0 9.962 1.7366 9.962 1.7366v25.19h-23.788v-25.19c0 0.0003 5.397-1.7363 9.962-1.7363z" style="opacity:.4;stroke-linejoin:round;stroke:url(#linearGradient3418);stroke-width:1.0012;fill:none"/><path id="path3027" d="m32.456 11.496s-2.96 5.04-2.96 7.765v14.017l3.135 2.226 2.873-2.226v-14.219c0-2.282-3.048-7.563-3.048-7.563z" style="fill-rule:evenodd;stroke:#617f30;stroke-width:.991;fill:url(#linearGradient3871);stroke-miterlimit:4;stroke-dasharray:none;stroke-opacity:1"/><path id="path3029" d="m32.426 15.092l-1.973 5.04v12.623l2.1 1.447 1.91-1.447v-12.769l-2.037-4.894z" style="opacity:.4;stroke:url(#linearGradient3868);stroke-width:.99087;fill:none"/><path id="path3031" d="m34.82 13.295c-0.001 1.226-1.026 2.219-2.29 2.219s-2.289-0.993-2.29-2.219 1.025-2.22 2.29-2.22 2.291 0.994 2.29 2.22z" style="fill-rule:evenodd;stroke:#617f30;stroke-width:1.0012;fill:url(#radialGradient3865);stroke-opacity:1"/><path id="path3033" d="m32.583 11.278l-5.746 4.338s-2.117-6.3542-2.117-9.1808c0-2.8247 1.512-3.9345 3.125-3.9345h9.576c1.091 0 2.999 0.454 3.226 3.7328 0.227 3.2787-2.318 9.3825-2.318 9.3825l-5.746-4.338z" style="fill-rule:evenodd;stroke:url(#linearGradient3441);stroke-width:1.0012;fill:url(#radialGradient3862)"/><path id="path3035" d="m28.999 5.2246s-2.07 0.557-1.705 1.8937c0.366 1.3367 1.947 3.4527 3.167 3.4527h5.238c1 0 2.405-1.7818 2.679-3.1185s-1.583-2.2279-1.583-2.2279h-7.796z" style="opacity:.3;fill-rule:evenodd;fill:#fff"/><path id="path3037" d="m28.798 4.1149s-2.071 0.5569-1.705 1.8937c0.365 1.3367 1.883 3.4532 3.166 3.4532h5.238c0.855 0 2.406-1.7823 2.68-3.119 0.274-1.3368-1.584-2.2279-1.584-2.2279h-7.795z" style="fill-rule:evenodd;fill:url(#radialGradient3858)"/><path id="path3039" d="m32.583 10.672l5.342 4.036 1.412-3.935-1.714 2.825-5.04-2.926z" style="opacity:.3;fill-rule:evenodd;fill:#fff"/><path id="path3041" d="m32.18 10.874l-5.04 3.834-1.714-7.5666 2.318 6.1536 4.436-2.421z" style="opacity:.3;fill-rule:evenodd;fill:#fff"/><g id="g6184" transform="matrix(.015268 0 0 .018814 29.08 40.835)" style="enable-background:new"><rect id="rect6186" width="1339.6" height="478.36" x="-1559.3" y="-150.7" style="opacity:.40206;fill:url(#linearGradient3043)"/><path id="path6188" d="m-219.62-150.68v478.33c142.88 0.9 345.4-107.17 345.4-239.2 0-132.02-159.44-239.13-345.4-239.13z" style="opacity:.40206;fill:url(#radialGradient3045)"/><path id="path6190" d="m-1559.3-150.68v478.33c-142.8 0.9-345.4-107.17-345.4-239.2 0-132.02 159.5-239.13 345.4-239.13z" style="opacity:.40206;fill:url(#radialGradient3047)"/></g><path id="path3580" d="m13.389 15.501h4.222c4.889 0 10.888 1.501 10.888 2.114v25.777c0 0.613-0.498 1.107-1.117 1.107h-23.764c-0.6191 0-1.1174-0.494-1.1174-1.107v-25.777c0-0.613 5.8981-2.114 10.888-2.114z" style="fill-rule:evenodd;stroke:#949494;stroke-width:1.0012;fill:url(#linearGradient3953)"/><path id="path3582" d="m13.651 16.41h3.864c4.472 0 9.962 1.736 9.962 1.736v25.19h-23.788l0.0002-25.19s5.3964-1.736 9.9618-1.736z" style="opacity:.6;stroke-linejoin:round;stroke:url(#radialGradient3950);stroke-width:1.0012;fill:none"/><path id="path3584" d="m15.456 21.496s-2.96 5.04-2.96 7.765v14.017l3.135 2.226 2.873-2.226v-14.219c0-2.282-3.048-7.563-3.048-7.563z" style="fill-rule:evenodd;stroke:#414141;stroke-width:.99144;fill:url(#linearGradient3947)"/><path id="path3586" d="m15.426 25.092l-1.973 5.04v12.623l2.1 1.447 1.91-1.447v-12.769l-2.037-4.894z" style="opacity:.4;stroke:url(#linearGradient3944);stroke-width:.99087;fill:none"/><path id="path3588" d="m17.82 23.295c-0.001 1.226-1.026 2.219-2.29 2.219s-2.289-0.993-2.29-2.219 1.025-2.22 2.29-2.22 2.291 0.994 2.29 2.22z" style="fill-rule:evenodd;stroke:#414141;stroke-width:1.0012;fill:url(#radialGradient3941)"/><path id="path3590" d="m15.583 21.278l-5.7459 4.338s-2.1168-6.354-2.1168-9.181c0-2.825 1.512-3.934 3.1247-3.934h9.576c1.091 0 2.999 0.454 3.226 3.732 0.227 3.279-2.318 9.383-2.318 9.383l-5.746-4.338z" style="fill-rule:evenodd;stroke:#8c8c8c;stroke-width:1.0012;fill:url(#radialGradient3938)"/><path id="path3592" d="m11.999 15.225s-2.0703 0.557-1.705 1.893c0.366 1.337 1.947 3.453 3.167 3.453h5.238c1 0 2.405-1.782 2.679-3.119 0.274-1.336-1.583-2.227-1.583-2.227h-7.796z" style="fill-rule:evenodd;fill:#fff"/><path id="path3594" d="m11.798 14.115s-2.0709 0.557-1.705 1.894c0.365 1.336 1.883 3.453 3.166 3.453h5.238c0.855 0 2.406-1.783 2.68-3.119 0.274-1.337-1.584-2.228-1.584-2.228h-7.795z" style="fill-rule:evenodd;fill:url(#radialGradient3934)"/><path id="path4604" d="m15.583 20.672l5.342 4.036 1.412-3.935-1.714 2.825-5.04-2.926z" style="opacity:.61988;fill-rule:evenodd;fill:#fff"/><path id="path4607" d="m15.18 20.874l-5.04 3.834-1.7141-7.567 2.3181 6.154 4.436-2.421z" style="opacity:.61988;fill-rule:evenodd;fill:#fff"/></g></svg>