<svg xmlns="http://www.w3.org/2000/svg" xmlns:svg="http://www.w3.org/2000/svg" xmlns:xlink="http://www.w3.org/1999/xlink" id="svg4162" width="48" height="48" version="1.1"><defs id="defs4164"><radialGradient id="radialGradient3460" cx="88" cy="136" r="56" fx="88" fy="136" gradientTransform="matrix(1,0,0,0.14285714,0,116.57143)" gradientUnits="userSpaceOnUse" xlink:href="#linearGradient4147-2"/><linearGradient id="linearGradient4147-2"><stop style="stop-color:#000;stop-opacity:1" id="stop4149-7" offset="0"/><stop style="stop-color:#000;stop-opacity:0" id="stop4151-3" offset="1"/></linearGradient><radialGradient id="radialGradient3462" cx="94" cy="432.5" r="21" fx="94" fy="432.5" gradientTransform="matrix(1.6666667,1.0068294e-7,-3.4519865e-8,0.57142858,-62.666652,719.21922)" gradientUnits="userSpaceOnUse" xlink:href="#linearGradient4008"/><linearGradient id="linearGradient4008"><stop style="stop-color:#eee;stop-opacity:1" id="stop4010" offset="0"/><stop style="stop-color:#b2b2b2;stop-opacity:1" id="stop4012" offset="1"/></linearGradient><linearGradient id="linearGradient3464" x1="102" x2="102" y1="995.362" y2="1030.362" gradientTransform="translate(0,-24)" gradientUnits="userSpaceOnUse" xlink:href="#linearGradient4025"/><linearGradient id="linearGradient4025"><stop style="stop-color:#b3b3b3;stop-opacity:1" id="stop4027" offset="0"/><stop style="stop-color:#737373;stop-opacity:1" id="stop4029" offset="1"/></linearGradient><linearGradient id="linearGradient3466" x1="90" x2="90" y1="1002.415" y2="1005.362" gradientUnits="userSpaceOnUse" xlink:href="#linearGradient4022"/><linearGradient id="linearGradient4022"><stop id="stop4024" offset="0" style="stop-color:#87a752;stop-opacity:1"/><stop id="stop4026" offset="1" style="stop-color:#688933;stop-opacity:1"/></linearGradient><linearGradient id="linearGradient3468" x1="94.234" x2="94.234" y1="461.03" y2="468.938" gradientUnits="userSpaceOnUse" xlink:href="#radialGradient2488"/><radialGradient id="radialGradient2488" cx="63.969" cy="14.113" r="23.097" gradientTransform="matrix(1.008,-6.1246e-8,3.9794e-8,0.65396,114.5926,1019.5096)" gradientUnits="userSpaceOnUse"><stop id="stop3618" offset="0" style="stop-color:#adc980"/><stop id="stop3270" offset=".5" style="stop-color:#87a752"/><stop id="stop3620" offset="1" style="stop-color:#688933"/></radialGradient><filter id="filter7008-1-41" width="1.112" height="1.786" x="-.056" y="-.393" color-interpolation-filters="sRGB"><feGaussianBlur id="feGaussianBlur7010-9-35" stdDeviation="2.622"/></filter><filter id="filter4649" width="1.112" height="1.786" x="-.056" y="-.393" color-interpolation-filters="sRGB"><feGaussianBlur id="feGaussianBlur4651" stdDeviation="2.621"/></filter><linearGradient id="linearGradient3470" x1="94" x2="94" y1="493" y2="467" gradientTransform="translate(0,540.36218)" gradientUnits="userSpaceOnUse" xlink:href="#linearGradient4073"/><linearGradient id="linearGradient4073"><stop style="stop-color:#000;stop-opacity:1" id="stop4075" offset="0"/><stop style="stop-color:#000;stop-opacity:0" id="stop4077" offset="1"/></linearGradient><linearGradient id="linearGradient3472" x1="94" x2="94" y1="493" y2="459.696" gradientTransform="translate(0,540.36218)" gradientUnits="userSpaceOnUse" xlink:href="#linearGradient4073"/><linearGradient id="linearGradient3474" x1="95" x2="105" y1="1010.362" y2="1035.362" gradientUnits="userSpaceOnUse" xlink:href="#linearGradient4033"/><linearGradient id="linearGradient4033"><stop style="stop-color:#bfbfbf;stop-opacity:1" id="stop4035" offset="0"/><stop style="stop-color:#8e8e8e;stop-opacity:1" id="stop4037" offset="1"/></linearGradient><linearGradient id="linearGradient3476" x1="89.381" x2="89.381" y1="468.545" y2="490.596" gradientUnits="userSpaceOnUse" xlink:href="#linearGradient4100-0"/><linearGradient id="linearGradient4100-0"><stop style="stop-color:#fff;stop-opacity:1" id="stop4102-52" offset="0"/><stop style="stop-color:#fff;stop-opacity:0" id="stop4104-3" offset="1"/></linearGradient><linearGradient id="linearGradient3478" x1="104" x2="129.308" y1="1033.362" y2="1033.228" gradientTransform="translate(104,-964.36218)" gradientUnits="userSpaceOnUse" spreadMethod="reflect" xlink:href="#linearGradient4100-0"/><radialGradient id="radialGradient4586" cx="203.5" cy="30.5" r="11.5" fx="203.5" fy="30.5" gradientTransform="matrix(1,0,0,0.13043478,0,26.521739)" gradientUnits="userSpaceOnUse" xlink:href="#linearGradient4563-4"/><linearGradient id="linearGradient4563-4"><stop style="stop-color:#fff;stop-opacity:1" id="stop4565-8" offset="0"/><stop style="stop-color:#fff;stop-opacity:0" id="stop4567-0" offset="1"/></linearGradient><linearGradient id="linearGradient3482" x1="103" x2="103" y1="1026.362" y2="1017.362" gradientTransform="translate(0,-24.000003)" gradientUnits="userSpaceOnUse" xlink:href="#radialGradient2496"/><radialGradient id="radialGradient2496" cx="3" cy="5.017" r="21" gradientTransform="matrix(0,1.0975,-1.3856,0,178.3546,1018.2433)" gradientUnits="userSpaceOnUse"><stop id="stop3486" offset="0" style="stop-color:#bdbdbd"/><stop id="stop3488" offset="1" style="stop-color:#d0d0d0"/></radialGradient><linearGradient id="linearGradient3484" x1="103.701" x2="103.701" y1="1018.316" y2="1028.026" gradientTransform="translate(0,-24)" gradientUnits="userSpaceOnUse" xlink:href="#linearGradient4147"/><linearGradient id="linearGradient4147"><stop style="stop-color:#000;stop-opacity:1" id="stop4149" offset="0"/><stop style="stop-color:#000;stop-opacity:0" id="stop4151" offset="1"/></linearGradient><linearGradient id="linearGradient3486" x1="104" x2="104" y1="479" y2="484" gradientTransform="matrix(1,0,0,0.8,0,612.16218)" gradientUnits="userSpaceOnUse" xlink:href="#linearGradient2494"/><linearGradient id="linearGradient2494" x1="62.989" x2="62.989" y1="13.183" y2="16.19" gradientTransform="matrix(0.64168,0,0,0.6402,137.4476,1016.4143)" gradientUnits="userSpaceOnUse"><stop id="stop6406" offset="0" style="stop-color:#f9f9f9"/><stop id="stop6408" offset="1" style="stop-color:#c9c9c9"/></linearGradient><linearGradient id="linearGradient3488" x1="103" x2="103" y1="1027.362" y2="1018.362" gradientTransform="matrix(1,0,0,-1,0,2019.7244)" gradientUnits="userSpaceOnUse" xlink:href="#linearGradient4100-0"/><radialGradient id="radialGradient4569" cx="203.5" cy="30.5" r="11.5" fx="203.5" fy="30.5" gradientTransform="matrix(1,0,0,0.13043478,0,26.521739)" gradientUnits="userSpaceOnUse" xlink:href="#linearGradient4563"/><linearGradient id="linearGradient4563"><stop style="stop-color:#fff;stop-opacity:1" id="stop4565" offset="0"/><stop style="stop-color:#fff;stop-opacity:0" id="stop4567" offset="1"/></linearGradient><radialGradient id="radialGradient4160" cx="203.5" cy="30.5" r="11.5" fx="203.5" fy="30.5" gradientTransform="matrix(1,0,0,0.13043478,0,26.521739)" gradientUnits="userSpaceOnUse" xlink:href="#linearGradient4563"/></defs><metadata id="metadata4167"/><g id="layer1" transform="translate(1395.4286,303.06642)"><g style="display:inline" id="48" transform="translate(-1475.4286,-1267.4286)"><path style="opacity:.4;color:#000;fill:url(#radialGradient3460);fill-opacity:1;fill-rule:nonzero;stroke:none;stroke-width:1;marker:none;visibility:visible;display:inline;overflow:visible;enable-background:accumulate" id="path6982-8" d="m 144,136 c 0,4.41828 -25.07205,8 -56,8 -30.927946,0 -56,-3.58172 -56,-8 0,-4.41828 25.072054,-8 56,-8 30.92795,0 56,3.58172 56,8 z" transform="matrix(0.42857135,0,0,0.56250009,66.285728,931.36217)"/><path style="fill:url(#radialGradient3462);fill-opacity:1;stroke:none" id="path3912" d="m 85.59375,966.36218 c -0.553998,0 -0.79425,0.48563 -1,1 l -1,2.5 c 0,0 -0.59375,1.5 -0.59375,2.5 0,0.554 0.446175,1.01385 1,1 l 20,-0.5 20,0.5 c 0.55383,0.0139 1,-0.446 1,-1 0,-1 -0.59375,-2.5 -0.59375,-2.5 l -1,-2.5 c -0.20575,-0.51437 -0.446,-1 -1,-1 l -18.40625,0 -18.40625,0 z"/><rect style="fill:url(#linearGradient3464);fill-opacity:1;stroke:none" id="rect3916" width="42" height="35" x="83" y="971.362" ry="1"/><rect style="fill:#1a1a1a;fill-opacity:1;stroke:none" id="rect3918" width="36" height="29" x="86" y="974.362" ry="1"/><rect style="fill:#2e4705;fill-opacity:1;stroke:none" id="rect3920" width="28" height="3.867" x="90" y="975.362" ry="1"/><path style="opacity:.3;fill:#fff;fill-opacity:1;stroke:none" id="path3922" d="m 84,970.36218 c -0.252299,0 -0.480675,0.0969 -0.65625,0.25 -0.165891,0.5245 -0.34375,1.18006 -0.34375,1.75 0,-0.554 0.446001,-1 1,-1 l 40,0 c 0.554,0 1,0.446 1,1 0,-0.56994 -0.17786,-1.2255 -0.34375,-1.75 -0.17558,-0.15308 -0.40395,-0.25 -0.65625,-0.25 l -40,0 z"/><rect id="rect3924" width="30" height="4" x="89" y="976.362" ry="1" style="fill:#4a6a17;fill-opacity:1;stroke:none"/><path style="fill:#688933;fill-opacity:1;stroke:none" id="path3926" d="m 88.999997,977.3622 21.000003,0 1.08334,-1 7.91666,0 c 0.554,0 1,0.446 1,1 l 0,3 c 0,0.554 -0.446,1 -1,1 l -30.000003,0 c -0.553998,0 -0.999997,-0.446 -0.999997,-1 l 0,-2 c 0,-0.554 0.445999,-1 0.999997,-1 z"/><g id="g3928" transform="translate(0,-25)"><path style="fill:url(#linearGradient3466);fill-opacity:1;stroke:none" id="path3930" d="m 88,1002.3622 c -0.553998,0 -1,0.446 -1,1 l 0,4 0.8125,0 10.1875,0 23,0 0,-3 c 0,-0.554 -0.446,-1 -1,-1 l -22,0 -1,-1 z"/><rect id="rect3932" width="34" height="4" x="87" y="465" ry="1" transform="translate(0,540.36218)" style="fill:url(#linearGradient3468);fill-opacity:1;stroke:none"/><path style="fill:#adc980;fill-opacity:1;stroke:none" id="path3934" d="m 88,464 c -0.553999,0 -1,0.446 -1,1 l 0,1 c 0,-0.554 0.446001,-1 1,-1 l 32,0 c 0.554,0 1,0.446 1,1 l 0,-1 c 0,-0.554 -0.446,-1 -1,-1 l -32,0 z" transform="translate(0,541.36218)"/><rect style="fill:#f2f2f2;fill-opacity:1;stroke:none" id="rect3936" width="30" height="1" x="89" y="463" transform="translate(0,541.36218)"/></g><path id="path6992-3" d="m 144,136 c 0,4.41828 -25.07205,8 -56,8 -30.927946,0 -56,-3.58172 -56,-8 0,-4.41828 25.072054,-8 56,-8 30.92795,0 56,3.58172 56,8 z" transform="matrix(0.38528407,0,0,0.1049559,70.095004,992.08818)" style="opacity:.3;color:#000;fill:#000;fill-opacity:1;fill-rule:nonzero;stroke:none;stroke-width:1;marker:none;visibility:visible;display:inline;overflow:visible;filter:url(#filter7008-1-41);enable-background:accumulate"/><path style="opacity:.5;color:#000;fill:#000;fill-opacity:1;fill-rule:nonzero;stroke:none;stroke-width:1;marker:none;visibility:visible;display:inline;overflow:visible;filter:url(#filter4649);enable-background:accumulate" id="path4639" d="m 144,136 c 0,4.41828 -25.07205,8 -56,8 -30.927946,0 -56,-3.58172 -56,-8 0,-4.41828 25.072054,-8 56,-8 30.92795,0 56,3.58172 56,8 z" transform="matrix(0.33712356,0,0,0.1049559,74.333129,995.08818)"/><g id="g3938" transform="translate(0,-24)"><path style="opacity:.05;fill:url(#linearGradient3470);fill-opacity:1;stroke:none" id="path3940" d="m 86.5,1005.2997 c -0.98188,0 -1.87629,0.3298 -2.46875,1.2187 -0.4132,0.62 -0.49403,1.1322 -0.59375,1.375 -0.16789,0.4088 -0.34768,0.9622 -0.4375,1.6875 l 0,19.7813 c 0,0.554 0.446,1 1,1 l 40,0 c 0.554,0 1,-0.446 1,-1 l 0,-19.7813 c -0.0899,-0.7257 -0.26994,-1.2795 -0.4375,-1.6875 -0.0997,-0.2428 -0.18055,-0.755 -0.59375,-1.375 -0.59246,-0.8889 -1.48689,-1.2187 -2.46875,-1.2187 l -17.5,0 -17.5,0 z"/><path style="opacity:.15;fill:url(#linearGradient3472);fill-opacity:1;stroke:none" id="path3942" d="m 86.5,1006.3309 c -0.5814,0 -1.29559,0.3339 -1.59375,0.7813 -0.29816,0.4473 -0.34063,0.7994 -0.5,1.1875 -0.21715,0.5287 -0.4272,1.0782 -0.4375,2.0625 l 0,20 c 0.0108,3e-4 0.0204,0 0.0312,0 l 40,0 c 0.0109,0 0.0205,3e-4 0.0312,0 l 0,-20 c -0.01,-0.9847 -0.22053,-1.5343 -0.4375,-2.0625 -0.15937,-0.3881 -0.20184,-0.7402 -0.5,-1.1875 -0.29816,-0.4474 -1.01235,-0.7813 -1.59375,-0.7813 l -17.5,0 -17.5,0 z"/><path id="path3944" d="m 86.5,467 c -0.788436,0 -0.79429,0.4311 -1.15625,1.3125 C 85.121997,468.8524 85.009423,469.0993 85,470 l 19,0 19,0 c -0.009,-0.9007 -0.122,-1.1476 -0.34375,-1.6875 C 122.29429,467.4311 122.28844,467 121.5,467 l -17.5,0 -17.5,0 z" transform="translate(0,540.36218)" style="fill:#d2d2d2;fill-opacity:1;stroke:none"/><rect id="rect3948" width="38" height="24" x="85" y="1009.362" ry="1" style="fill:url(#linearGradient3474);fill-opacity:1;stroke:none"/><path id="path3950" d="m 86,468 c -0.237302,0 -0.453893,0.0817 -0.625,0.21875 -0.01369,0.0345 -0.01645,0.0577 -0.03125,0.0937 C 85.121997,468.8524 85.009423,469.0993 85,470 c 0,-0.554 0.446001,-1 1,-1 l 36,0 c 0.554,0 1,0.446 1,1 -0.009,-0.9007 -0.122,-1.1476 -0.34375,-1.6875 -0.0148,-0.036 -0.0176,-0.0592 -0.0312,-0.0937 C 122.45389,468.08165 122.2373,468 122,468 l -36,0 z" transform="translate(0,540.36218)" style="opacity:.4;fill:#fff;fill-opacity:1;stroke:none"/><path style="opacity:.1;fill:url(#linearGradient3476);fill-opacity:1;stroke:none" id="path3952" d="m 86,469 c -0.553999,0 -1,0.446 -1,1 l 0,22 c 0,0.554 0.446001,1 1,1 l 16.1875,0 -9.5,-24 L 86,469 z" transform="translate(0,540.36218)"/><path style="opacity:.2;fill:url(#linearGradient3478);fill-opacity:1;stroke:none" id="rect3958" d="m 189,67 0,1 c 0,0.553999 0.446,1 1,1 l 36,0 c 0.554,0 1,-0.446001 1,-1 l 0,-1 c 0,0.553999 -0.446,1 -1,1 l -36,0 c -0.554,0 -1,-0.446001 -1,-1 z" transform="translate(-104,964.36218)"/><path style="opacity:.6;color:#000;fill:url(#radialGradient4586);fill-opacity:1;fill-rule:nonzero;stroke:none;stroke-width:1;marker:none;visibility:visible;display:inline;overflow:visible;enable-background:accumulate" id="path4561-9" d="m 215,30.5 c 0,0.828427 -5.14873,1.5 -11.5,1.5 -6.35127,0 -11.5,-0.671573 -11.5,-1.5 0,-0.828427 5.14873,-1.5 11.5,-1.5 6.35127,0 11.5,0.671573 11.5,1.5 z" transform="translate(-95,978.36218)"/></g><path style="opacity:.1;fill:#000;fill-opacity:1;stroke:none" id="path3971" d="m 99,1015.9375 c -1.328288,0 -2.4375,1.1091 -2.4375,2.4375 l 0,7 c 0,1.3284 1.108955,2.4378 2.4375,2.4375 l 10,0 c 1.32829,0 2.4375,-1.1091 2.4375,-2.4375 l 0,-7 c 0,-1.3284 -1.10895,-2.4378 -2.4375,-2.4375 l -10,0 z" transform="translate(0,-23.80002)"/><rect style="fill:url(#linearGradient3482);fill-opacity:1;stroke:none" id="rect3973" width="14" height="11" x="97" y="992.362" ry="2"/><rect id="rect3975" width="10" height="7" x="99" y="994.362" ry="1" style="opacity:.7;fill:url(#linearGradient3484);fill-opacity:1;stroke:none"/><rect id="rect3977" width="8" height="4" x="100" y="996.362" rx=".5" style="opacity:.6;fill:#000;fill-opacity:1;stroke:none"/><rect style="fill:url(#linearGradient3486);fill-opacity:1;stroke:none" id="rect3979" width="8" height="4" x="100" y="995.362" rx=".5"/><path style="opacity:.2;fill:#fff;fill-opacity:1;stroke:none" id="path3981" d="m 99,1000.3622 0,1 c 0,0.554 0.446,1 1,1 l 8,0 c 0.554,0 1,-0.446 1,-1 l 0,-1 c 0,0.554 -0.446,1 -1,1 l -8,0 c -0.554,0 -1,-0.446 -1,-1 z"/><path style="opacity:.5;fill:url(#linearGradient3488);fill-opacity:1;stroke:none" id="path3983" d="m 99,992.3622 c -1.107999,0 -2,0.892 -2,2 l 0,7 c 0,1.108 0.892001,2 2,2 l 10,0 c 1.108,0 2,-0.892 2,-2 l 0,-7 c 0,-1.108 -0.892,-2 -2,-2 l -10,0 z m 0,0.3437 10,0 c 0.9261,0 1.65625,0.7302 1.65625,1.6563 l 0,7 c 0,0.9261 -0.73015,1.6563 -1.65625,1.6562 l -10,0 c -0.926098,0 -1.65625,-0.7301 -1.65625,-1.6562 l 0,-7 c 0,-0.9261 0.730152,-1.6563 1.65625,-1.6563 z"/><rect style="opacity:.2;fill:none;stroke:none" id="rect3985" width="48" height="48" x="80" y="272" transform="translate(0,692.36218)"/><path style="opacity:.6;color:#000;fill:url(#radialGradient4160);fill-opacity:1;fill-rule:nonzero;stroke:none;stroke-width:1;marker:none;visibility:visible;display:inline;overflow:visible;enable-background:accumulate" id="path4561" d="m 215,30.5 c 0,0.828427 -5.14873,1.5 -11.5,1.5 -6.35127,0 -11.5,-0.671573 -11.5,-1.5 0,-0.828427 5.14873,-1.5 11.5,-1.5 6.35127,0 11.5,0.671573 11.5,1.5 z" transform="translate(-93,940.36218)"/></g></g></svg>