<svg xmlns="http://www.w3.org/2000/svg" xmlns:svg="http://www.w3.org/2000/svg" id="svg4284" width="171.84" height="105.6" version="1.1" viewBox="0 0 161.1 99"><metadata id="metadata4289"/><g id="layer1" transform="translate(309.12143,-511.43363)"><g id="Livello_4" class="cls-8" data-name="Livello 4" transform="translate(-732.78143,369.93363)" style="opacity:1"><polygon id="polygon46" points="569.63 220.59 562.47 163.79 584.76 231.48 584.76 231.48" class="cls-9" style="fill:#637f3d"/><polygon id="polygon48" points="555.3 193.79 569.63 220.59 562.47 163.79 562.47 163.79" class="cls-10" style="fill:#789c48"/><polygon id="polygon50" points="534.07 141.5 555.3 193.79 562.47 163.79 562.47 163.79" class="cls-11" style="fill:#68873f"/><polygon id="polygon52" points="550.79 220.59 534.07 197.77 555.3 193.79 555.3 193.79" class="cls-12" style="fill:#82a94e"/><polygon id="polygon54" points="541.77 225.37 550.79 220.59 534.07 197.77 534.07 197.77" class="cls-9" style="fill:#637f3d"/><polygon id="polygon56" points="535.66 235.99 555.3 235.99 541.77 225.37 541.77 225.37" class="cls-11" style="fill:#68873f"/><polygon id="polygon58" points="550.79 220.59 555.3 235.99 541.77 225.37 541.77 225.37" class="cls-13" style="fill:#799f49"/><polygon id="polygon60" points="512.57 170.16 555.3 193.79 534.07 197.77 534.07 197.77" class="cls-11" style="fill:#68873f"/><polygon id="polygon62" points="534.07 141.5 555.3 193.79 512.57 170.16 512.57 170.16" class="cls-13" style="fill:#799f49"/><polygon id="polygon64" points="505.67 203.34 534.07 197.77 512.57 170.16 512.57 170.16" class="cls-10" style="fill:#789c48"/><polygon id="polygon66" points="476.48 159.24 505.67 141.5 512.57 170.16 512.57 170.16" class="cls-11" style="fill:#68873f"/><polygon id="polygon68" points="534.07 141.5 512.57 170.16 505.67 141.5 505.67 141.5" class="cls-14" style="fill:#87ad51"/><polygon id="polygon70" points="476.48 159.24 512.57 170.16 505.67 203.34 505.67 203.34" class="cls-15" style="fill:#a8bd62"/><polygon id="polygon72" points="521.86 217.41 534.07 197.77 505.67 203.34 505.67 203.34" class="cls-15" style="fill:#a8bd62"/><polygon id="polygon74" points="529.82 228.29 521.86 217.41 534.07 197.77 534.07 197.77" class="cls-13" style="fill:#799f49"/><polygon id="polygon76" points="505.67 235.99 526.11 235.99 521.86 217.41 521.86 217.41" class="cls-11" style="fill:#68873f"/><polygon id="polygon78" points="529.82 228.29 521.86 217.41 526.11 235.99 526.11 235.99" class="cls-16" style="fill:#83a34b"/><polygon id="polygon80" points="500.89 237.85 493.2 223.78 505.67 203.34 505.67 203.34" class="cls-9" style="fill:#637f3d"/><polygon id="polygon82" points="486.56 240.5 500.89 237.85 493.2 223.78 493.2 223.78" class="cls-14" style="fill:#87ad51"/><polygon id="polygon84" points="493.2 223.78 493.2 223.78 493.2 223.78 483.38 203.34 505.67 203.34" class="cls-14" style="fill:#87ad51"/><polygon id="polygon86" points="476.48 159.24 505.67 203.34 483.38 203.34 483.38 203.34" class="cls-13" style="fill:#799f49"/><polygon id="polygon88" points="486.56 228.29 474.62 220.59 483.38 203.34 483.38 203.34" class="cls-9" style="fill:#637f3d"/><polygon id="polygon90" points="479.93 237.85 466.39 237.85 486.56 228.29 486.56 228.29" class="cls-11" style="fill:#68873f"/><polygon id="polygon92" points="474.62 220.59 486.56 228.29 466.39 237.85 466.39 237.85" class="cls-14" style="fill:#87ad51"/><polygon id="polygon94" points="466.39 197.77 483.38 203.34 474.62 220.59 474.62 220.59" class="cls-12" style="fill:#82a94e"/><polygon id="polygon96" points="476.48 159.24 483.38 203.34 466.39 197.77 466.39 197.77" class="cls-11" style="fill:#68873f"/><polygon id="polygon98" points="431.09 223.78 423.66 211.57 466.39 197.77 466.39 197.77" class="cls-16" style="fill:#83a34b"/><polygon id="polygon100" points="445.02 185.03 466.39 197.77 423.66 211.57 423.66 211.57" class="cls-15" style="fill:#a8bd62"/><polygon id="polygon102" points="457.63 174.94 466.39 197.77 445.02 185.03 445.02 185.03" class="cls-11" style="fill:#68873f"/><polygon id="polygon104" points="428.43 151.59 457.63 174.94 445.02 185.03 445.02 185.03" class="cls-16" style="fill:#83a34b"/><polygon id="polygon106" points="459.49 153.97 476.48 159.24 457.63 174.94 457.63 174.94" class="cls-10" style="fill:#789c48"/><polygon id="polygon108" points="466.39 197.77 457.63 174.94 476.48 159.24 476.48 159.24" class="cls-14" style="fill:#87ad51"/><polygon id="polygon110" points="470.63 148.13 476.48 159.24 459.49 153.97 459.49 153.97" class="cls-15" style="fill:#a8bd62"/></g></g></svg>