<svg xmlns="http://www.w3.org/2000/svg" xmlns:svg="http://www.w3.org/2000/svg" id="svg4247" width="918.933" height="801.28" version="1.1" viewBox="0 0 861.5 751.2"><metadata id="metadata4252"/><g id="layer1" transform="translate(16.46429,-145.33364)"><path id="path971" d="m 323.23571,277.13364 143.59999,-56.8 -251.79999,-75 108.2,131.8 z" class="st0" style="fill:#82a94e"/><path id="path973" d="m 547.1357,338.23364 127.5,32.1 -207.9,-150 80.4,117.9 z" class="st0" style="fill:#82a94e"/><path id="path975" d="m 466.7357,220.33364 19.3,178.9 61.1,-61.1 -80.4,-117.8 z" class="st1" style="fill:#637f3d"/><path id="path977" d="m 323.23571,277.13364 162.89999,122.1 -19.3,-178.9 -143.59999,56.8 z" class="st2" style="fill:#a8bd62"/><path id="path979" d="m 486.0357,399.33364 188.6,-28.9 -127.5,-32.2 -61.1,61.1 z" class="st2" style="fill:#a8bd62"/><path id="path981" d="m 486.0357,399.33364 225,92.1 -36.4,-121.1 -188.6,29 z" class="st3" style="fill:#68873f"/><path id="path983" d="m 486.0357,399.33364 130.7,191.80002 94.3,-99.60002 -225,-92.2 z" class="st2" style="fill:#a8bd62"/><path id="path985" d="m 747.5357,662.83366 97.5,-13.9 -134,-157.50002 36.5,171.40002 z" class="st3" style="fill:#68873f"/><path id="path987" d="m 616.7357,591.13366 130.7,71.8 -36.4,-171.40002 -94.3,99.60002 z" class="st2" style="fill:#a8bd62"/><path id="path989" d="m 643.5357,691.83366 103.9,-28.9 -130.7,-71.8 26.8,100.7 z" class="st3" style="fill:#68873f"/><path id="path991" d="m 845.0357,648.93366 -170.4,-278.60002 36.4,121.1 134,157.50002 z" class="st1" style="fill:#637f3d"/><path id="path997" d="m 575.0357,838.63366 68.6,-146.8 -86.8,84.6 18.2,62.2 z" class="st3" style="fill:#68873f"/><path id="path999" d="m 575.0357,838.63366 172.5,-175.7 -103.9,28.9 -68.6,146.8 z" class="st1" style="fill:#637f3d"/><path id="path1003" d="m 575.0357,838.63366 270,-189.6 -97.5,13.9 -172.5,175.7 z" class="st2" style="fill:#a8bd62"/><path id="path1149" d="m 313.53571,693.93366 140.39999,41.8 -6.4,-106.1 -133.99999,64.3 z" class="st3" style="fill:#68873f"/><path id="path1151" d="m 453.9357,735.73366 102.9,40.7 -109.3,-146.8 6.4,106.1 z" class="st2" style="fill:#a8bd62"/><path id="path1153" d="m 367.13571,853.63366 86.79999,-117.9 -140.39999,-41.8 53.6,159.7 z" class="st4" style="fill:#789c48"/><path id="path1157" d="m 556.7357,776.43366 -18.2,120 36.4,-57.9 -18.2,-62.1 z" class="st2" style="fill:#a8bd62"/><path id="path1159" d="m 453.9357,735.73366 84.6,160.7 18.2,-120 -102.8,-40.7 z" class="st3" style="fill:#68873f"/><path id="path1161" d="m 367.13571,853.63366 171.39999,42.9 -84.6,-160.7 -86.79999,117.8 z" class="st4" style="fill:#789c48"/><path id="path1163" d="m 235.33571,896.43366 303.19999,0 -171.39999,-42.8 -131.8,42.8 z" class="st1" style="fill:#637f3d"/><path id="path168" d="m 313.53571,693.93366 -32.4,21.5 86,138.1 -53.6,-159.6 z" class="st1" style="fill:#637f3d"/><path id="path1334" d="m 250.03571,420.03364 69.7,-53.8 -74.2,-68.9 4.5,122.7 z" class="st2" style="fill:#a8bd62"/><path id="path1336" d="m 160.63571,408.63364 89.4,11.4 -4.5,-122.7 -84.9,111.3 z" class="st4" style="fill:#789c48"/><path id="path1340" d="m 417.43571,496.53364 91.69999,-55.3 -189.39999,-75 97.7,130.3 z" class="st4" style="fill:#789c48"/><path id="path1342" d="m 264.43571,500.33364 55.3,-134.1 -69.7,53.8 14.4,80.3 z" class="st1" style="fill:#637f3d"/><path id="path1344" d="m 264.43571,500.33364 153,-3.8 -97.7,-130.3 -55.3,134.1 z" class="st2" style="fill:#a8bd62"/><path id="path1346" d="m 160.63571,408.63364 103.8,91.7 -14.4,-80.3 -89.4,-11.4 z" class="st5" style="fill:#87ad51"/><path id="path1350" d="m 417.43571,496.53364 152.99999,92.40002 -61.3,-147.70002 -91.69999,55.3 z" class="st4" style="fill:#789c48"/><path id="path1352" d="m 447.5357,629.63366 123,-40.7 -152.99999,-92.40002 29.99999,133.10002 z" class="st3" style="fill:#68873f"/><path id="path1354" d="m 220.43571,543.53366 93.1,150.5 -49.1,-193.60002 -44,43.10002 z" class="st1" style="fill:#637f3d"/><path id="path1358" d="m 313.53571,693.93366 133.89999,-64.3 -29.99999,-133.10002 -103.9,197.40002 z" class="st1" style="fill:#637f3d"/><path id="path1360" d="m 447.5357,629.63366 109.3,146.8 13.7,-187.5 -123,40.7 z" class="st4" style="fill:#789c48"/><path id="path166" d="m 417.43571,496.53364 -153,3.8 49.1,193.60002 103.9,-197.40002 z" class="st6" style="fill:#83a34b"/><path id="path1561" d="m 126.63571,468.93364 61.6,21.4 -27.6,-81.7 -34,60.3 z" class="st1" style="fill:#637f3d"/><path id="path1565" d="m 188.23571,490.33364 76.2,9.9 -103.8,-91.7 27.6,81.8 z" class="st3" style="fill:#68873f"/><path id="path1567" d="m -16.46429,477.53364 143,-8.6 -132.3,-45 -10.7,53.6 z" class="st4" style="fill:#789c48"/><path id="path1569" d="m 220.43571,543.53366 43.9,-43.20002 -76.2,-9.9 32.3,53.10002 z" class="st1" style="fill:#637f3d"/><path id="path1571" d="m 188.23571,490.33364 2.7,71.80002 29.6,-18.7 -32.3,-53.10002 z" class="st1" style="fill:#637f3d"/><path id="path1573" d="m 126.63571,468.93364 64.3,93.20002 -2.7,-71.80002 -61.6,-21.4 z" class="st4" style="fill:#789c48"/><path id="path1575" d="m -16.46429,477.53364 207.3,84.60002 -64.3,-93.20002 -143,8.6 z" class="st3" style="fill:#68873f"/><path id="path1902" d="m 161.43571,323.73364 84.1,-26.5 -101.9,-51.9 17.8,78.4 z" class="st4" style="fill:#789c48"/><path id="path1904" d="m 68.53571,333.23364 75,-87.9 -90.9,36.6 15.9,51.3 z" class="st1" style="fill:#637f3d"/><path id="path1906" d="m 68.53571,333.23364 92.8,-9.5 -17.8,-78.4 -75,87.9 z" class="st3" style="fill:#68873f"/><path id="path1908" d="m -14.76429,386.33364 83.3,-53 -15.9,-51.3 -67.4,104.3 z" class="st1" style="fill:#637f3d"/><path id="path1910" d="m 68.53571,333.23364 92.1,75.4 0.8,-84.9 -92.9,9.5 z" class="st6" style="fill:#83a34b"/><path id="path1912" d="m -14.76429,386.33364 89,41.7 -5.7,-94.7 -83.3,53 z" class="st2" style="fill:#a8bd62"/><path id="path1914" d="m 74.23571,427.93364 86.4,-19.3 -92.1,-75.4 5.7,94.7 z" class="st1" style="fill:#637f3d"/><path id="path1916" d="m 160.63571,408.63364 84.9,-111.4 -84.1,26.5 -0.8,84.9 z" class="st5" style="fill:#87ad51"/></g></svg>