<svg xmlns="http://www.w3.org/2000/svg" xmlns:svg="http://www.w3.org/2000/svg" id="svg4184" width="606.933" height="332.693" version="1.1" viewBox="0 0 569 311.9"><metadata id="metadata4189"/><g id="layer1" transform="translate(13.071429,-387.84078)"><path id="path618" d="m 372.32857,403.94078 68.5,20.3 -28.8,-36.4 -39.7,16.1 z" class="st0" style="fill:#a8bd62"/><path id="path620" d="m 372.32857,403.94078 28.8,104.9 39.8,-84.6 -68.6,-20.3 z" class="st1" style="fill:#87ad51"/><path id="path622" d="m 304.72857,506.34078 67.7,-102.4 -79.6,12.7 11.9,89.7 z" class="st0" style="fill:#a8bd62"/><path id="path626" d="m 217.52857,502.94078 87.1,3.4 -11.8,-89.7 -75.3,86.3 z" class="st2" style="fill:#637f3d"/><path id="path628" d="m 304.72857,506.34078 96.4,2.5 -28.8,-104.9 -67.6,102.4 z" class="st2" style="fill:#637f3d"/><path id="path630" d="m 401.12857,508.84078 69.4,32.1 -29.6,-116.7 -39.8,84.6 z" class="st3" style="fill:#68873f"/><path id="path632" d="m 470.52857,541.04078 85.4,-39.8 -115,-77 29.6,116.8 z" class="st3" style="fill:#68873f"/><path id="path634" d="m 313.12857,597.74078 88,-88.8 -96.4,-2.5 8.4,91.3 z" class="st3" style="fill:#68873f"/><path id="path636" d="m 217.52857,502.94078 95.6,94.7 -8.5,-91.4 -87.1,-3.3 z" class="st1" style="fill:#87ad51"/><path id="path638" d="m 226.02857,661.14078 87.1,-63.4 -95.6,-94.7 8.5,158.1 z" class="st0" style="fill:#a8bd62"/><path id="path640" d="m 355.42857,657.74078 45.7,-148.9 -88,88.8 42.3,60.1 z" class="st4" style="fill:#83a34b"/><path id="path642" d="m 435.42857,564.24078 35.1,-23.3 -69.4,-32.1 34.3,55.4 z" class="st1" style="fill:#87ad51"/><path id="path644" d="m 314.82857,674.64078 40.6,-16.9 -42.3,-60.1 1.7,77 z" class="st3" style="fill:#68873f"/><path id="path646" d="m 240.42857,672.14078 72.7,-74.4 -87.1,63.4 14.4,11 z" class="st3" style="fill:#68873f"/><path id="path648" d="m 240.42857,672.14078 74.4,2.5 -1.7,-77 -72.7,74.5 z" class="st5" style="fill:#789c48"/><path id="path719" d="m 435.42857,564.24078 -34.3,-55.4 -45.7,148.9 80,-93.5 z" class="st6" style="fill:#799f49"/><path id="path721" d="m 435.42857,564.24078 62.2,-3.4 -27.1,-19.9 -35.1,23.3 z" class="st3" style="fill:#68873f"/><path id="path713" d="m 314.82857,674.64078 107.5,8.3 -66.9,-25.2 -40.6,16.9 z" class="st3" style="fill:#68873f"/><path id="path715" d="m 226.02857,661.14078 -239.099999,38.6 253.499999,-27.6 -14.4,-11 z" class="st0" style="fill:#a8bd62"/></g></svg>