<svg xmlns="http://www.w3.org/2000/svg" xmlns:svg="http://www.w3.org/2000/svg" xmlns:xlink="http://www.w3.org/1999/xlink" id="svg1325" width="48" height="48" version="1.1"><defs id="defs1327"><linearGradient id="linearGradient2270"><stop style="stop-color:#fff;stop-opacity:1" id="stop2272" offset="0"/><stop style="stop-color:#fff;stop-opacity:0" id="stop2274" offset="1"/></linearGradient><linearGradient id="linearGradient2262"><stop style="stop-color:#d3d7cf;stop-opacity:1" id="stop2264" offset="0"/><stop style="stop-color:#d3d7cf;stop-opacity:0" id="stop2266" offset="1"/></linearGradient><linearGradient id="linearGradient2252"><stop style="stop-color:#888a85;stop-opacity:1" id="stop2254" offset="0"/><stop style="stop-color:#888a85;stop-opacity:0" id="stop2256" offset="1"/></linearGradient><linearGradient id="linearGradient2258" x1="31.875" x2="47.438" y1="17.438" y2="17.438" gradientTransform="translate(0,-8)" gradientUnits="userSpaceOnUse" xlink:href="#linearGradient2252"/><linearGradient id="linearGradient2268" x1="31.873" x2="46.705" y1="20.688" y2="20.688" gradientTransform="translate(0,-8)" gradientUnits="userSpaceOnUse" xlink:href="#linearGradient2262"/><linearGradient id="linearGradient1341" x1="23.997" x2="45.754" y1="18.375" y2="18.375" gradientTransform="translate(0,-8)" gradientUnits="userSpaceOnUse" xlink:href="#linearGradient2270"/><radialGradient id="radialGradient2218" cx="3.624" cy="2.005" r="23" fx="3.624" fy="2.005" gradientTransform="matrix(1.246687e-8,1.125998,-1.627297,3.116107e-17,6.886624,6.5312)" gradientUnits="userSpaceOnUse" xlink:href="#linearGradient2270"/></defs><metadata id="metadata1330"/><g id="layer1"><rect style="opacity:1;fill:url(#linearGradient2268);fill-opacity:1;stroke:url(#linearGradient2258);stroke-width:.99999952;stroke-linecap:butt;stroke-linejoin:round;stroke-miterlimit:4;stroke-dasharray:none;stroke-dashoffset:0;stroke-opacity:1" id="rect1333" width="46" height="29" x="2.5" y="9.5"/><rect style="opacity:.4;fill:none;fill-opacity:1;stroke:url(#linearGradient1341);stroke-width:.99999976;stroke-linecap:butt;stroke-linejoin:round;stroke-miterlimit:4;stroke-dasharray:none;stroke-dashoffset:0;stroke-opacity:1" id="rect2210" width="45" height="27" x="3.5" y="10.5"/><rect style="opacity:1;fill:none;fill-opacity:1;stroke:url(#radialGradient2218);stroke-width:.99999976;stroke-linecap:butt;stroke-linejoin:round;stroke-miterlimit:4;stroke-dasharray:none;stroke-dashoffset:0;stroke-opacity:1" id="rect2216" width="45" height="27" x="3.5" y="10.5"/><rect style="opacity:1;color:#000;fill:#dce0d8;fill-opacity:1;fill-rule:nonzero;stroke:#888a85;stroke-width:1;stroke-linecap:square;stroke-linejoin:miter;marker:none;marker-start:none;marker-mid:none;marker-end:none;stroke-miterlimit:4;stroke-dasharray:none;stroke-dashoffset:0;stroke-opacity:1;visibility:visible;display:inline;overflow:visible" id="rect1337" width="10" height="25" x="4.5" y="11.5" rx="1.625" ry="1.625"/><rect style="opacity:.59607843;color:#000;fill:none;fill-opacity:1;fill-rule:nonzero;stroke:#fff;stroke-width:1;stroke-linecap:square;stroke-linejoin:miter;marker:none;marker-start:none;marker-mid:none;marker-end:none;stroke-miterlimit:4;stroke-dasharray:none;stroke-dashoffset:0;stroke-opacity:1;visibility:visible;display:inline;overflow:visible" id="rect2212" width="8" height="23" x="5.5" y="12.5" rx=".563" ry=".563"/><path style="fill:#000;fill-opacity:1;fill-rule:evenodd;stroke:none;stroke-width:1px;stroke-linecap:butt;stroke-linejoin:miter;stroke-opacity:1" id="path2214" d="M 8,23.5 L 11,21 L 11,26 L 8,23.5 z"/><g id="layer1-8" stroke-miterlimit="4" transform="matrix(1.2660598,0,0,1.2959796,15.921763,5.687831)" style="fill:#2e3436;fill-opacity:1;stroke-width:0;stroke-miterlimit:4"><path id="path5070" d="m 1.6415,10.204 6.7832,3.7866 -6.7832,3.7866 z" style="fill:#2e3436;fill-opacity:1;fill-rule:evenodd"/><path id="path5067" d="m 15.208,13.991 c 0,-3.658 -3.131,-6.6271 -6.7834,-6.6271 -2.109,0 -4.1361,1.0094 -5.348,2.5503 l 0.85177,0.47616 c 1.034,-1.2658 2.7359,-2.0798 4.4963,-2.0798 3.1115,-1e-7 5.8141,2.5683 5.8141,5.6799 0,3.1115 -2.7025,5.6799 -5.8141,5.6799 -1.7553,0 -3.5475,-0.92376 -4.5815,-2.183 l -0.84886,0.47427 c 1.2122,1.5345 3.3264,2.6554 5.4304,2.6554 3.6524,0 6.7832,-2.9686 6.7832,-6.6266 z" style="fill:#2e3436;fill-opacity:1"/><path id="path5648" d="m 12.301,13.99 c 0,-2.2361 -1.64,-3.7866 -3.8761,-3.7866 -1.1905,0 -2.0368,0.32699 -2.7782,1.1454 l 0.8789,0.49036 C 7.07789,11.29369 7.5906,11.15 8.4249,11.15 c 1.6896,0 2.9071,1.1392 2.9071,2.84 0,1.7008 -1.2175,2.84 -2.9071,2.84 -0.84982,0 -1.4491,-0.21841 -2.0039,-0.78193 l -0.86824,0.48468 c 0.74137,0.81851 1.6817,1.2439 2.8722,1.2439 2.2361,0 3.8761,-1.5505 3.8761,-3.7866 z" style="fill:#2e3436;fill-opacity:1"/></g></g></svg>