<svg xmlns="http://www.w3.org/2000/svg" id="svg4584" width="512" height="512" version="1.1" viewBox="0 0 135.467 135.467"><title id="title5188">Ubuntu MATE Piggy Bank</title><metadata id="metadata4581"/><g id="layer1" transform="translate(0 -161.53)"><path id="path5140" d="m32.473 215.08c2.228-3.7287 1.4711-12.643 5.6127-14.032 4.1415-1.3889 6.7398 5.9717 10.156 5.7463 3.4164-.2254 4.7751-5.5812 7.4835-5.6126 2.7085-.0315 1.0265 2.3403 5.6127 4.009s15.799-.54454 22.317 1.7372c6.5181 2.2818 11.462 4.9955 15.769 10.691 4.3071 5.6953 7.101 16.451 7.4835 22.584.38253 6.133-.097 9.2757-2.5391 12.829-2.442 3.5532-9.0285 4.1961-10.824 6.8154-1.7959 2.6193-.10885 4.155-1.2027 6.1472-1.0939 1.9922-3.2396 4.0847-5.3454 5.0781-2.1058.99342-4.3293 1.2731-6.5481.80181-2.2188-.47128-2.779-2.73-6.0136-3.6081-3.2345-.87818-9.9166-.79945-13.096.13363-3.1796.93308-3.3016 3.2492-5.7463 3.6081-2.4447.35889-6.1858-.0496-8.419-1.7373s-2.518-5.6176-4.5436-7.4835-3.2071-3.8461-5.7463-6.1472-4.5325-6.1416-7.3499-8.5526-6.776-1.6154-8.6863-3.7418-1.9924-4.6505-2.2718-7.3499c-.27944-2.6994-.53926-6.1668.80181-8.5526s4.0289-2.4814 6.2808-4.6772c2.2519-2.1959 4.5874-4.9576 6.8154-8.6863z" style="fill-rule:evenodd;fill:#87a556;fill-opacity:.90337"/><path id="path5142" d="m69.356 211.74 12.428 3.3409" style="fill-rule:evenodd;stroke:#f7f7f7;stroke-linecap:round;stroke-width:3.7042;fill:#fff"/><path id="path5144" d="m106.37 233.08s4.5581-.77288 6.1472-2.2718c1.1318-1.0676 2.0584-2.7318 1.8709-4.2763-.20298-1.6716-1.5743-3.2425-3.0736-4.009-1.3887-.71004-3.4933-1.149-4.6772-.13364-1.0904.93522-1.3339 3.0827-.53454 4.2763.84783 1.266 4.41 1.2027 4.41 1.2027" style="stroke-opacity:.90588;stroke:#87a455;stroke-linecap:round;stroke-width:2.1167;fill:none"/><circle id="path5146" cx="82.519" cy="197.51" r="6.615" style="fill-opacity:.94382;paint-order:markers fill stroke;fill:#87a556"/><circle id="path5146-3" cx="95.014" cy="186.62" r="6.615" style="opacity:.666;fill-opacity:.94382;paint-order:markers fill stroke;fill:#87a556"/><circle id="path5146-6" cx="111.45" cy="185.28" r="6.615" style="opacity:.333;fill-opacity:.94382;paint-order:markers fill stroke;fill:#87a556"/></g></svg>