<svg xmlns="http://www.w3.org/2000/svg" id="svg4" width="24" height="24" version="1.1" viewBox="0 0 24 24"><path id="path2" d="m22.094 3.5575h-20.188c-.4983 0-.906.3999-.906.8886v1.7774c0 .4888.4077.8887.9060.8887h20.188c.498 0 .906-0.4.906-.8887v-1.7774c0-.4887-.408-.8886-.906-.8886zm0 13.33h-20.188c-.4983 0-.906 0.4-.906.889v1.7773c0 .48879.40772.88867.90602.88867h20.188c.498 0 .906-0.4.906-.889v-1.7773c0-.48879-.40772-.88866-.90602-.88866zm0-6.6653h-20.188c-.4983 0-.906.399-.906.888v1.7773c0 .48878.40772.88866.90602.88866h20.188c.498 0 .906-0.4.906-.888v-1.7773c0-.48878-.40772-.88866-.90602-.88866z" style="stroke-width:.043822"/></svg>