<svg xmlns="http://www.w3.org/2000/svg" id="Layer_1" width="32" height="32" enable-background="new 0 0 32 32" version="1.0" viewBox="0 0 32 32" xml:space="preserve"><metadata id="metadata25"/><g id="g3"><path id="path820" d="m27.498 10.203c-.276-1.0394-1.089-1.858-2.121-2.1357-1.872-.5048-9.377-.5048-9.377-.5048s-7.505 0-9.3766.50475c-1.0326.27782-1.8458 1.0963-2.1219 2.1356-.50150 1.8838-.50150 5.8142-.50150 5.8142s0 3.9304.50150 5.8142c.27602 1.0393 1.0893 1.8237 2.1219 2.1015 1.8717.50475 9.3766.50475 9.3766.50475s7.505 0 9.3766-.50475c1.0326-.27778 1.8458-1.0622 2.1219-2.1015.501-1.883.501-5.813.501-5.813s0-3.9304-.50150-5.8142zm-13.953 9.3827v-7.137l6.2727 3.5686z" style="stroke-width:.043945"/></g></svg>